<mxfile host="app.diagrams.net" modified="2023-10-01T22:26:03.845Z" agent="Mozilla/5.0 (Windows NT 10.0; Win64; x64) AppleWebKit/537.36 (KHTML, like Gecko) Chrome/117.0.0.0 Safari/537.36" etag="Bd0sfoR23BeN-sX-pXby" version="22.0.0" type="google">
  <diagram name="Page-1" id="5f0bae14-7c28-e335-631c-24af17079c00">
    <mxGraphModel dx="1635" dy="664" grid="0" gridSize="10" guides="1" tooltips="1" connect="1" arrows="1" fold="1" page="1" pageScale="1" pageWidth="1700" pageHeight="1100" background="none" math="0" shadow="0">
      <root>
        <mxCell id="0" />
        <mxCell id="1" parent="0" />
        <mxCell id="GA5pXLN3wLrpzNH8_w3A-6" value="" style="shape=cylinder3;whiteSpace=wrap;html=1;boundedLbl=1;backgroundOutline=1;size=15;" parent="1" vertex="1">
          <mxGeometry x="759" y="303" width="80" height="120" as="geometry" />
        </mxCell>
        <mxCell id="GA5pXLN3wLrpzNH8_w3A-7" value="&lt;br&gt;&lt;br&gt;&lt;br&gt;&lt;br&gt;- Liste des propositions de talks&amp;nbsp; &amp;nbsp; &amp;nbsp; &amp;nbsp; &amp;nbsp; &amp;nbsp;&lt;br&gt;&lt;br&gt;&lt;br&gt;- Liste des quesions sur les talks 2023" style="strokeWidth=1;shadow=0;dashed=0;align=center;html=1;shape=mxgraph.mockup.containers.browserWindow;rSize=0;strokeColor=#666666;strokeColor2=#008cff;strokeColor3=#c4c4c4;mainText=,;recursiveResize=0;" parent="1" vertex="1">
          <mxGeometry x="1320" y="220" width="350" height="320" as="geometry" />
        </mxCell>
        <mxCell id="GA5pXLN3wLrpzNH8_w3A-8" value="Page 1" style="strokeWidth=1;shadow=0;dashed=0;align=center;html=1;shape=mxgraph.mockup.containers.anchor;fontSize=17;fontColor=#666666;align=left;whiteSpace=wrap;" parent="GA5pXLN3wLrpzNH8_w3A-7" vertex="1">
          <mxGeometry x="60" y="12" width="110" height="26" as="geometry" />
        </mxCell>
        <mxCell id="GA5pXLN3wLrpzNH8_w3A-9" value="https://www.mkutano-talk.io" style="strokeWidth=1;shadow=0;dashed=0;align=center;html=1;shape=mxgraph.mockup.containers.anchor;rSize=0;fontSize=17;fontColor=#666666;align=left;" parent="GA5pXLN3wLrpzNH8_w3A-7" vertex="1">
          <mxGeometry x="130" y="60" width="250" height="26" as="geometry" />
        </mxCell>
        <mxCell id="GA5pXLN3wLrpzNH8_w3A-14" value="" style="group" parent="1" vertex="1" connectable="0">
          <mxGeometry x="971" y="305" width="200" height="78" as="geometry" />
        </mxCell>
        <mxCell id="GA5pXLN3wLrpzNH8_w3A-10" value="Frontend mkutano&lt;br&gt;&lt;br&gt;Vue web de MkutanoTalks&lt;br&gt;avec Qute template" style="rounded=0;whiteSpace=wrap;html=1;" parent="GA5pXLN3wLrpzNH8_w3A-14" vertex="1">
          <mxGeometry x="-28" width="228" height="78" as="geometry" />
        </mxCell>
        <mxCell id="GA5pXLN3wLrpzNH8_w3A-15" value="" style="group" parent="1" vertex="1" connectable="0">
          <mxGeometry x="676" y="54" width="240" height="84" as="geometry" />
        </mxCell>
        <mxCell id="GA5pXLN3wLrpzNH8_w3A-16" value="Bot Telegram&lt;br&gt;&lt;br&gt;Persiste les données du Bot &lt;br&gt;avec apache panache&amp;nbsp;" style="rounded=0;whiteSpace=wrap;html=1;" parent="GA5pXLN3wLrpzNH8_w3A-15" vertex="1">
          <mxGeometry width="240" height="84" as="geometry" />
        </mxCell>
        <mxCell id="GA5pXLN3wLrpzNH8_w3A-17" value="" style="shape=image;verticalLabelPosition=bottom;labelBackgroundColor=default;verticalAlign=top;aspect=fixed;imageAspect=0;image=https://res.infoq.com/articles/getting-started-with-quarkus/en/headerimage/quarkus_h-1586170340042.jpg;clipPath=inset(15.67% 15.55% 15% 15.55%);" parent="GA5pXLN3wLrpzNH8_w3A-15" vertex="1">
          <mxGeometry x="12" y="12.780000000000001" width="28.425" height="28.7" as="geometry" />
        </mxCell>
        <mxCell id="GA5pXLN3wLrpzNH8_w3A-18" value="" style="group" parent="1" vertex="1" connectable="0">
          <mxGeometry x="679" y="619" width="240" height="84" as="geometry" />
        </mxCell>
        <mxCell id="GA5pXLN3wLrpzNH8_w3A-19" value="Bot Télégram&lt;br&gt;&lt;br&gt;Expose les données persisté &lt;br&gt;en Rest avec RestEasy Reactif" style="rounded=0;whiteSpace=wrap;html=1;" parent="GA5pXLN3wLrpzNH8_w3A-18" vertex="1">
          <mxGeometry width="240" height="84" as="geometry" />
        </mxCell>
        <mxCell id="GA5pXLN3wLrpzNH8_w3A-20" value="" style="shape=image;verticalLabelPosition=bottom;labelBackgroundColor=default;verticalAlign=top;aspect=fixed;imageAspect=0;image=https://res.infoq.com/articles/getting-started-with-quarkus/en/headerimage/quarkus_h-1586170340042.jpg;clipPath=inset(15.67% 15.55% 15% 15.55%);" parent="GA5pXLN3wLrpzNH8_w3A-18" vertex="1">
          <mxGeometry x="12" y="17.892" width="28.425" height="28.7" as="geometry" />
        </mxCell>
        <mxCell id="GA5pXLN3wLrpzNH8_w3A-21" value="" style="endArrow=classic;startArrow=classic;html=1;rounded=0;entryX=0.5;entryY=1;entryDx=0;entryDy=0;entryPerimeter=0;exitX=0.5;exitY=0;exitDx=0;exitDy=0;" parent="1" source="GA5pXLN3wLrpzNH8_w3A-19" target="GA5pXLN3wLrpzNH8_w3A-6" edge="1">
          <mxGeometry width="50" height="50" relative="1" as="geometry">
            <mxPoint x="795" y="496.21" as="sourcePoint" />
            <mxPoint x="935" y="356.21" as="targetPoint" />
          </mxGeometry>
        </mxCell>
        <mxCell id="GA5pXLN3wLrpzNH8_w3A-22" value="" style="endArrow=classic;startArrow=classic;html=1;rounded=0;entryX=0.5;entryY=1;entryDx=0;entryDy=0;exitX=0.49;exitY=0.142;exitDx=0;exitDy=0;exitPerimeter=0;" parent="1" source="GA5pXLN3wLrpzNH8_w3A-6" target="GA5pXLN3wLrpzNH8_w3A-16" edge="1">
          <mxGeometry width="50" height="50" relative="1" as="geometry">
            <mxPoint x="797.5" y="294.99999999999994" as="sourcePoint" />
            <mxPoint x="797.5" y="195" as="targetPoint" />
          </mxGeometry>
        </mxCell>
        <mxCell id="GA5pXLN3wLrpzNH8_w3A-23" value="" style="shape=image;verticalLabelPosition=bottom;labelBackgroundColor=default;verticalAlign=top;aspect=fixed;imageAspect=0;image=https://dataera.com.tr/wp-content/uploads/2018/07/postgresql-logo-1.jpg;clipPath=inset(4.13% 39.67% 27.98% 38.67%);" parent="1" vertex="1">
          <mxGeometry x="776.64" y="354.53999999999996" width="44.73" height="50.92" as="geometry" />
        </mxCell>
        <mxCell id="GA5pXLN3wLrpzNH8_w3A-24" value="" style="curved=1;endArrow=classic;html=1;rounded=0;entryX=0;entryY=0.5;entryDx=0;entryDy=0;" parent="1" source="GA5pXLN3wLrpzNH8_w3A-28" target="GA5pXLN3wLrpzNH8_w3A-16" edge="1">
          <mxGeometry width="50" height="50" relative="1" as="geometry">
            <mxPoint x="366" y="200" as="sourcePoint" />
            <mxPoint x="400.53" y="270" as="targetPoint" />
            <Array as="points">
              <mxPoint x="366" y="200" />
              <mxPoint x="388" y="185" />
            </Array>
          </mxGeometry>
        </mxCell>
        <mxCell id="GA5pXLN3wLrpzNH8_w3A-25" value="" style="curved=1;endArrow=classic;html=1;rounded=0;exitX=1;exitY=0.5;exitDx=0;exitDy=0;" parent="1" source="GA5pXLN3wLrpzNH8_w3A-19" edge="1">
          <mxGeometry width="50" height="50" relative="1" as="geometry">
            <mxPoint x="931" y="533" as="sourcePoint" />
            <mxPoint x="1091" y="383" as="targetPoint" />
            <Array as="points">
              <mxPoint x="1096" y="603" />
              <mxPoint x="1081" y="493" />
            </Array>
          </mxGeometry>
        </mxCell>
        <mxCell id="GA5pXLN3wLrpzNH8_w3A-26" value="" style="edgeStyle=orthogonalEdgeStyle;rounded=0;orthogonalLoop=1;jettySize=auto;html=1;" parent="1" source="GA5pXLN3wLrpzNH8_w3A-10" target="GA5pXLN3wLrpzNH8_w3A-7" edge="1">
          <mxGeometry relative="1" as="geometry">
            <Array as="points">
              <mxPoint x="1007" y="353" />
              <mxPoint x="1007" y="353" />
            </Array>
          </mxGeometry>
        </mxCell>
        <mxCell id="GA5pXLN3wLrpzNH8_w3A-30" value="" style="curved=1;endArrow=classic;html=1;rounded=0;entryX=0;entryY=0.5;entryDx=0;entryDy=0;" parent="1" target="GA5pXLN3wLrpzNH8_w3A-28" edge="1">
          <mxGeometry width="50" height="50" relative="1" as="geometry">
            <mxPoint x="366" y="200" as="sourcePoint" />
            <mxPoint x="675" y="165" as="targetPoint" />
            <Array as="points" />
          </mxGeometry>
        </mxCell>
        <mxCell id="GA5pXLN3wLrpzNH8_w3A-28" value="" style="shape=image;verticalLabelPosition=bottom;labelBackgroundColor=default;verticalAlign=top;aspect=fixed;imageAspect=0;image=data:image/png,iVBORw0KGgoAAAANSUhEUgAAAuwAAAI4CAYAAAAxj7zFAAAAAXNSR0IArs4c6QAAAARnQU1BAACxjwv8YQUAAAAJcEhZcwAADsMAAA7DAcdvqGQAAABhaVRYdFNuaXBNZXRhZGF0YQAAAAAAeyJjbGlwUG9pbnRzIjpbeyJ4IjowLCJ5IjowfSx7IngiOjc0OCwieSI6MH0seyJ4Ijo3NDgsInkiOjU2OH0seyJ4IjowLCJ5Ijo1Njh9XX3rmEhTAAD/OElEQVR4Xuz9C5Ac13nnC37V3fWu6q5GEyIhWSJAovmAIZGUHJYJaExLIk0BkoewpUGMZuUhx3cJWBtzDcReUyPFhTcUa+5IHvpGAHMnLofgvR7S4V3dxUgjaE0CliiToi2ClkfmQ4JBkQAJQg+DL6Cru97Vr/3+X+apOpWVlZVV1d1oAN8POF2ZefKcPJmVlfnPL7/znUi9Xl9kCIT5NNOrnYulnYqiKIqiKJc7kUjEnbo8wP6aZOYDP2u1mihbW4ybae+yMIRd73JBj4eiKIqiKJcyRlQqDmGPhy3K7WQva0xXq1VRlEace5PJsz+DCLPO5YQeD+VSR89xRbl8MAJCUWz0vGglzPGwxbj59EuNPAh23HC9iZfT+fPnqVQqSZqbm9Mb8wVAj7miKIqiKKsZIyyV8OCYxWIxSqVSlE6naXx8nJLJZCPPHNOhoSH5jJTLZdaEjijEJ9Jbb71FZ8+epYmJCakICZUqiqIoiqIoijI49XqdWIdLeuedd2jdunV05ZVXtgh2Mx0plUotgv306dPyCbGezWZluaIoiqIoiqIoy0OhUKBz587RwsICXXvttU3LuivYhyDOTYJlHSu+973vVbGuKIqiKIqiKCsAdDf0N4T6m2++2dDmJjUEe6VSobfffpuuuOIKGh4edosriqIoiqIoirLcQH/DwwWWduhyX8GODqajo6NqWVcURVEURVGUCwB0ONLU1FRDrANxkIEbDCLBmN6piqIoiqIoiqKsPAj2UiwWRZ8DsbBjBhPIUMGuKIqiKIqirEagV01UlU7JWKQvZqDHzb5ApyNFpqameH6Rnn/+efqVX/kVd1VFURRFURRFWR3AE+SHP/wh1Wo1d4k/8Xhc9Cximy83cFuZnZ2ld73rXe6SVhDMJRqNSoz1XsG+3nLLLU6EmKEhxyXmUngaURRFURRFUS5NfvrTn8qYQFu2bKGPfOQjvgl5WAfrrgQQ6y+++KKMXeQFy5CHdfrF6HN8NjqdGj8ZRVEURVEURVlNQPjCap7JZBqDenoT8rDOICK5F2BZ37x5Mx0/frxFtGMay5DXyfreDeOybkS7E5VdURRFURRFUZSewOiktmi3xTrylgoV7IqiKIqiKIrSJ7ZoXw6xDlSwK4qiKIqiKMoqRgW7oiiKoiiKovSJ7QZju8csJSrYFUVRFEVRlDYQQtEb59ybuoVZvNTx+qx7fdqXisg777yziB6oL7zwAv3qr/6qu1hRFEVRFEW5XJmfn6e//uu/dueC+fjHP07Dw8Pu3PLw0ksvUT6fp/e///0Sl9wPRFb58Y9/TLlcjm688UZ36fKBOOsI3ejns26E/E033dRXpJi///u/p5tvvlnisOPYqmBXFEVRFEVR2oD1HMI9CIhJDFa03FxuAyepYFcURVEURVEuOqBXK5WKO+cPhvWHyL3Y8Qp29WFXFEVRFEVRVj0Qr34DJtnpUhDrfqhgVxRFURRFUZRVjAp2RVEURVEURVnFqGBXFEVRFEVRlFWMCnZFURRFURRFWcW0RIn50Ic+5C5WFEVRFEVRFOVC8A//8A+dwzrefvvt7mqKolzOvPHGG3TVVVe5c4qiKIqirCTf/e53NayjoiiKoiiKolwsqGBXFEVRFEVRlFWMCnZFURRFURRFWcWIYIcPu6IoiqIoiqIoqwOjz/GpFnZFURRFURRFWcWoYFcURVEURVGUVYwKdkVRFEVRFEVZxahgVxRFURRFUZRVjAp2RVEURVEURVnFqGBXFEVRFEVRlFVM5J133llcWFigF198kW6//XZ38aVFrVajer2u4SuVyw4MaRyLxSgej7tLwvHGG2/QVVdd5c4piqIoirKSfPe736WbbrqJhoaGnOQuv2SBWEdSsa5cjuC8N7+B1c+T9IVrr6W7Hj7tzl/KnKaH77qWrv3Ck+785bTviqIoSq9c8oIdlnVFudyZnZ11p1YSV5R2EKKnH75L8q6962Fecwl48guWAF5umvvWlpZqfxRFURTF5ZIX7GpZVxQiuL1dSI4/9l2PiH2SHvzqcXd6aXjyr77hTq0EG+je/d+VV5bfffiLtJmXfPphd37/vZyrKIqiKEuHdjpVFGVZ2fzpT9Pm41+lB23j95N/Rd+gTxNndQYW82uvJcdo3u4y4ljov8A5p3nVu+he6PVv3OtYuV1L++knH6a7bEv4XV+gZhVOnV94mD8b69zlbs/ltJ3H2/+CZT3fsIH/I7nzLNPt+eBtd6Fl353966seRVEU5ZKgIdjVEq0oynJwnD5Be1iYf+OvmkpYrOGf/gTndOA0i11W4Ju/+F36Dx9zl3VkA33s83voi46Z27Fyu4U2bLiWPvUpd9l3H6Yv8mPCV/e2uqx846sHiPa4+ZuP0zcOmPzT9PDee+XB4mG3/PUvf5VuD+nyEmbbvnj3/ckH5WHki1LPd+nhT32CblcTvqIoyiWNrcsxrRZ2RVGWnY99QhQ7OZL9Sfqrb2ymL36+kxL/Ln3h9q9CodK37g2pTJtmbsfK7U7Tho/Rvfd+zFnG07d/ilX98ZOtovnTe1gY++SzUIbXzqf3/Af6mFv+P+DJ4/hj9N1Qij3EttvotO/H6bEHUZIfTlCns1BRFEW5TFDBrijK8vOxT9Cn6RskRna4w2z+VEcr8fGvfpXXXBpOP/kFuuuupjvJ7T5+85sng+TvZmrJ3jDJS47TyRCCPcy2vfju+8f+A333YTzw3Eu33+5xy1EURVEuC1SwK4qyAnyMHCP7w/TwgW/Q5k/d3tFKvBluLV9kWfzVvYG+2qdPdhHALJhvv/cbdP2n9tOrr74qCfX2hkecnz7JSzwi3o8+t91p3zewaP8W6mDhfvwbX6W96sSuKMoSMD8/Tz/5yU/oySefpCNHjsgn5rH8QlGtVukHP/iBtOcv//IvQyWsizIouxKcPn2a/vzP/1zS66+/7i5dXlSwK4qyIjhuMV+lrx7fTJ8KcsJmNbzh3v3iT970+d5Ak/Aoeey79CRfKNGhk3V/Oy//lZNv69lrnYsryuztJTLNxz4vfvHfOPAFt84n6QvYaMDbgTZ63bbfvvN2H34S2+c5sfATXX9t2AYoiqL489Zbb9E3vvEN+pu/+Rs6c+aMiF18Yh7Lkb/SoA1f//rX6fjx413DcuOhwjxYYF2UQdmVEO1/+7d/K9tBwvRKsKSCHU7xTz/9NB09enSg9P3vf9+tUVEuP15++WV6/vnn3bnOYB2se9EgbjFMKMGLsIlflOgyt0uoFJ7f40Sbuff22+n2AydpD9xEGpj1v+HkIyQNBPenN9M37uV5Xrb3r4j2t5TpBtf5re/SF69/2anz9nvpZfoiPRwmbONA2/bs++lX6TG3ntvh3/7ph6mj+7+iKEoIIMa/9a1vScjfT33qU/Rv/s2/od/5nd+RT8xjOfJXWrRj1H0M9Ie27Nixg37rt36rY4LmxCjemMa6KIOyqONSJPLOO+8s4ot54YUX6I477nAX9wfq+c53vkOVSsVd0h+ZTGbgthhmZmbcqeXiNXrwN3+f6D9/hz5/jbvokuMJ2jP2GH1q+gAtzbeiBGGE+HXXXUcf/OAH3aWtPPfcc/TKK6/Q9ddfT7fccou7NJjR0VF3qjtvvPEGXXXVVe6coiiKcqkAqzQs6NBsn/70pykajbo5TTDYHtbBkPhYZ3h42M1ZXuDaAms5BHg3vvnNb1IikaBt27a5S4gOHz5MsViMtm/f7i5ZHuAGYyzrt912G73vfe+T6aXkiSeeoJtvvlm+g0gksrSCfTWy6gX7E3toDx2gA8t+6NHOW+iLP3BnbT78VXr+O5+nzs1Xwb7SGEHuJ9qD8oJQwa4oiqLARx1uL7Ckv/vd73aXtvNP//RP9Nhjj9Gv//qv0w033OAuXV7gjw5gNe+Gn2DvpfxqxyvY1Yf9AvPEY4+4U8vNNfT570zT9DTS1+ke/vd1meYUKNaVCwGEOAQ5hDkEuqFfsa4oiqIoAEIcVvUgsQ6Qj/WwvnLhUcHeBizRe/jJZg+NjY25iefFymzmx2jPE+7qXl57kH6T83/zwdd4BmV+k2TSgPzffJC3gu2M0WdYrz/yGbdet9LXHvzNxnZat+XXNk/9br2NfNlWODpvV7kQeEW7inVFURRlUNBREvf4MGC9lejEebFx0UeJuXQ6nT5Cn3nsU641epq+fg/Pjz1ANzzvWqS/fg898oCfEGaBfss36bd5ve909Y9xLN5cFd3zdbde1y/mms9/p7Ft2dZn8MBgaG3b8xhj5fdNWxy3l2/+9vPN/N/+Jt0SUrQHb1e5ENiiXcW6oiiKMihwI8F9PgxYD+srrVwSUWLQ4dTsRL9p0E6rS8E9n2p6a197w4d5wX1NH/U7PkX3/OAn9Ko76wCxDFG/xJ1PsS130mC37Zo7f5s+bNry2rfpmz+4h+6zGnDN5+/jtn6Tvh3WzG7w2a6iKIqiKBc3cHVBp9Juri7Ix3rdXGeUlWFJBTsc4z/xiU/Qb//2bw+ULnzn1w/TDde6kyH55u936NDZB62uKZ+hVi/3gLa9+hP6wYdvQOhni2vphg//gH7S+nThS/B2lQuB7QZju8coiqIoSj9MTk5SLpeTjqcQ5H5g+fe+9z1ZD+srraAjbjKZlIQoMSvBEKziiBKjDMIP6Mb7vO4pHYCodid9eWIP3fLFG5sdQqWDaEiuvaFpbW/wKv3kByEeQAbZrrIseH3WvT7tiqIoitIrCNH4G7/xG1QoFCR0o9fSjvlDhw5RsViUaGErFdLxYmL9+vX0u7/7u5KWI6SjAfocOh1op9MlwRHE8AH/+o1fpFsavTUd6/Y3G/4or9GDD7TbrV865ZH4lpX8tQcfCG/pvuZO+u0PP0IPWL1QpfyHf5vuDOOm0+92lSWnUwdTFe2KoijKoLzrXe+iu+66SzwjELrxv/yX/0L/7b/9N/nEPKLDXH311RIC8h/+4R/cUsqFRDudLjF3HHievvrSZ9yIL9fQ5/8zzO63uG4mt9BP7mu1XN+xx8pHmTv20FeJRb/rmvL7dB999cPuyl1BR9bn6be/abY3Rrd887e7xFh3GWi7ylKCgZP8xLrBFu1hRkRVFEVRFC8Q7RgUCe4dEOfoXIpPzGP5nXfeKYPzQbCvlGiHNR8DO/ULyq7EG4ELESUm8vbbby9iB3/0ox/pSKeKsgrAKKflcrnrCKYQ66lUSi6oYVj5gZOm6Lmv/zXRxz9DHxx3FymKoigXFTDE4r70oQ99SNJy8oMf/ICOHz9Ov/M7v0Pj48E3Du/ASVNTU/KWYPPmzfThDy+vxRFCHUFSAPzY4Rqz1GDgpA984APyACKDJy2lYF+NqGBXFIeLUrCf/mv6a/o4fXyDO68oiqKsOCsl2iGCv/71r1OtVqOJiYlAa/nc3JyMAGqs8ufOnaN4PE6f+cxnlj0U5YUQ7OrDrijKquX0ayHCGymKoijLCiKhGPeY5Qy9DaENwQ0reSwWc5f6MzIy0hD0WBdlVkKsgwsRJUYt7IpymXDBLOzXjNMPf2iE97V0x66PU9NgjnX+K/3wvDu75lfoX3zmgzTuXQ6uvYN2qaldURTlgoEocujnpiw/amFXFGUFOU8/nLqGdu3a5aQ7+CL09edYjgNHlL92zb9o5P+La16j/yr54/TBz+yiO66FTnfLqlhXFEW5oKhYv3CoYFcUZVm59hpLaG/4IP0KvUanodinTtNr56+lD1kO7uMf/BBde97NVxRFURRFUMGuKMoysobGc+5kg/M0leeP/BSdXzNOrdk5Gl/j5iuKoiiKIqhgVxRlGfGK7zxNnXdFfG6c1pyf4iU2Vr6iKIqiKMIlL9gR8kdRLnfQYeVC8eprp90poqnn/oFeXXMNbYAXzPgGumbNq/QPzzX9X1ryXRBbV1EURVEuZy75KDGI5YmkKJcziE2LFJalixLzHI1/CL3de40S4zL1HH39v/6QJFujxCiKoiiXCW0DJ7311luLGKH0UhXsAIJ9dnZWRmJVlMsJ/Mij0WhPYh0sjWBXFEVRFKUfjGCXkI6Xi2BXFKU3VLAriqIoyoXDK9i106miKIqiKIqirGJUsCuKoiiKoijKKkYFu6IoiqIoiqKsYlSwK4qiKIqiKMoqRgW7oiiKoiiKoqxiVLAriqIoiqIoyipGBbuiKIqiKIqirGJUsCuKoiiKoijKKkYFu6IoiqIoiqKsYlSwK4qiKIqiKMoqJvLWW28tLiws0I9+9CP6yi+udhcrinI58yv05+5UdyLu5+z8HM3NzVIynnSXOJh8PyQvaIUAupXtVq2d71030qWwN3+6OENjmVFaXFykQqkg0wDX1kq1TPPzCxQdGaH5xQVKJZK8vQjNLczTAs9HFlFfhNeZpaHh4bbjZ7O4OE+lSlmmM6kMDXG5aq0q9aSTKVkOTPNa9tHT5pY8TjPlAteZJgyA7VlVylbrNVkxEY07yzjN8vc9MjxCQ0NOCfnLf4pcF/YDec52nXxQrhT5WMQ4ReVY4QCMpkflGGAtbztNUXzI8S3mKZsek6G67XUX+HjW61U+vmmZ99Yjs/zHLHa21sTMzc7XqViZ4fJDNJbOUaVWknVT8bRMo+2xaMxdu71e4LttF0wv8j/sr5lvwVrgzZN5d+HCwhyVStM0mp2gcrXA+51tbBfnXbk6Q2leNjQ07Cxk5rlMlfchGc/QMH83Nt5tefHuk02nrDk+pxf4uhCPdT6nuxG0XdCt3UF0qzuIbkXL1Wn+TsbknK3UZmQaLPJvtV4vy/k6PByl6kKdhpKjtOmaj/O51f9xUlYvvzj7j/T2udPuHH7/7eA8MdcEw5rIP6MPfOADcq2T650KdkVRvECwZ3JZd647/dzMDctVFgRle/Pa5gMKe/Omi9Ms0sdYEM2zIC2zAG0eO1xfIWBrtRolWaxDXNugqtnZWYqw6IWIhfY1F/RsyqmnXC2J6B8eHuIbf4o/h6XeEtcbjyU4uSLaapeZbHxaecAzK+IKAhz1A29+pVYWAR53xaqdb9ddrVVk3n7wMDci1D83V+dtOKJ6hgVnlo/VEItjIGvxH6u6tn3iGxYLfT7e2fFGnvOg5Aj5Ybcu4C1r1+29OWIO9UwVztE4i+D6bIVK1aLkxfkhBW2EaPc+KMgk/7Fr81Tdkgfaylv0UrbCQj0WTVCtXuEHNjz0OMsL5TxleN4cVwP2GftYLE/xwxmOX7My73a8eNtlM0hZEJQ9SNludKs7iG5FyxUW7MkxEeY1FuhJfngyQLRX+bubnatRNJqk0kKV4qk19P7J7RSLOb8N5dJhjr/nf/zJE3ydr7aJdT/xboicv7lFsKtLjKIoKw4EKizDEA/9grKDlF9KRoZGqFQpsciri6idm5uT+amZKXrr/Fs0PDTMN++UCFYI+1w210iYhwCHwIWleZTnEyzCeecoX8jT+enzUh/EFQQ/1sWDAR4SMizojVgfFKl3ft6da2eE8+fm59y5zszyMcBDhBd8V3jwSMabbwLQfq+o7AZuXDEW0IXyjDxE4GFohsV6Otl7XV5gWUfdpQoehPB95PjhIsMPTmNO/bzt1QQs5WVuq/22QCy3fBzwhsCAY19nsVBkIV/ifcRDI8TiakIeGCFoBvhNr6ZrwhBfE2r1Eu9XnX9bI423G3hYmim8xfnDfI6l+PuapYnkBLd7jk689h0+B8+5NSiXCiMjcbrm6g/Ldz4IKtgVRVlR4AZRm63JjTU/k+/7BjtdmBYx67VYXwjSqbQI9WKpKPtWqVWoXnfE+5UTV4r7ikkzxRm3FIsrbvtMaYZF+igLwrSIchyPcrUswn18dJznFyiTzoolGscO+ahjLOu4hWC+32NoA3cmiPZOwBWkVq+6c+04bhhlaZP3O4HQL/B+ZlOO64sBy7xgX0qVoghxvwcE5Cf44QauRvIglEjzQ8+4HOtBmJ1jYcX1ZViYywMBPwTMFPPOw9MqBccyEU9TtV4WwYtjg/0Y4e/KAAEPoY68dHKMz8Exscp7XWIuJHhTACskXIVKlf6vCbBqF8vnufyFvybge4For9aK8nCENzYi3nnZWPZKzs80EqztmUiUj0GVfvLaE/TTN57j31D3h2Pl4iGbXUsbN2zh313UXdI7KtgVRVkSYF2uwc85AKwDkQHhCmtxLBYTqzOA2DPTYYC4hKCFcMcNHuXxAACx3A+QCCYBe95OwG95LBanKO8PLObw9x4aYfHHIltEuLtONBoT15caH4c672uhWGAhPiriSdbh/cjDcg6XGghbTuO5CRHqmEZ5lJXXoxEW61xmqpDnNEXn8u+w+GdBz8uA/dk18XYLlRKLh6TMAztf4O0nEimx7C/w+o18ni5y2QILbPjUo31YZvJxTpT5O8nwfsoDBi8D8yzGIZBtUG66OMUiOcnikoUMl4NV3gaW9WKlwOdPSo7tUli9sV3H+u+4I0CwZ9M55/sa0Gq/3KCtORYDEOrwZYd7DPYHQKzDop5J5eSNgZyLnOcc++UX7BCo3Sz5cJFyHjwyvC9JeTCcX3CuA3AlQd+OsMCCCVefEgt37CfKl/hhBWL5QhAdifODZIwfKsdojh/kcczhGoP9NSAf59gifyfphQjV+ft64+2X6Eev/CW9PXWKv0MV7pcKo6NX0i/fcDuNja1rXB+BmfYmLyrYFUVpY24eN/pS48bfDbhSFMtFKQN3jU5UqvC1bfpowg0EIh7gEwIuzDaxDSPWUB9cT1AWlu4gt46wBLUgKA/bhoCGq8vigmMJh7i1gRsIRK8R4ThuWA8Jy+FDbluLsV94GBCrPR8jCLMU7zNqxbGCSM5lx2mIy5hjb7YY1FYDrNgQ/KbjJ/CWM/OwNif4QQvtnOb9xCc6q6ITJt4IxPn7XDM20WK9xRsH+OLbIgXthvCGKLeBVV380F1Lv/i8c/vsBzm4f1RYXMejCclbCtCZFJZ6u41wIcE2LgbwO8DDBvzYM/ygYaztEPAQ643vlZdBwCcTrcc9DMalI8zvE+BhoVItShlMdwJiOm75baPjJc5xADEPER5mm9gG9hPiN8H1lcpTUhaW7qDtLzcLi+jXkuffLF8TFtEJfaZtf/CwgrcDsManh1jA80Nusfg2vfTak/Ts84/QT177Lr11/iT/Zt7kdfiaoiL+ogXn+nXXbHXnwl2jDdrpVFGUNiYL/4neddW7REwa14sgxN0hnRVBDrFl+1U3JZDjxoL6bFAWLiHw14YYw7QRGHZZG/jAz7IosSOjAIhgWO6N4O1UHgTlAUu7tWHnwb+8Wq+KeMSNGGIdIhrgAQZtSdjHg/OMv7u9rqHTdt+Zelv84LE9cwyx6vnpczQ+ukbqq7HIhIXf5LV8euvltsIqjsXiS+5GejF4VzflzXI7365bJvmPWYRjg3sMHkSwDNbdPD8gyFuWOKzkzno4dkUW8RD+WIT5s+/8Qt6i4EEIbyJMebjMjLKwL7MgRNuB2Z75BEHtMucY3HfQeRf12RRKU2JlFxHoLmuWdScYmeQ/1qKWfOCZbS/PGBEX9nsAnfLgAgPrLs4tuL8A1F+pFfghhH8flsuMwVuXDY55tV4U8QsRDrca+82DX9myPBhkRZDjmoD2+AFreCbZeuwR4SaVGJU8HI4kT5vvy4tZiocUWOPhF24jHXNjSd83Ch2qDEVQUTzcwB8fn/idQayb9uMBBtcE7/EQf3c8jLsPWHhHVUE9tCDTfhRL5ynK3y8eSOxOrXirgA6vOB6z8zX+nTXzgsA5gnYACEvT5m6i0j11Q4O3Lmgz3qhg3xZ5ulSdlu8OnXANMHrgIcbsG9o3NfMGX/fRmXdBHnTAPD8UVfGGjNfDWxWcp942eZvoPab2HPIQzSqVbD1uRT4f03wuBn/7aKc7wbRv12E04v4u5a8/Q9rpVFGUboxmsnzhjIowhMgOuiLjIiqihhMuKkZ4dMKbj3kkWMphTTY3iU7AxQJCE5E7/FgKC7uh275AeJdruEEkRHxDXNrth+XZzwos4tU9Zl4gvPHGAFZlJNyYAAQrtocHIxtYhmHpDvt2AsibAN4G3nCIEO5yzAcBVnlEv4GvPqLCVFjAYx5uL16a0hhiKuIeJ7jRNPcLYmcs44gaEUQDgg6mXks/BCreEizncfECn3k8JIT9DoOAGKyw0MEn6oObDMQvBI6fWO8G6oJIGhmOilgvlh2Xk04gD8fOSf1fEyDgIiGuCRCAEHadHgqW0sLebV8geOt8vCGk0yzU055oPHD58bOQx6J40GheE/BbSA1FaXQoRgm+BMwhYhH/biFuuRGyDr5PbAsC1QbuT3g4w7Hr1l4DjhGs/NGRhNTb7ZgPAr4nnEv4zqrczjp/f3igwrbbsNqBNkmIUM81YTgyzMfauY4txTWhysfauMcZ8PZyOLKy1wQvK25hx0mI14zxYVjBopLgi2me1vHKCBYPPC0j1eYrYjWyvxxFUZaXD1lhHSEgEdEFlm8/FvgmAhEN6y+EIHzJjaiUS5t1fYPghFgzcayRhfqRYHH14r004uZzLn+OJnITLZZILMeFFJ/n8+dpYnyirayN5AWsgCypa/q8tBVtMxdq+3qN44K2Q7Bjv7COXS3qKLgdRIFdFi4wiHsOoW1A/tRMvvGghJsobvDOWwfO4/bk3IcCezt4s1DlG/easTUiaE2evY7ZNtqUZ7FuP1yYPINntpFvltvry6Q33/0EzrrOEvnL24dwd0S3LBYwOc2iNcfLDcjHQ0t9tkYZV1SbIsiDjzvuF2mf2Osy6c43yphPNxM3YYSIHM+ukUyTj2XoR2CizviXb9Iyz/sHSxx8y8Vv3F1sr+Jtp5wnLNZBlvffjnZjlwNt+2hh8lAfOqJC3OFMiXJbcB6Z79uPTjkQ+yhnR/6BJRguQykWScBbFuctRLQTBWWe120Na2gDi3MUWsB6kIDvO7bhCEd3YQecY3eerzlrWvYPy/GGAZ+wRGczE25Ok8CqfTKlrvJ5aWsi5i9qcVwWuP0Qn+hg6F0HdcAtBhZwL1gOy7Y3mggiy+CBCYIa5zvqxRsIJ+8851kPBe4H3izg7UaGj0u3/gpoU4nPP+/DhU2/CqxrOd423AZl3ADeR+/6eJCFW5eN6EM+v3B+eNev8j4j9Cvcorx5LfO8Tb98XBPwcJtN8TXBosDLMNaB+W16y7bAmXY+9k+uCfyggjdcftv1gu9kJH/LBbCw8wmQiKZpPLWWrhp9L61JXUnp+CjFR5LOEwuagRZzwjSWIQ/rYN0rucx46gqpA3UpirJyQLDiIgVh6keELyTGqo1X33DZwMUG4EKFcqVySQQq8mDZNfn4K1ZoXm4syUHgZgKXFwjU6QJ8OZ0yELfiT83bGBlxbk7OFvwJygPIxzYgnOHeg4eERputwhDqmXRGLvLGKm7XjfbihXbDt9zKxBsFdDy1QT62g+ON45LmBwVcqHGTRh46QRp/bpQ1IR9RBgLRezOx22KAxd/pTNm8ltrtAt5yJt+vXr/plmX2DIN2o63AzsNkIpqQtyfmWCP2PDqY4i2Cpxopi06yAG85gL2O33Tj053Aa2884MAn3oBjDWzR3AuI3Q7rHI4vrPdmX4LAuvA9hzDpd7s28jvhNsDqiNf6EOv9gLZDeBu3GgMEK4xsxtfcC/LMOQ/xCaunOQ74hBiHUIdIg7UZgtQ+TuiIifPUfBdBYF/xMAGBKvW5ZTBwEdxyIILRv2MpgDUYojI6HOc2N68JNjhWEJLwXUfEG2+nWbQXUtHP6g+xbjrctgKDBGsjPi4QojhHTCQcHCtTBkIWAt6xMi/Kg1qY8wnrO9/p0or1MKButNvvHMXhxfHEd2uONb5fzONYeduFeQhigAdWG791bcw8XL7wgIPz04AB77CC9/raCTsf03hDZa4JuJ7Z502nuvy+i8GvDF1IRjP0rvS7aTzJgnvEeeWDxvaSYCFIjLDg5zrWZt7Ndba+qlAUZXlBZ04MCOQHLizGfxvAGgwhCRENAQ0xH48j6oYTmtCO7GJAGe+yTkDoYn24S8DNAmUgauG7DYFtrNmDALGB/YKYQ93Geu4HLuJwLcF+weffCBUD2jXDDxfeBx483HQKGYh9wjZRN7ZbrVYbDw3w9UfCAwVu2vDnxk0Mx9m77dUIrOKd9hvCCw8qsHAjpCJubsb9xQbHYd4958wgTPCV7wXzHWdSiF4zLNvDdqcL51nk9t4p04DvZETeImFf4iwcC25OMPiuca6tJswIqn7ADQP+wn7guJrvB8AaDCEJyyVENY49xCR8qxNcPyK7wHps1gew3nuXdQLiDevDom86dULgYhks2RDZg+IIbLj9jYiRYnio8zUB24Z/NlxiINa84hxRY3Ac8CbBBuehr1sIHwLsEzwSsG1sF5b8Qsm5JsBnHQ8HCA+J+Ro6+vJ5iO36PRisNmZnK/77zeB3hIcJHC+cPxIC0+pIbcB+mwdD4yKEY9QLOFaoFw+6+C4wABncvwrF89RPR20DDEv47nq9JnhZtqtDfDhBV6TXUS6xRvyL+CguSRqhYa5zQurGNhRFWX7gygJrcieymayIdLjDQNjDvxyiGuLZdALFhRCCBIIMy+0LLpbDpQaCNyywpEOkQshCvC8l2AcTzQZvB7Av3cD+wI8dDx7mjQOQ5aO5lmVBIKIKBDkEOxI62ELcQ+Qs8r+142tlO3B/mchdwcfXcUXCDRouOvgOgsB3Acsoos4MKvBxc0Q9xurfDawP7O/eC25ooyzSJaXHfC2E0yyup1lcY+AkgM6riCNvrKthkE5l7k0YDwrYHgZHwo3VdlPqFXcXBVgN4b6Am75JiNIC96XVDqzgOA5e9wxDtV4SAdIJWPbhqgJRD2snBo+BcId4hqsQrJhyTeDvF4IMwrrlmsDLIcDh5xwW1AnRBSGLsktJbZava64QhCBGR9huYH8g2mHtt4WzWQ53wjDgoQaRZnAu4UEB5zq+F6fORT5310p9cH/Jpiekky3y8PAI0drpwcqA44aHB7jQ2O3sB/zGUU/YcJxYHz+ZoGsCfN5x3iA550n7NQEPLCX+fZl9xfcPy715ExEGsYS71wSc21l+MMB57Bz3/q8J+I4MjWsCP3z0ek1YesHOB300lqPx5FoaiYw4X8YyJNSNbWTjrb5NiqIsLcayHiTYIQJhYYa4hUCHm0jQBdgvD64nWN4tlrsNRCvEsHGDWSog/GxrZ9C+2GA9HAdY/u39wHIclzCgsy/8tadmzktsdb7iSV14KIGYxzyugXiIAngAwjHghSKcuz0YoC0IAxl2nzqBBwNEqEE9aEuYBxIMvOQ3CmqvIDIMjoE9aircY2C9D4MR9l6LNqLODGZd5xuz57Cic20j5KKMmDrKx2F1C3bsB0R2J9FrRFGQYIcIzKTHxbUAbgoYlTXonPPLg1DD8m6x3G0yqTWUZqGF7S8liFhiPzyG/f1gPfiYw/Jv7weWQ1iHAQ+RcT5+CFVZKL3DS+BW5PQRSEgEGOeaYCK8wE0GAh6nI4RzNxFu2tjaM6Z3cF7gYQn14HsPI/5n56qB51FY8LYG10b7nMV5V+OHhzBA2ENWew0EcJExD/b9INcEz3GVa0Ks92vCECqDuT6M/2g30MFjPD5BqRh2Do1c/pSOZsRVJuyPZ1CuvyJB//7299Bj/5eN9Jf/aiP9vz7+HlmmKJciEOAQN34dQm1wHYFlGZ1BveIZYhN5SLAWe7F/0YgvXq5WaA7WIU+eX+IfPjUGHfIk0DLATy+J/7QtC0g2uBbBAg7xbNx8/MoEtW2ERXtuFB0hh+RhCJZw8x2I/35xWoS6AS5J4gLAoh7fl2ONd/DWLcu5jRDOsNL55lufXsxyxFcf5f2EMIrzw9wsXCB4eVCqchn4z/vldUvATOM7h9sJ9sPkQXzjPmbmg8AoqUnXlcZg3jYMYkmDRc/vjYAdcQaWtH59ypcbWBhhpURYSLgV+N1XRYjxOQYBHgTOe9QFi68dlx9AuIp7DCccsyDg7oJIKGEtv2hzkFh3BFQ/9FvOaRNCO0I8B7n5BLUNot3pFDrUGHMBvvLA8d+fFqFuQN8AbDfGAhZiFD71QWBdRLbp9EYlDHgrg4cluA2hrjARW2b5mmC3u1/kmsDHyD5nzTWhGzjqVUT7cv3iTTL3oW7HxC7jTTi/4cbkXS79KritmK7w+Y23TN51jDaXewinyJtvvrkIywiixPzJ2Q28Sn/gBwKxvtRPtWHBiTFVOxfqBOmX91+ZpP/lzl+iV8/X6MTbjm/UprUJunZNnP6nb/+cfvzmUlpNsvTH96yj9734Ot39vH/HnkuHGN27Yz19dvosfewp+HZdTvu+OkGUmEXWQ7jgGdeQIBAJBRZkuHDYwMUFD/JwdzHzEERmHtPrr7iarrtqI63NTlAmkaEsp9gqFTSKoijK0jEvo+FiXIoilVnDnZ95lWaKP5UHDPP8goc1PCRCkNu42QIEbanqRJpx5lH3nMSh940YYypnnCguiEYz7i5xyuPBFfXZDwGgrS7302CqhljHCMrOuAVOHdZmpQ1FftjCQ76fFX/o3AckSgxcInEvXhLBjoasia+9YGLdMCei/e2WL2IpeeA3f4neLM3Snz7zprvE4Qtbr6KrsiP0f/+rn7tL/HBFaY7oZz5CdOMt6+ngTSxS8udo1+FzdGpQ0bphHT25vugK4OWmuW9tNPYniMtPsDe+b6FOX/vW6/SwE9UtMK+F8Ql69K4Jeq/MFOgrj5ylJ2Sa6I6PXkdfsqO0njHHNhzXlf43yk3kQrlxwLpbqZQJgyahU6kR47AAwUI/lh0lRDLBRQfXCvhn/9IVv0S33fgR2vyeG1WcK4qiKA3mF+r09tRL9LM3nyWM7DpTeodG0wjl22rptpUe3HEQd97E4ocMdAbvgiuWY+G2sXUi4sDjoQBvIwx4M4yHhoSPW1hbXe6nAVXj/lfGGA+WWAe2PDWCHX2+/MYQ8Ar29nd3fTAaG1/SjqX9phFuA9qyXNxwRYL+/IVz7lyTR188R7+8NpwvGnjv1Vna6E47ZOnuhkBbGu5Y79+zf3mo08NPv067WFjuevoc/YyXPGPNB4v1yxAW2n+UO0cfe+QVSbteJPrsbRPOORGU1wI/5PDynz7trPexp4m+tMOsF6P1YxD6bh5Sjw9uw3xxCOtzXSw5VnN0eIT/tQEXPERPgRvML976hczDveO3PrSd/u0du+mDV9+kYl1RFEVpYXgoRldN3EQfuuH/Shve/euUy15JiKzSyRgLsY2O9E2xjj4YJRa6cJHpLnPhP46oPgaUxwOACRHZD3AdQwd6r3XeBnmZ5CghghjeBnRjYMGeGclSLBKTHVwNCW1JR5dOrB7Y9l5JIB0bordK7Qf1zeIsRYedL8Ve34+fnSnQz3ITdLf9MmNDhrZSgZ454877AYv5PdfRH0s5WKCvo0dvaYodWGWfvGcd3cFi7Y6Prnesq1c7ZZ78qHM8Nm6YoEd38DyWIe1YR/c2nm+cOv/4Fv5srLPe3Z7LuJ3H2/+oJSSn6nQKKe/Os4iXeWM1Dtx2F1r23dm/vupZLUydo7stAX3qdZwTMZLdC8qDRd0cB/4uPkLn6NHTyGBOn6Ov8Xf40caxqNHrflb5kCDyCP+cuibEyUYHI/gvj0nnz6hYG5CQNzQMIV/jNYYol8rRv976r+g3bvxn/Hu5sG/jFEVRlNUNfOF/6cpfow9M/isazVwlbiuwhpt7zMICC/NaWSKtQP/ZUVcQTQci3NyrUMBM2wl1LC5CvyHkuLMM4yegE6u9rNeE8nj7jIGf8oXzfD9suvggFC9CyMKIJfdQfqiAaPfW4WUgwR7jp6CkxFZHzasnpYZTFOW2LQXwW0cybHlvhhIjzcMWH4nIMoN3fS/vpSL9BQvzrZYFXKzhZ4r0N+58GxBqt2XFleaPjEDrSJ2eeIHFG4TzmbOOldsVgKfydfq+WfatsyLwvNbbrTdNEPF2JD8fk3ljtb33tnXyYPEVt/xPxyboYMOqG0yYbfvi3XcW/ngYgZsI6voKH7enBhCmqwIW5O/l4+P71XbKw/JpfiByZ/G9vz4do/eJW1KcP7P0JfNQww9ey/FQA8s5BgvCiJBjbghHm8iQO+YC/9u47lr6/dt/j94zvs7NVRRFUZTuZFPr6Jbr/zWNpt8tHWwRwjFfeEsSxC5GuYX/OcKGmtCh3o6sUId+IOylHaUGlnq4n3g7SvcKrOcYwwAx4xEVxvSvRKQstBmRYXBvRDQmGL0Q6rQbAwn21EjGuSGvwpTmti0H93/83XTkcxsbFt6jn5uUZb3wxOssoK/O0B0yl6Vfv7pOX3uhk8tClv74LkdEh/bnnmqGjhIrtztNUwV6+PmCa/ku0FNnuD5jvTWcOcfC2CefhTJ81J958Sw94Zb/oxe5zSwMm1bdAMJsu41O+x6jj9yMV1/8cII6nYUXKfwgdFOcvubrOuTJg/X9kVdCPLTxd2NcYZCertFn78Lbl6UBvuoY/h8D1SCsIi5ufAVyc5sgTCPWffeaq+j/9ol7KdthABZFURRFCSIRG6VfufFumsi9TwQvohhB5ELvGSCSg1xQ/EDEIhO1CXXBlQWdVJcSiH8ZBRv11zFwXFLaGecHBXQ2TcRTodrdt2CPDyVomP8ZgbzaEtoWH2p34l8VnC7SMxDqUKtwh8mzgO1gJX7vTRO01Z0elI0b1tGjO5ruJM2OjU1+lg+Kd1unnzZcXph8nX7GotKx6gYTZttefPf99Fna9TQeeNbRwbs8bjkXHU5nW3Sube9UGpTXI3CXybvn2yDw7yo/k5ff15qxcelgGnSRgb86er//iw//jkR+URRFUZR+iUUzdMPV/1zCWUJUJ2IZFthwL5nqK0Ig7mXA3McQahSW715FfzcQkAWW/HzhHUongu+bQfQn2HljyaGk3MBXc0oOpXwtf72AUI3H3wofrjHc+gX6G3GLmaB7b8qKX3snK/HP4EbyYp3F67sD3Ro25LoIYBbMB2/L0k/P/FPD8op6e8MjzuGW4RXxfvS57U77fopFOyzNEO7vvXqC/sjy5b94MILcz2IelOeCh6WxmPWw4nQ07fxdhPieujBdnJEIMBIFJuTv6lMfupN+aU1vb6AURVEUxY+xzC+xpPh1mcbbXYR6hNsJBjiCKPaDFWHj0yQwOz9Lw651vSydRJNcZ3vMdbucKetd1ikJfL8czUzQWPYKsbb7reeXvPQl2GP8DwFmbIv2akxoI9o6CHuO/oz+4AjinhDV5vwOoYPJs9cPwnGLgZtJnb7/eoB4zdfo1PP/JP7kTZ/vmogvRJu5Y5xF24YJ+pwdws8wlnHybaHP5Ta6Zf6ol8g0YqWFj/s6t84s/TE/bPAjY3gf8l637bfvvN17N2D7XF4s/MTHotcHjwtNn2Ld7nQ6VaDvk9V5GS5L/CAo3wWOsbPUwc7rE3SOQWgp+K2bQZBgbQ8akh4uMLdu/FV3TlEURVEG5z1rf0Ws7QKLYVisIdoR9zz0yKacMGgT/NdlBFrWjIjqEobOSrAdsy7aiNRLWS/9CfYIQrdhs6s/RZcwNvz/9t/foqlK+2hhWIa8nhC3GCaU4EXYxHMSXeagRHzh+RedaDNfusuJ2f0XcBNpYNbPOvk3cxkI7jN12nobz/OyP1pP9MctZbrBdR5+nb42HXfqvGsdvY/O0VfChG0caNuefc/F6CNuPQfh337mbDNSysUCBHSOH35uM51CnSRCPCivBXwfZ4nMerfZfvBZ+iOr7JO3EX2layz8YDAMfSaZFr9108EUoRzxYNyJ37hhq7jFKIqiKMpSgegx77tyizvXBJ085+ZmZcTVMDiDMy1IWEf4xK92eh44Cb1Zx4Zy8qRwMbDI/6bn8/KpKEo4Prj455ThBz6BRXm+ME250ZxY2jE0PoR4Ip6QBLyXA+R/YfsfUNQzMp2iKIqiDMr8wiz93Y//E9+PzlE65fjqipmW71eIIpNKNHWqUX+2CsSQ/xjJFMA6772J2bYouxzqL9eK8ol/0MSJREb6axk6lQV2HvDm24ycH3DgJAxOBKSxvaars/SN373CSf88SVf7rSNpmP7VP3fX4/TvrvZbJ1zC0UAHVEVRwoOLiEnz/DuCXx+mYzGMyBaj0ewYxVmsYxmQn5qVrp54n4r1leDUAdoa2UoHBnl9cjFyUe73Udod2c1/ewXlnNfpka0HBnpTtno5RQe2rubvc7W37/IDcdaz6ffI6Ka4D5kE4Z1MjFIFotos83wiYbAlxHTHSKQoY5b7JYDPeRb5M6UpikdTTvjIxJh0fC2WpiWeuvc+iISCLfNYZM9b097kZUhEbQ+MLPJN2Ftr2GQzFqetOZ91kHIx+rWWkM4+6/SQovxPUZT+cPzu+Lfkgid9WCcMzZwm1181QOweEWOuQHHT1p7ulLi5tpaP9Cruju6m3b0rq2CWvE4WcpOHaOfJZ2jPAIf74mMF93s5zoMeOXXgfjq46wjfyvhX+Myeizgq1hLSdo1QMX05ksus93VlMQYmuLsAc49quVfxfSw3+i4+d7rbrU25YmWaHxJyUr8B90NY6DESqx/e+yNkqY033w9jgO7Zwj5oZ1PwizzC74zQp2+K+67z6zel6T00x+vJ6rKHfuuFTRhlUVGU/sANEb8jQzwep0otuGPPRGaNO9UjLJAik3tp85HW3/AzfSizXXYdRzbT3snw1s2jhw+6U0vH0te5jR5avNzEOli5/V6O86BXTp44Rrt2bHPnFOcagQc26/d9cicdmoxc8IcrZWVJp95FC64o9wIhD9/0TsCFxXZj6cb8wryEZ/QT+LhH8h93bvnoWck2PYL6SS5nqvT3+Lw6Tre1rROnLYh4kq/S303zp+Bdp7c07LZaUZT+SCaSVCwV+ee0SNGRqESLwY2yE9lEPx14TtGB+w+K0H6ooz6x3AN6sapt20G73EkHjxW+4WrgLN/OOu3gdjfPVwV0bsfR3Wa5yeunTvNWAcv4QcNYFBvtDDoOYY4R2sT1Qvw01vU+0HQ6RgDb8NSNNra0z6/dhm7b732/24+7m9GxjF8bTH7Qd9apvm777KXzvjh424B1/Ldx6sBWtx4nNU+vTsfZ3rZX6Pq3C8fXXk+Od+sCa5+dtje22XIsQhwnN6/9zRrXK9cIzwPbxj30zJFddPB+Uxe24TmmqNPaVudj1mv7um+r87mpDEIiOioDHfkBMR50j+oVRJIJiiLD36w7tXz0LtgX3eHG+0pOHe/JzdIzZzCVoFvXe9ZZnyAEgvvF6xX6KVZhWvL7SKLbFUXpCUSGQehGhHDEiKWwqp/Ln5d53HjwKb8vBn9NqtSqNJYaxeLeOPU4HTq2izobEyECthMZy7lY1SA+uiNuBVs20aQzx/VM0qGdJxvXiJM7D9Gk3GA30p5nFonv/U0LfdvTQ0A7WLRsJ9d9QRKERfg6j+9vtqn5VuEgbb+b6FEsF5eIoOPQyzHieg/vaGzv5P7jtL0hMoKOUVi87fYStH3Qw377HndkdDse3jYQ7b076DwIUV/gPhvCfE/eNph9at/Gxj3POPUgQbhu77yPR3bxfOR+2mQs1Fi/IXQ7t2ty0xY6eNjUepQOH99Fu44fbmzn1CvHacvOT7rfU7dzJ+g4sQB2Lehtb9aCrhF4KD92iB4PeYJ2PWb9tM+PjuemMiiJeLbl3gPsab5R0QIfc9BY5oO3rDcB+K8bf3nQsg62wdsy88BvutN8WHoW7GhX88TrMZnm8cf3nivQL3jywyzQ7XVu43m+5dOh52atvWnm95Oa9SiKEoa5uTkqFAuUy45JCEektWvW0sQ4Bn8Yk4gxGOkUoh1RY6os0kuVkgj8YrlIMXcwiiUFN2vaT/eZm/XGT9LOLQepoSE8NCyjnCZP7GveeN2b/j7rrrlxz77wN/ugdkxuoi0H7+/dgubTpiZbaP+jlmgI2n5Px4jrbazoOQaDHiPB0+42ArYv9LDfnY57iONhu5ts/ORO2nLsBJ1059voWl+3fXbp6Xvy0mUbbW+TWvcRwpt27WuKRhG67j4HtEuOzfFXHNF99DAd3LyDdmw2bT5Fjx8i2vlJrhR1dD13Ou0DxD4eJlZY1LYdsyVsX7/XBKUr6HhqY0s9TGOQovn5zmOFhAV1wW99wR1N1Ssp63N1CcZg8LbDxjvfCz0LdlbAAyS3Dkycr9Cz8FFngf4bJj+XoZ3rednrFfoe5g2N8gMkRVFCAyt5NpOlIovwTiDUFIR7OpmWjjfxWFxE/LLFXj95go4d20uTrgiPRCZp7zE3z4eGZRRpx2Fe330VjXoa1nbDJG3acoxOdFRqFkHtwKv5xX10YtLJC91Z1rdNHQjafo/HqBXrGAx6jPqiS/39HPeux2MLbQp10F0GOr4WS1WPS6t7x3Zq9bzvYR8DjzGLd5bzEN3w7cdDwLYduxyru4j0zXQdRCzq6PPcOXT3YMehF4KPmT99ta/fa4ISChzTTgxFhsX3PCzVepkKZQwI2B7HHUao+mzNnWsFAzZhxNXlpg8LO0LXWDfCnpJbCQv2xcU6/e1pPPkkacsGJ3/9hiS9h5f84LWys76syzTK95c6dUpQFMWfxYUFSiVSEg0G1vYgINYxiBJ83GFdh9Dvi25WRliqtuynk57fd2d/d4tt99F+IxhQT5sV9SSdOBZS2HRtBzpFYtlJ2nloMlxHONTpTnYlaPs9HSOvgLKOQT/HCELNnQxHwPb96Oe493Q8QrBU9S1lu47upsm9m+lIo54jbRb20AS2ayNdtxnf2VE6fNB1S4Fl+uBhOorvftcO/gbcOvr6fR2jzftstyQfgq4RsPpv2Ukw8vtin599HbMQ7TO0/Rb6uCYooQiK8sJHXP6FAecBhHcmOSbCHfM2sLBD/HuXG8JuZxB6FuwL/M85wftIZof4A/OvsTD/Oc9++INZ2rA4Qh/ZgCeUMj3zqrN+c3W3fL+J26woSnjMRRAW85nSDH6wMu8Fg64ZNxgIdTMCan9spD374EvaIdqDWPj20gP93OzEAugKBvemf79l6XJ83Ftv9sdf6XBLDt0OCBx30qVbnXeHsb4Fbb/HY9T0SfYcg67HyLGYHmr4OJySzoC90nH7fvRz3Hs8Hn60fGdLUJ+wVPUYLIu2HEd3ume6tEss6vffT8eNOOe/O3Ydp8OHjzfdblBHiN9XO87vE77lRzbvpUn/i4B7jfDp5Ln9IO3aZ9xYQpyfPR+zTu3r5bfQfk1QBiMS0NlzfmGut0gwfD9DGdzv/Cz3qXiGSlW+H3qIx5JUqXZ+Gx0WGMigWTvRu4VdVHS/yeDOny87bjG5FH3k2iTdisGqTpfpqU7r95kWIvhUFCU0fK1yrhsRyiRZtBcxspuzDGl2bo7O56d4eYEyLOpHM2Py+tHk9822h9wOYOZVtZOceyM64R0hasnzdtRr0lKHhIo0fqeox7F0mfzJQzvppNW5bNt9MKO5+W3CIaAdR+1oHBHpbGaspmHq3GzyOXV+dR50HHo5Rlto/ya4CjnricWxcQy6HSPOf9Tan8gkndjXq2U3aPt+BOxbx+Pey/Fop/07G6y+JktVD4O3RyyyjRvL3bSP9od+XeOlS7vEen6MNrf4xPNvjfVp03qOOoJ/X93Y9tBJ2n98u8/vhME1QjrDWm10O4E231BwG4LOzwGPWWv7umwr4JqgDM7CAgyzzXuTfQ+q1+s0PBzzzfcm3OvSyVGqz9b5M+e7zvBwlD8jVK1XW5bj3gcLfLE8I51T7TzIUHveXdSWyrUypxJNl6a4/oos8xJ54403FqHqf/SjH9GfnN3gLu5MbG6ERhb6tKBdu5Ye+3iKRfnb9KknyrLoml95N/3HDxrfn1n6r1//J3r0vDP30Tuupv+Jm/R3f32G7n/VWdYPc0PzVB8Jfq2vKEqTG8oH6Yqr1rpzfDGplMU1JhqNUq1ekxtPJpURP3Y//p+/8+/cKWV1gs5zCINxoSJWXOjtK5cMsK6v1EBayqrjsWf2ycBFwBa5EPKF8hSNpp0xQbwC2LZkmyl7HZMNN5gKi2mAsI7wVZ8uTlE6kaWREUe7mnLQ0nCnkYgy/C8WTTTWMdjbsClVizI6OPznHcM40ZrqR+gDH/iAuJ1KkqU9MD887+xJv8ngzr/2akncYoSpEv3tuc7r9pvmh9QlRlF6IcbC3CaVTFE6nRZ3FxM1ppNYVxRFWTEkBjsGRtMOnZcjsGzD99wGYhydR9PJliHze2ZubpZKlRlKJdJcV1a2gzSaHmeBXWjrHwlRnUpkKJMclU+41xRKeRby3Tu+puJpqs/VpE645vi5lvYu2COuX3g/ya2DZ5rLzk3R//mas/jnr5XoVTuvWcBa1lta4LIq2BWlN3Dh8YILSCwWE+u6oijKqgFuMny/72dEZOXiJhnPyIimZRbQ5rNUmRaB3X9/KodyrUjZVI7vec79MOmOnuq8YR4N9FvHOolYktcbo2Kl4C7tjNTJQh8WfAxOiLJeenaJAdH6CA3PXxw37fnhBZqNhQ/roygrQ4zu3fFuoqdfp4en3EWriJvmH6XseB+DH7moS4yiKIqy3Hzv+T+VT0QwnFuYF4u7M8qpLG7gmZUHPIOZstdBNqzjmXSruw1CO87Nz7GgTrEQn2FBP+ZTtzvhUq4WKR5NEOLCt63rfhqgxyv1MqUTGYpPfWAwlxgAEexsZvWn+WF89scdH72OnrxnPd077i6wGZ+gR+/h/I/2GcKuI1n6407bvJjZsI7+ONzz4PJwobZvzhMrPXpLv4MKrdy5USqVZFCkmeKMjHiKjjh4TScXOZM6gPUURVEUZaWAFRzW6V6iwnTD720y/NixrZnSlK8V3A+4xIR9Mw23mPhI3J1rpa89W2DBPlB4xxVKiA6DtvZPnZ45Q/SR9e0Ca+N6Fur59uD6g1OgP3pkdVpdB+EOHK8LyAXZPj8kPHnXBP306VfoY480093P93verNy5kclkxE89k87IQEjocFqpVkTAT5s0My0hHe301rm3aGr6Ejt5FUVRlMsOdBiFgPYCoT6WWdMyumknRIsuLojlPwzwm4clvlavukua9P0oMh+1LG2rNM2NDGrp4y8jXyC6aYLucJc4ZOnum2r0Fy96v0hYQI0l1baEYvk6usNYW3dMuOGt7PWN5dVdV/Jt4ELByyECG2W862GdZn3N7QAf6yza09IWvzYCp16vhXrjLeut9Tpt21n+pauJtt7m5slbiTDHpJM1uZeynbbfzHPW59Syz6ir3+MFuO6bsvQMi/U/Ou0u8mO9/X12O2fcZe4aKwGsFbFoTDqdQrybDqeSRsdkpFM7rV2zlpKJcFYHRVEURVmtxKNJqtbK4gLTL6VKQSLK9AKs8bXZijvXpH/BPuJYsL1W7dWS5oe4fUsxQnr+HP3FmSz9ui1WN2Ro65kiPeHOOkD8rSMy1tRvFegjd9niKktfuo3oj5F3+Bydctd/34uv92B55TrWFxvr73oxTl9qCEXUt54+cqZZ3y5u98E2IRmEt42GOj38YoG28oNLs64YffTqGD3zotmXTtvmsodfoa+cIRGvkv+U6YDhf0w6H0ObsGU7bX85jxcznqWP5Ar0N0Findvw2avrtMts/0Wiz95mbz+g/mWGf0U9/kMZhi80qVQaU4qiKIqyrLDc803ePNyg7PkwiW9olE3mxAe9VC40YqwD77otCfmcZhG9JsJC2/VdR8IKfprVJFjj4ceOQZq8DOTsMxfz3+BqSPPctqXiiddtscpC76Y4fe0FT69fCDQ6R48agTZVoO/nbaFfp689bYkuV9D9RU/uEVyHtd1Tz5+jZ3JZ+iissj71teSHwtNGm9PF1rpsQdr3tn2OSeAxtBmkLLPcxyskzgOPwyk+z36Wi1GzyYPXr6xGjtLufgfJCQ3inHtGg7zksI/j5bC/q4WVOH+V0CAO/dYDep/wwDKwhb4VYYRFeypHsVhCrOXwXS+UZsRlBb7p0JudQBSZlGtdn5+fk/jt3SLGIBY7QkfCLcbLQIJ9ketbEGG8utJ8jP8uZYhoW6yKMCzQU143XRZa781N0EHLveGzTudif7B+vk6BBtiu1Oin+Ri9D9vxrc/KHxgW52diDX9+8eFnsSlvGZZq270eQ5slOf5LebzCUOftuZMKAyGw3KLr4hUbR3djpMQOxwc3bb6x+I4M2Q9Hd7ujyy43ENrNUSBb0rKLEL9t93j+DXKcAsuuxG/BsJLbUnpHv5/VADq0IiIMYrAjxjquFxgkCXHaC+VpibnuBYoU6wEMiBRn0d/NvSYeS8pATX4PAgMJdjAfj9DCsL+V+0IktGXBv4PtABToUbgr3JylO26eIDpTaL+RsPj7Wf5cw73BpI7+y1jfnQyPV0zGed4VfaiPRWirQdnK9wOi1Z0MwxMvnHP9+eHDT/T9113rdD/b9qPXY2jTz/FfzuPVzcJ/KcO/Q2U52EK7dhEderz9zn3q8UOc3fd49G0cPXzQnVpuMIy9uX5jOPdddMRcz3sYyn4Qdh0x2+ckA/CEf6Ab5DgFl91GDy2u1MidK7ktpXf0++kGfrtFFs1IiMHuHdBoqUGIRUSLgfUccdYRPx0uM35iHG0DEOI8w+sG+7ND4CPQw9TMO+6SJgMLdjCfjNBihBuFhl3AhDbMJ5dkl9oQd4Wr19GXru7gxgKBRhN0d1iB5q7/Rz2G+NtqRTvZeMsEbc271n5XIH7Oqq8l37UeNyPewLWnt44QDRH60YxVb3N55207vI8FbyC9HkObEGVbtr/sx8v1+7+tvbPukuB2RpW6O02vMAj9iAgx+cK0u2RQYFnqZvmElZQF1tHd7npIEFx22YhlyZykTbs28V+HUwe2WuXs9TrVa+iWD8K0H4Rd7xjRpp1Eex9o284DezfTvn2b3XkfXAu8MxKkj8Wu8VrdsTpvZy15cLvbJveg9HasvPvh1NvI78F63nm7AbTsbw9s28GPDDad2t35OLXi992GKYty9vkU7hxx3sJ41wv6vkHrtvzr6Ey478fvHPH+XoLOkZD74H7vrWWder3tknZ7vs/+th3umHmPkyRpVG/fjzPfrGP34+7iBna+Xa9bj32M3Gn/7+ziAfuaYtEcZRGdiGdEuMsDOOeZBDrNAzvPTsD+9E4jYfuI146BluzlyUSaCpUZ8X3nlSgeTzVisZsE7HmkWRb+o9k1PNXK0qhbbsh8ekgEc8NSscJpgfdkIT3MbXHbtNRMofMpf7Z1NjWgc+NZIhOJRFJQRA9n/Z/etL6xfvf43HX6Wj7TWP/gTTX6SqMzIup7nb5/dbO+g/xwscvOfxoWcpO/nt734ll6RvLC4orQq7Mtvtfdt22s825+x9j1zjEJfwxtgsu2b79bmzl/0ON1+ix97GlHtJttIF0IMd0rpXLnEdzweyuWizQ72xwO2oR9HHejxQwObqDbiYz18+ROOtTR8nmQth/e0bgWHNnF85H7adNJt+yRXXTwfnPz20h7HmpabjfueaZRTtbbbm+jtd6T+4/T9pYbeVB+2Pb3sp/MdXtoH+/fYXuFo4fp4K4dtM2dbYdv1JOHaCcfj+4jQToWbz4UTcvzQ07NvR0rfq642z4Wk3Ro58lm/s5DNNlyLDsTvF0/etnfVk4duJ8ObjEPdEHt7nycmnT6bsOUtQl5jrAY3k5HnHUk9WGV7aOO8N9Pt99L/+eIA9d/N9GjKN/ydoaP9z77GgBO0eOHjtGufVhvwG2HOWYsjO/mh+rG2yN8+Vv208nA790P51w4vr/Z1h0n9uJR3qXbudLpGF38wD0FPuWVWknCMc4vtkYJNOLYYM9782xMXtD6mOcj6sxYwI1GrO/Vggy4BPzKeoGor88uYVjHNoZYtGeHJTKLOZFWKmGbCxl+YFhi4/oTT7W6VGC+GeGEgSCz5yVOtu2ScdYV953iZ7eu70SJwTJTzofXeZtt9RsgQpv1tUUW4YeOuxtlsW+8rcY6ndroAfssZd35Bj1sW45ZuGPSvo+gj7Jt2wcrd7zs5Bw754GhpbxsL+icwTI3322b1NVpegCCBj9CvHWEeoRAx6BKAAJ+NDMqD+9LwqnH6RDtp/vM/WzjJ2nnFo9Qtdi1o3njm9y0hRfsa940YTU9doJOurMdabOubqH9jQZAmOzjeg5R0yMlID9s+3vcT7Bthy0++AZ9//GWdrSCGzgeXpb4lXrbsWr9DjZ+cidtMccc+3hsF+2zGtB+LEPis91Wet/fhpWb0+SJfU0hM2i7+/hufQlbz+Qm2nLwfl/rbmgGrSPw++nyexn4HOH6H+0gQuUaYNXlbk9O2UG3vRTHPSw+bd12337ec5eu54rnGG3cQ8+whur5uWEVsshiHW4nyXha7l9DkaXsyNgZuME4UWRmfMM34roC3/dqvT1MYycwaqvfPXhpJS43bDEzTIsJVOs8cyx3wrawzSUTCoqisPj2fwuCB+ToSFQE+2h2lOr1uljX4dOHC9OScfIEHTu2lya5TkdMTdLephnJwxbaZHxceqT1NfV2CvZInqRNW47RiY7K38oP2/6e9tPFFh9yg95Jn/RVKUSH7g5RX0iCj1XAd4B9bFitDd2OZZNevqN+9rfFh33HYd6G60YwYLv7+m79CFuPiK99dGLSWa9ndyDQRx29/YZsPL+XQY51V7bRjl3HGv0/pM/H/vuct1KDbjvMMeN1HsUbBXOctvNDdqeHiyB822qxVOfcRUiSxXK5UhDx7IxGuvyaEK436EyaiKcom851HBypNlul4ZADJ4HhoRHfupbYJg1YtCeHaSEzQgvDPG0uhEucUDe2gW1hm4qiLB2L+B3zM7FfWljAb9CZzqZHaWo6Lxcj+/c5MLBa4ZWxVSfSklqCju6mSfs1tXR6tPHesE/SiWO2MA3ID9v+vvZzG90Hl5MHjtLRB/YS7fxkhxv/Mdq8D64HtntKB3Cjdyd96XqsAsA+tr3h8B7LDvS03R72txPb7qP9RqgN0m6wVOdwT/WggyLyT9LOQ5OdfZMDv++QdYAev5/A30uvx7rbOesBlmin/wf6fOBn4/5qlmTb3Y/ZyRPHrIfDLm+AOu2bb1stluqcu4jA3QYJAj2dGpMUjSZa8swdqdM88C5rJD5+uOdhhiclARiqcJ9MxFIspIcaeZLPf8yxL5ZnxB0Gln/MA3yYZNdrEursONKpqWRJiXLVo1FaTI84etrboj4T3F4WWaijbtnGZYOPC4WirBC4RlRrVUl4BYh5DO4wxBdJWNfNOsZFZmDwKpf2EmvS5cWyVon/sjttOGj5HTj+za3W7I75Ydvf536Ky8nB7bT9YOvr8VYcwQEf4yOb99JkQ0U41sNmtBm41bTbRY+/4pG8XY5VR9zX8vdblke/Y9mR0NvttL89IC4HrlAL2e6242QI8d12LGvT1zmyka5r9EEO9323Y9cRQA/nReDvJfBY97sPFu42Du8+3PodLum2Ox2zU/TK8U4PAD3U79NWPLQ3xH2v58ol0ukUsEJsoZd5M922Dt/TpornaLp4nuatyDO8mNddlJHAZV7+NjHz4rfOxxd+7Mbij7I23rKGiKnbKrD8ijc+TIvjcRbZLN5j/BTCi9CAnhLKoGw2RpSLE8XCv1pQFGUw8BtE9JcI/xsedn57M4UZmp2b5QvZjMxDyJ+fPi9XH1geBgcd844QWf7F7VElBgTWVL65mdfHd9M+2t8SGXEL7d8EFwknXyyJLR21gvLDtr/P/dyIzqf8GdjZtMm2h07S/uPb3agUvM1HYW2cdLc3SSf2tVpGHWukm48yXY9VENhHx/Jo9nHy0E46GabTW5/bbd3fYGwf9sjkXtp8xFg/u7e77Ti1EPzdBpe1CXmOHLUjsESkI6RjWe3+fTfoWEcHevp+uv1ego51D/vQEa4DnU8PHnQ7mxoG3HaoY7aR+Bmbq2iu1/wOe9k3tPUIbW6sG6HDO+x1nfxlvW5eZkCU4zh6lTXcVuAOEwRis8ejvccZh1EMHWe9RN54441FOLf/+Mc/pj85u0LhK+rznBZocZ6fWJDkwcUcDT4weIwY5oPEiVioq0BXlJXlA/OPUibn+LGjcylcXmKxZhQjLEPChSybzvLFRXqb00ypQLV6jR66939x1+wBWHsmT9C+xYdCidDl5RQd2IpwCp1eXXfLV5RBQAi+w7RjVfwWloLL+/cCP/+76dGWqEVYJp2cL2V/lRXgyef+VD6Ngmx8WgJ7dq5GdRbXiNoSHXH822GIMnjLApM9v8B6lacjlk+5yYMFHaI96Q6kZHDMzCxtFxfEJQadTk2+3S7gmRWwTYyK+kuLH6f3v//9YijDm+zlt7D7AQGeiVJkjA/cmiRFrkBKuYmnsYzzsI6KdUW5sHgvbiAec6wGCOFoQkCWqmUR7/aFKxQmLrBYNy8VgaKsDuyY1HZSq6OycsB/ffN19pOKE1ZyS0cneWWpqFSLEnEFEWQW+D6GkUnL1YKEgazVKxI+cd5nwCMDOn926kyKzq2xaEI6n/rVAet8KpGmIm/Tew8NAgayuOuHb3NhBLuiKBcNCRbnpUqpGWYKFz0W6Ub8ZNIZd7m8H5NR2npCoiw47m9qbFKWFtMZ0JtW64MhLNH4XW3vEltfuZjY9pDXTcWJ+97rOAFKO5DBRgp7JTFcSyC2ZcCioRER7eiUisGVYGkfHomK5Xx2vk4FFt1+sc+7AdcVjHZaYfFf4ocD0x6ThoejlEpmaQYRZdD/y5Pvlyq1CrerXZ5fGJcYRVFWNbZLDIDImSk6VgLccAB82CdyE1QoFiidTovvOizv0zPT9L/+m6/IOoqiKIqyXPy16xIDRPDyPWqOBTgGF8VnksU537Qa+QasZ+MI5ZIIe1jOTbZ88B97bbuomcQnwjfC0o4RTr3IPbScp2wy17iHArteQ75wTh4Erqz/s1XgEqMoykUFLjBj2TFncCSXCP9DVJjIUEREO+KzlytlEfKKoiiKstLA5QUs8j8MVoR7F8RypVakAgtmuK8UK/7WdIRehJtMEPAvR6x3rOcV/XBjwTKMuOoF7YgORx2f+C6MZsbb6gYq2BVFCQUuINOFafFTT6fSlIgnqFqt0uzsrIj38/nzfBGsi1+7oiiKoqwkEOGwjsPdBeJ5LDMhHT8L5SkaGY5RNpWjdHKU0olRuZ9BwHuFMSzZKOMH1kUnUgyUNDQ0Im40XgGO7cPS7gVl0Uk1zABKuJ92jMOuKIriBZcxOxXKRcpmRsW3bnh4hGLxOI1EozQ0PEzZ7CglkylKJdM0jIgxiqIoirLMQG8jwV+9PjvLYh1WbicvwhK3UJoWNxQIdiyfX1igUqXAwjpJiVhGBLipAykSGab5+YXGPG5++ABzC3MUjcbEWo7IaJnUKJVrRarP1Xgd59/8IqLKNAcexKBLCHucL5ynVAJupp0HJTQJ68RjKUy0oIJdUZRQwEJg4rBjeio/JdZ2WNrldR+Ld1yYFEVRFGWlgHtKrVZhQewGQGAgfOfmZyk2EmcZHZFoMQAWbvipAwmQwPcu24UF9zbczwyin91Pb+x1rIdBkfCwAOGPaDCwjKNzK4BP/HRpSoT8WGYNP0w0QyN3w8+tRgW7oiihwMUJLi8Q5W+de0teHWKZCfGI13iIJuOaCBRFURRlWYHPOkYFRSQWW2gDuKAg7CKW224uTohHZz7B0zWMSOoCoWxGMPWCeuBuA1cYjPRtSMZTlObtpxNZGk07nUortbKsk2Ohjm142xYE2uYXSrIlSsytt97qLlYU5XLm8w/9IY2uyYkYTydTuFKJEC9XKyLUMWgSLmpjo2NuCWe0U0SKgU/ff7pHo8QoiqIoy8u3//ufNPzCbVMR7EblSkH8zc2gR4jDDuGMexSs3xDYmIaFHoMfAfi1w9fd2J1MnXbdCKxQ5fJwr8FyuIjCum9EOcrOlFAP3x+9Qp3z7Lr8gJUeda2p/GprlBiY/xVFUWzisQStya2RC8W5/HknBjtfQFIs3hENBv57eM1nW9Mh4tEZNZVo971TFEVRlKUGlmjchbwJRPk+hvjoAMswWBL812GVj0cdt5W5uTrf56IyDUEP9xlvPfYnElxpEM89m85Jwv0yL64vzXXQ1wuWe1jZ8VBgtLbzt4ldxqT6/KzEiDegLJK6xCiK0o5cORbFP308Ny4x2M3ASRDmEOVI07y8Xq9L9Bjbl11RFEVRLhS4hY1IGEXnrS9A2Ea4r8CCDtENEQzruvEth3+6188c9difwEwjvCP81qt1J/66bQCH9R5UZisi3Avwb3ddb7CWSX4swiXGxy1HBbuiKG0kE0mJCgNw4UCoxunitFyQINxheY/FYtLpFBfDTCoj7jPi12ddtBRFURTlQpFJjolrDPzZxUo9NCyGJUwjHjsGOTKuLAjHiHCQvZDih4BMMksTY+9q1AMwDcs78vGQIDHeuf5B7o4q2BVFaSMaHRGhjoGQAEQ6LOqFUoGvRLJIlpXKJemIWmRxj2nkvzN1zllBURRFUZaRQikv/ujGiu4FwjmTGqOFxXnxT3cGTnIiumAUVHQiBWId52SL7m7Ab71QnpFIMNPF8zJCqRMm0pHlaBNccJCP7Rmre7+oYFcUpQ1cb+LxBAv2Cr197h2Jb1upVqlYLNHc3Dzlp6f5QlSWuOujmTEazY5RKpUWH0B8KoqiKMpyk06OSYz1SrUkYhlxz129LJ/OdIQSUbjCjMv6GDgJHUIRptGs4wyIlGnMmwSTuP0p05iVz4hEgUGcd9SJdswj7nq9KvnTxTzFRhKSP5Zeww8DjuQ29XRMHV5Uq2BXFKUNWAhmCjPSyVRGNEUEmPk5Ghp2IsREhhDeKipRYWCFz8/kqVAsiIsM3GkURVEUZbmBRRy+6hjBFJ/oWAq8gterf+38aq0srjISl92DWc0ub5fFJNpQqhYlIk0ynhT3m1KlKP7wI3yftK32fkLcC9Y3VnobFeyKorRRm61TrVajWRk5DhfDtCRcSCDiIdSRB3cYuMKMZkYlxKMZWElRFEVRVhLEV0fnTwyYZECnU7jNwBVGPiszko9Y5wjPiGWYtgdd6hV0EoVBCzHcIdIRix11Rt3oM72CBw97Hwwq2BVFaQODIMXjcfHBgzUdHUxhOZ8Yn6DxsXHphArxjgteNpPli6HTQVVRFEVRLhSwtCN6CxLCN8KHHD7sSAjBiE6gsICjI+rsXI3Xzw4k1gGCLcA6j/vhdHFK5tPJDNW5/n6IRWNiDPOigl1RlDbi0SjV6jXKpDNiSReXl1JBOprKKGws1pEH4Y6Qj2bgCkVRFEW5UMCQNJoep9hIXCzumOaFkifuK3yvwiBJEPD4NIMqGQcUfNoJePOAmYbrSoHFP3ziEXEmkx6j6RLfL8Un3hmTpLGuzLXO+yW0aW5hjqdaUcGuKIov8F2Hvzqs7PBNR5QYuMLAV32KBfz5/HkR8rAsYCAlRVEURVkNwHccriWdgDA2mGl7mcEvr7GMxfpMeZrFf7bxUIC30wDhIbF9b51+2/DDjHtio4JdWT7yL9K3HvkWvZh355WLCrFUZEb5YpSRjqWwsEOww6cd4h2jmkKow+Iej7YONqEoiqIolyrwWUeYSLjTINqMAZ1eU4m0xGAfBHSC9bJsgv3M04/QI0+fceeUFePM07Q6DvsZevrw67R+x110U85dpFyUDA0NiZ863F/wCf86DOAsvdj5P6zvxrqgKIqiKJcqjlCfFj94M2KqAfdE+LHHok5s90Hwu6Uuk2A/Q6/nN9CG/Os8pawkZ14/7U5daK6m2+5RsX6pAas7rOpwl0GCu4xa1xVFUZRLGYhxhG5EVJnocEys6Lgf2qCT6aCWdSDGMNe1xiZy9uzZRfRo/fGPf0y33nqru3hAzjxN38rfRLfR0/zvNrqrodrO0NOPvEA52+oKt4mniW676yZyFmGdp8jIzvFbdnD56S7l8vTit16k3M1ETz3VKEm3+Fp3/dbdQB+9Zz29bm13w0fvoduudmda2tRaL94kNKqx8jotz7/4LTr8/JS7vHU73jxhw0fpHlmhcxscsF+HqaW4lCUuB0t3jl44/DxNjd9COxrHzFq/sRwEfU9X0xkul7/ZPj5u219f79bRra3Kamff//erNDeySGPZMXdJO/Cxg6sMrO7eS8u//8wX3SlFURRFWR6+/cM/dac8/uHOC2Az2fIJHFHs4J/vfrp/4KsOyzl804vlgoh1iHa7LAZfQtQZW2ybfIN33g+0Da6mE6UP0vvf/355y400/Id/+IdfRuZbb71F733ve93VB4GF4NMvU+6mm2l9rkYvvzhNV91wFTnPHNN05oU3KHHDDXSVeQipvkkvnyFaL+tARP4VvXHjDvqXn/g1uvnmm+kGWbFbuSq9+fLf0bPVW+ieHb8h5dZHXqbvvVhz823a1x2f/h499b1p2rDjX9Infu1munl8mr73wnRLm6q33kM7foPz1tfoB4dfpuTN6ynHDyaH8816br7ZbV+n5UziqhvcZe52njpD46iLBfG3v0d06z076DfcvBemN9COO68PboNTLZPg44x9eYEit5j1kItj9zw9/+Y6+sS//AT9WmOfDtPr65vHeX3tB3T4B+Z4BR3v9bQ+aR8fkKeXf/ACt+cTdEMuTFuV1c6T//h9mqOFwEGQEH8dMdlxIfEK9o9v+og7pSiKoijLw6v/dMydaiWMMA5LsVJoiHWAWOt4u1yuligajTUs7fW5Oq+zFO4wERqKDFGifhVdeeWVMi/L3PylI3+GXqf1dDXUWe4mujn3Op0J2+kQZac20M19mmM3rG+afHNXr6fxqTxLT3/sdcdy47zg5qYVmMtuMGVlf26hm8zquatp/fhpeh2+PmM5Gj/9Qnunyk7LvWA77mQgQW0IxTjdcpuxnjM+xxkPWBumQn5Xcnysdd365JAO3FZlVcAXB4j16QL/CixLRANehguWDpSkKIqirCZghDYWdHu6H2ZZhGMwJtwT7XoSsSRlkhiDxIn1LnkDbCcMSy7Yz7z4PE1NPU+HH3mEHuH01Okpev7FkGptOk9T4znq/BI+iHHKhS7Yw7pok7U/jzxiuZHwA8ld99xM+cNO3reMQu+0nIHriFMPUtMFB2VuuyVPT5m8p/JNkR3Uhn7wPc5jlBufonynJ5wWWIRvmGIR7uxX/szrRLfcxEuZpW6rcsGAjzos6AjhiFCO1VpVRj8tloqUn5mWkU/9gIudoiiKolwIMEpovvCORHGZmnnbd9TQsKCDKUJEzsmgSOfFVcWASC4Y1RTx3iHcYWFfTpZYsJ+h10/DH/weuqeRPkobTgd0PoXAcyfFMu1OdsUut5ygTfDvbtkn238bnSuxbAetf/2wFaHFZzlcZZ7PWceHj42zsjCdnxKfdifP8vvu2oYeQX1tbx+mKT8V8CDjOd5X33QL8ZMYf69niJ/RaL28UmGWuq3KBQUhHDGyaSplBoBYFMt7jr/naNQ/xi1cZJaL1559ia58rMtroFdO095X3Ol+WYo6FEVRlGUFNm2TEMGlUi/TdGmKRjMYMGmI0qkxqtYrVKmVaZ7Ftr1+t1SbrVEynpbQjfBXz3Kd8GVfgNWe8/E5tzAvb5tTyQwNu3HX7QS8y8ImL0t7Zz3zOp3esN6xtDaANfY0vSBWZseKayyzBF/qFxo2Zsd9gp6np9t9TILLLSdum7q/JMhRrulhYuFZblm28y++0LSw8z7l8x0Ec+g2OOTzXQSN66bifCcO0pZx15UpzPE2ri5P83feKOcu76Gtyupk3mMlx0imJjLMhXODqdK3X67QZ6/z/aE1eOKVwR/ll6IORVEUZQWJRESc57JXsECviM85fL9HRmIi5BHhpRf3mNpsVaznAKXgV56KZ2i6OEUzXBdSlbcD+Q4/92EfY1X4rXVnCQW7I+ps33DD1es30NTrZ3iNHN10GyyzhxvuEvmbbSsz59/1Uco18o07Sbdyy4nTJnrKuHggPe28MTjztLXsEXqKPupYkjstv/omuoXFrHEXeZpuplsarxRycA3nXWyWa2wnqA0eHMu3e5w6BmRHfY7l39TXjPDi5nc93rzOzRvo9Gn+zm+2/OOl7nBtVVYv6FAK15fl9snriXNTdJjW0R9c58w+8dhzdOUDJr1ED56r0oOPPEefe4noa99yl7vWeLHMN9Z9zrKe52nvA6fpiXNn6U7kPfIzur9DHU1O0YGtu+no0d1yM3ASz7u5DljH5HHaeoCXGI7S7shWOtBcwKsfoK2NdZDP9WFZW1kD1mnWv7VRWdB2O7W7ta7djR3pdX1g59n76FeX5xh46m3uU6c6sZzrDDxOiqJcLiwszBNfCeRagWgtw8MjLNxLItKRbHeWbmB9U5cN3jrnsmsomxqjscw4byfjPhgMUSLuvIleLpYnrKPSM/Btbw2B6Sw7nL/ZDeuoKCvHvkN/QsPJKNVn6zLaaTdWIqwjBPqfTmyib9+aEJeVK18Zpzc/1W5tx3qPX/dB2u8K+zZQ9ltEf3HfBrpDBPtr9LW16+jZe9bRNe4qwXVAfE7S3s1HaPGhbc6SA1tp8tBOOvnMHtro5h/aeZKe2bPRJx9C837adPIZcrOxAm29m+jRRv52Orhlv7u+l/b6Hbptt73dR3dHaPvBLbTftAWC+v5NA61/Yt8iyerYp8kTtG/xIdrmU1e3Y+YQVGe346QoyqXOX1lhHeHCAn91pGxqXET3TGmKhoYwIvc8C+q0RHgBtqXdTNnmqXK1LPVkWJgjw87zlsWDwExpWgS8LLNWtssB73wQ44WbWsI6Lp+zqdIT8F/PtfjO5OnM61M0Hr4nraIsKeL+MjRMtXrNXdIZXITstPTk6fGXxukPIdbBRIJufuksPXjOme2J68bps+6kQ5K+/FtNsR4OFq33OcITbNyzj3YdO0SPw8R76nE6dGwX7bOEZ0t+KLj+RzuIUJ/6hZDb3bWj2e7JTVt4wb7mg8O2Hbz+CTrpzoLQ62P7tJ8ah2XjJ2nnloN02LLA23Vt/ORO2mKX7bRPgXUGHCdFUS55II5NGhmO0dzcXEMw4zOTyokf+sLCIi0iWesHJRirUF+5UqRilVN5hsq1kvitS91Wmiki/vqobz1YwUyjDfZ8t+RFBfsq4erbvG4kTpx02+KuKCtNOpmiSrXizl04Xnv2LH3txnG6w52niXX07fvW0ct/5rit3Pls1c3wp9Ul5jX6mrt86ZikTVuO0Qmoz5Mn6NiWTbzExsofFN/6mVDb3UKb2goG0cP62P6xvTTZcF+ZpL0tIZID6grap8A6FUVRHHCNgL86Xylofn5BfNaL5WkqVmbEFz0aMkY6wjiODI9I6MYh/qyj82kyIwK+INFgnKgzsLQjpGMsGhPjlh9YFz7v+cJ5+ZzihE6q3UCMdy8q2FcNJqpMM6lYVy44EEltDi8rDTqbEn35Vu/vIUf77/sgvXnfJtrx8onOUV1eOU23fj9BfyHrIl3jsbD3g1d8n6QTx1xBOrmpaTluYOX7AWHqTnYF9buTLfSz3aUE24d7Ct/EcCMzyfWACSZon/qtU1GUy45kPCXi/PzMW2L9hm85XzIagx6FAZZ0WOUByo2lx92wjTXKprI0N18XF5hz07wNrhzb9AMdUiG8R9Nj4veONJoao5liXvztO4E6Ub8XFeyKogTCEsmdukC8cpa+zOL8zgl3vo0EbbzCnXR56ZzH4r42Qde6k2Ktd6eDaKvDw0HL1+PUgfvp4Jad9En4ZrhuG/dbPSpb8l2r96GGn8opOnD/QXc6BKif9tLdrT02Q2x3mXHb9UBLJ9SQBO1Tv3UqinJZAj91RIqBT7npHArrexiqtbKUR2dV00kV/uMSbz0ap0K5QLNiYYdQT1Mm5d/HC2URsWYsA0NTRKz0EOKoC8sQVSYIv4cAFeyKonQEF52wF7rlAiEWb75+vNXHHB1HGy4uz9HnONd0EL3j1nVE3z/h5CHCy3XrWPCfpVvddT9PPL/WWbcTbXW0sYX2bzosxwZpcu9mOtLo+LiR9jxzknYemmzmNzpXuvmP7ifaa/LRqfII7ZK8MKD+I7S5Ud5EVOm23eXGaRdtd7btJESVCUPQPvVbp6IolzowJ3kTXyTEpaUx7/nsNI1Y7bjnQbDDbQVhHCG0jXAfGY6KtRz5qB8RYjpRq1cpzqIbIv184TzNzs/RlDvwUmRomD8dU1jH5HPb1SgxiqK0gSgx6VyWpgvTlE6l5eLUC19ZhigxqwdELpGQLs3Ol4qiKMqKc+S/N6PEQOgaWA83MJOt+c05TBcqMxQbiVM0GhPfd0SZAdM8DQs9BLcEYZit0vz8vAykBKQW/tNat+ODjoGUAEZAhbjHdrAeDA/wZzdRZfxAjPcNi7dplBhFUbqDWOyIOdurWFcURVGUiwV0HEUH03gsIX22RtOOCw0s7hDmENpYB1b3ubnZhlgPAnXBJQaDKSE8JDBvCWEk74YJP2mjgl1RlDZmigW5sKSSyzsQhKIoiqJcKODygtG7jUA2otqZdoRzuVokDMRkPsMAa7yIcxb7mC6WCyL85+bnKF+c6uj7bsADhBcV7IqitJFMpCjJYh2v78Kkywv4Vas7jKIoyoUG7icm4WbUmLbyzHK/fERyiUdTLXkmJWJpWT6/sECLnBDWkWV8oyySlJMlzqedMu5oqxDn0VicZsozVKmWJerMUGS4ZVveZLZjo4JdUZQ2Rkb8Y8oqiqIoympEdK6LI3odzKRfPkJAwnXFzrPB8kxylKqzNRbwTmjIbnU3cK31yIuNxKTDKsQ7/NG7seh2dLVp6XR65513uosVRbmc+R//9/9ZOp2GxWsLuLQ7nSqKoiirgcf/frBOp/hEB89sOtdwhQGmvCmDzqcI7QhMWWCmmkvay/rldQJ1TxXOiRvNtZHf0E6niqIoiqIoyuUNRDqs3oVyvkWI20iIxxBW8aUA1n5EmPFriwp2RVHa6HThAsVSkQpFpwONoiiKolzMwJqNzqSF8rQ7KFIrpUqRUonOMdeXEkRmQ4dTv5CPKtgVRWmjUq24U63AfQ4DP8TjcSpXyu5SRVEURblwGPMRPr3TMC4hWksnkDM8hM6hYxKCcYaFu6TSNOVLeRphER2JDDXrC5mA3/KghNjt6dSodFD1ooJdUZQ2EObKj6FIRAaNQIz2RMLpgKMoiqIoqwXETIcfeL5wXtxL8pgunpPpIOAek4inKMvCHR1N4SozytNJXtYPEOD9gM6tfttUwa4oShvxWNyd8sAXtPGxcUl4jagoiqIoq4XZuToL5UXKZSc4raGFxXkW4Ukaz14heWGBeDfpQgDXGC8q2BVFWRoWF8X6XqvX3AWKoiiKsnJAlMejzbe/sJQnYilx51ypjqPLRaP12oFMUZQGtlNdiFSt1WiqME3lWiXQV1BRFEVRlgrcbuwEWVutVVvyEHgY7jALC4s0NzfXsn63hPub/dktYZClqZnzfD+cokXeHpaFLdue+I8LptXCrijKQKDzKYZbzo3mKJPKUCKuvu2KoijKyoJ46hhwKBqNieAFELq1elUGSEJ4xlK1SOdn3qZ5vmeFwUjmpnQOBiOnwvcdfujlWlm2H7ZsN1SwK4rSN7BWwA0mnUq7SxRFURRlZYEwhrc5wi/aLjEI1YggCgiYgH5XyXiaYpyP5YgIs1Rg+8VKQdLw0JCMbAr/90J5hqaLeSpXHfE+CCrYFUUJBBeZ2dlZsaQj/vpMcUZSsVyk6cI0pZL99aBXFEVRlKVibgHuLgu0sDBP9dmaJER8QchGWNZTibSIdIjpscwavoe1h07sB/jHw7ofj8YplxmXuO1D8nCQotH0GG8rRyPDIzJaaqdBkcKggl1RlDZwQUHoxvxMXsQ5BpNAr3WIc7i9wKKOSDKYt9eDtV1RFEVRVgJIX5G/kQhlkmMsiqdpujxNtdlqYznGDoGoRozz+lydRliwY3mEhTx8zk0dfgnYn97pOX44wPayLMxRb5RF+xxvz14PwE0HgyHByp8v5sU9x9TRKXlRwa4oShszxQLF+AIDv/Sx7JgI82g06rxaHBqSiw4EfDKRpNHsqKwHEQ8rPMS7oiiKoqwkGOAIojiTzLIeH+J7WFyMTxgACX7lmEYyoRrlb5eojUY42wK6sYzrgsvLWDon23N85EsU5QcDyZe/rWVjsQSNZsakTb265KhgVxSljTEW4RDovQARn81kReAriqIoyoUgwv/Q1dMR1NPiCgMXlWq9LMP+A+RBYA+x0O4X1G181Z35GZnH9gzwaYcPO7ZnwDbxYFGsFCVgQ1hUsCuKsqRcqIEmFEVRFAXiHAERpktTFI8lGpZ2jBFipiG208mMW6J34CY6PDwifvKIQgO/dfiw2wMewW9+ZGhEtoNpG9wnYZmHyLfFfBAq2BVFURRFUZSLDkhdb2I1zJ+LlHAjwmCZCPRUluYXFyjvCnn4nHvLehMQPc0Jn0Zbo/NoMpZm0T0uy6IjcRmgyayDNDc7K+EkhyPDvH5FfNfhQ48qkOD/jnFLZiDa3WV28qKCXVGUnqng4jOdd9KMkxBBRjudKoqiKBea0cw4i+SiCGsnhOOcWMGRRtM5EfJhMMLZFtDowAqfdXmbzAni37asGxbN22b+vGJsLY2mxrgtBRbzTm3wY4f1HfWF8WdXwa4oSmhwoTGdSnOjY5Qby0mHUySJGFNxIsYoiqIoyoUCfuK5zBoJlICwjqlkVoQ6wiwO4rcO4FqDgZG6gZFODY2OrkbEMwgBiXsqIq7B+t7NPUYFu6Io4eALyfQMettnJDoMrAY2uDCOZkYpm866SxRFURTlwgBxjEGU0AkU/uW2WO6XSq1M5VqJRtxIMEGkkmkW4lPS6dR8ZlOIYOO0AxHXIPwRr31i9Ap5kAjqhKqCXVGUUMAHL5lM0sjIiLvEHwh3RVEURVluYI82Nmkz3es88C7rlFefm6U1LK5hsPLme0HEGFjRMXASPnPZ8Tahj7Im1ebq0pHVzHsRwR62h6qiKJcv6BWPV3f4/PnZn4sfu6IoiqJcaLwqtpd5M+1dB3jzMGJptV515/oHuhshH2F5n2WhPlU4T9nUaNtbAFufq4VdUZTu8EUDsW0BXtvFYjG5cCnKZc+pA7R16wE65c4qF5JTdGDrVjqgX4ayTMC9pjZbG8jQjbLocIpPuOzgAQBW+G73VBXsiqK0USyVpOd6A37qxyATEO5weXnXxLt6HlhpKXjt2ZfoyscuYKfWV07T3lfcaSFPex94iR48584qysXI0d20+6g7LRyl3ZEVFr5tbbgQXID9Vi46INoRfQbgPgnxDWu5jHRaKQZa4I1YRx0oCx92+K1j4MFuqGBXFKWNRCJJ+QJCYc3Lq0AkLJviZfDhq8/O8oWpTNOFGZpCWMfpvHRIrVQqyxjasUrffrlCn70u586vPE+8MuVOGXK0/74b6fMT7qyiXIQcPXzQnTJso4cWn6E9G93ZFaC9DReCld9vZTBg6EbCTarlE5PutL28MW/lI68+W+d73nkqlBCppZkv5ZxZ+UQSS3gkIjHVEUMdoRkRJhLuLfF4UoQ4wjeaMuYTqVwpiVUdwh3Ra2q1qjvP+Z7kRQW7oihtDA8PSajGmeKMu4QFezxBmXRGQlrh4oaLFuZNWEdEiBH/vurg/n2+nJuiw7SO/uA6d16s28/RlW7a+wrPP3KWXmvkeSzf587SnY18YJdvXfeJx5r1OnlVevCR5+hzLxF97VvucrH0o47T9IRTjHHWa5Rt2R7yeN1XTjfzO1rn8Wp/Nx09ult8Gp3E826uA9YxeZxa3DJ8LIUtrhvI5/qwrK0s8Nu+1/I4yPZ5jd1WWV+r5qDHIGgbaF+n5UHHBdhlI7T7cXdxg051B7XHxlP/UZ5vtAN5nnJtLjm9bN85fttZKx/c7i4XMzfqsI910HH2+5562e9ObQCd96U1L0Jb7czHO7WlW1u9+926jeX9LtwMpSdKlYJYu42bitG5XsHr1b92PiZRPpXIymBGsszNN6vZ5TGNyC6VWoWnF2VkVcRhR2dUWMqTiZRY29Eesz7AMtSP0VYRAlks9fUKJWJJd41gVLAritIGLOi4kcDtBUM8A1gNZnl5JpmmdCotfuwIS2Uw6yNvOXji2bNE14/TNTIH8fsavfSRTfTmfR+U9MlXXqOvSV4YnPJ0l1P2zd/L0eE/c4U3C+rP8VZMvW+KBT1Bn7/ng/QXNxJ91pT5lNfSjzpP0OHrm2169vo83doi2qfoc6+MN/M/QvTlv7TzbQ7S9sM7nJsQp5P7j9P2hhiA8JikQztPNvN3HqLJFrHQDa7/bqJHUf6ZPdRuVPRun2jv3Uu0fRZM2+lIo+xiR6vmAMeg4zZQbjvREXf5yZ10aNIWaUHHxSl7fH9zmztO7KVjbm5g3aH22af+w9u5RWHpdfsbac8zi3RkF9EuU+ahbVJTE9TZ7bsOOFe67nenNgTsi5tnH6dnGpUeo72HNtFJd3nreQuCzmublf4upJDSI6lEphETHQMlYZAkhF7Ece2FNNdTZ9GeZhEdBtzv0El0gQU4Oo22gS5fvI4N3GUyyay4xGTToxJ3PZPMSF1hUMGuKEpHYtGYRIWBaEdkmLfPvd1iaVg58vT4S+P0h7e6g1XA2v62Nc/cces6utmd7orXWj8xTjvWTtHj8E9ncX7zS2d790v3adM13KbPvp2nb1t12S491/D0zW9X6VV3vpUttP++pnjauGcf7Tp2iB6Hsjj1OB06tov2WXf5lvxQcP2P+gn1Jrt2WNv/5E7acuwEncTMoNuf3ERbDt4fwqo4wDHotA2Uo/3UqHbjJ2nnloN0uKHYA46Lzza33befS7gE1R1mn7vV341Bt++HT5v8vuuO58og2+20Lz5tstm1r/n9tbTFpWNbbVbjd6G0AWEO//H6XI1GRmIU5VStV1gU53sS7RDNcG1B+bCgzHh2QiztEPsGP59083AGkS4dV+s1CeHYy/ZUsCuK0kbM7VAKf3RY0dHRFAMiTYxPhLYGLCWvPXuWvnbjON3hztO5Kr2wNkHXurM9g/Jvn6VbG64pJ+jLb7t5E+vo2/eto5f/zMm789mQLj6+bUrQ9Wsr9HJDsCfp+r793Sdp05ZjdALK4uQJOrZlEy+xsfKXhC20qXUDTQbd/sY99MziPjox6bgEtLgzBNLDMei0DZQ7tpcmeRmWRyKTtLdpIg/Gd5sWQXWH2edu9Xdj0O374dsm73cdcK4Mst1O+xJ4nALaInTLd1mN34XSBu5PGME0GU9TRVxjqjSGeRbFEPK1elUs2lMz74iQ79Xy3g18fxg9FSK9WMaDQ10s6bDY20DQz87PUiaVlXVgmQ9rzTeoYFcUpSNV6RATk4vSeG684e4C64BEjVkR0NmU6Mu3Wi4osIJ3tEx3AILanZTya9fRs65rikn7G/7x6EyKZZtox8snPJFhOuDbpiq9/Ha/It0rfk/SiWOu2ICFrs0qaOX7AQHhTg7MkmwfHfxgdTpJOw9NdogQMugx8NkGym3Z33CZMKnNE8QP321adK27yz53q98P+7gOun0/fNvU5btuo8/tdtoX5DlrLR+r8btQ2oD8RoIf+Vh2jXT+LFaLNMeiWPzaOS/Lgnp4JMrzdRHNpkyYBMynHyYPDwiJeFI6m47wtrxlo9G4+LiXEF2G76dpFu5B9fqhgl1RFF+KpSJfhJINPzzcbIw/OzqWRty47MvOK2fpyyyg77RFr+vC8qeW9Rs+7g1B7lq2D79i8qv04DErwgvK01n6j12FeII2XuFOurzEwt8XnzbJm4G1nrb3wMGmnwadOnA/Hdyykz6JN/Tu6/X7LctcS75rAT3U8Fk4RQfuX8IoHEu6/Y103WZ30of+j4GNtQ2Uo730QD8CyWebRx+wfNhD191hn7vV3+24DrD94680t9mCT5s6H+duBH/XLW0I2hc3726rTUvOBfwulP5BB06Jbc5ifWJsLcVjCbFuIyILgBvKcoG614xOSAdUuL5Ml6bloWGB750wesGyjs9UPOWW6A0V7IqitDFTLIgbDCLDGCDPy5WyhHDEcrvD6XKCUIo3NzqbGtAJ9Bq68fsnXJeW5+jxCduHnfN/ax1RI/8EvbzlGvqsm2vKk4n4IqnZ6bS57DnpgGos7/CTb9TZFg8edToWeVP21pdz9Ow96zxtD8sW2r/psFzgkSb3bqYjjU6Q6KjnWOYa+Yd20kk7/1H0pjP5k3Ri3xHaJXlLwYDbP2pH6YhIBzx/C/cAx6DjNlDuCJGJSCLJ7nQahFN2c2O/InR4h31cA+oOtc8+9W+y/aY5P/B77W/78M1u1Nlm6kWdQd91F0J+1+1tCNgXN88+TkvvVtK+jZX4LpTBQRQWiHaIZYh1uMkgqsvi4oIM/LfcwC8dbjLolApDF8Q7kp+rTCfgyuMlcvbs2UX4qf74xz+mT3ziE+5iRVEuZ37/wS/S2BXh4517be1f/RdfdKdWEIRt/EuiB/sWyKsJRJhAqJLLOXqEHgMBoQLlMIQUyMryod/FquObf/en8ul1QVlYWKSpwjmJIAP/9lKtRNHhmARSABDSBm9ZYGW3ua6ELWvnwWedn874XhnugSFfmKIbh2+j97///WI8w4PdkL1hRVEUMDLSfdQ1RVEURbmQQML6JQhcCPWhyAjNLyzQ3OycWL791u2WoLj9lndLphw+IxEW3a5Y967nTXjYsM1gRqerS4yiKEsALi52UhRFUZQLAzSu+LLXK1Rw4573iyOXe8eUs8u72juQRf4X8XHdifzTP/3TIgZEUZcYRVEM//bh/5nSuaw71x286BP4alSpVenA737ZmVcURVGUZeK/PevvEuNYqhdoqvAO5bITEkXGJqxbC8YhqdartLC44CxwwcMAOpfCzQX4lQ2qNwi0bbqYp00jjksM+otJcvMVRVH6BheYQrFA56enmuJdURRFUVYY3I/Esl6epvHRK9oGMQoDRi+FaIZgTyXT0onUJIxOOr8wR9OlvIj5pUb81X2COqhgVxSlf/jCaCLHxONxWpNbQ4lEM7KMoiiKoiwXMFibNLcwL3HOIaQh2kcz4+JaYoza9rrAO20oVYtUn62LOEdYSHQYNetiG7Nzc5SIp2iM65+fh3CfltCNZh2TgPnshLeMSajfiwp2RVH6AjHZp2byYgnAoEqm972iKIqirATwT0cyo5k6IRVzbYIXItjGO28os+BHzPZ0MtOwdI8MOyN/A1jro9a9LhaL87YwYNKMu2RpEHcbDyrYFUXpCVguZoqIKVui3CgujGpRVxRFUVYejGKKJAMmcYLQhdDuB7i/4P6G4mFG8p6bnxNxH+OHhHg0LmIf5ZGWAxXsiqKEgy9CGOF0anqKkvEkjWXH+r4wKoqiKMqgQCRPF6eoPlejTDJ8oAQ/KrUSpRJpFuBxX793+LXDBcYGoh3AdQYDNRUrBbH2o11LjQp2RVECgbUAfuroUIqe8mvGxikabX9dpyiKoigryVBkmMV1lDIJiPUI7EqSgJmWeWta5j35cPFEPaijpR7rc2Q4RkNDIzzjLIN1PToclemF+XlpSyY5StnUGNXq9ZbyJklZKwF73k5eVLAritJGpVqRqC/5mTxNF6bFjw9CPZVMNcJY2dTqNVkP4h6vFRVFURRluYFlGxFb0OnTxjPbJoC9+Yj2glFREQrSdmkxU/bqdllMYv3p8gwL9VGxwE8VzlMm5Vj77XKg23wQKtgVRWkDHXfSqbT4qDf81APcX+bn52k0MyoWeAh9RVEURVkJ4Ltemx0svCJ81hGr3RtvHUCQV2pld84B0WgA8uACA3ec2flZKpQLEtq411CSc1z2nfzbNDVz3l3Sjgp2RVHaGBkZFqt6WGB5hz97uVwWga8oiqIoKwE6fdZna+7cYIwMj7T1zcJ80hN1JsXzRqzD7x3lKtUyjWVyNDzcm1hHPSUuOzF2RcMX3g8V7IqiLAm46MA60YvQVxRFUZR+EZcSFtQIvVjv4I5p3E7waRLwm4dYnl9wrOyIuQ6864PZ+TnKF/NiWR8ZgR874rA7/0CngAy4R5qOqgZ0VM0knDCSCOhQrVXcnFbkzooNKYqiDAI6pqYS7YM9KIqiKMpyAgs4oryEpU31sliGFoYrC4Qz8uf4AcD4xpv14TqDgZJq9ar4qZuoMBisKZ1IU7HM4jsgWs35mXMSsz1fmJLtoc/XUGSoYZXHtmWwJ7Nd61NNYYqiDI574dHoMYqiKMpKA6ELH/Qw8dP9wMB/8IMftlxi4J6CaVjF4cM+XcxLuEYIciPWMRoqUi4zLvdAxGMPessM953x7BrKpkcpX5yiUqUoLjU26PyKTrBeVLArijIwtdk6X9zi7pyiKIqirCypeLqv+OewXsPiDZE8U8qLxdxOENUQ8hDmiAQDQS6DJkUcazxAWVjjIfI7ge2gQyqAJX8MAz7Fk406DBj8SQW7oijLAgZUSuqIp4qiKMoFAkIaoti4kfSCREZLpFmU5xpWc5Mg0hFvHa4ssLJDxMP1JZ3MSFmIawyqlHHng7BbhjcCsKZ7gYCHJd6LCnZFUQZCBpwYGRYfQEVRFEVZKSCA7ZRk0V1yfdm9eZ0S7l2jmZxEaoGVHJ1N0fnU9l/Pl/JSN9bLsogfy45LuUKlINb2DIt6u06TgJmeX1wQCzuqtdMs30NnSgV+CCjRwgIeOKjNTQaoYFcUxQeI73CpUq1qZ1NFURTlgoPwihi8yDuQUjfgooKyCA9ZKM1IeVjUIchhVYe7DfIN8FfHcljCjaXdD7sV4hLj8W9HPWV+UIB1H26liDzT6Q2BCnZFUdo4lz9HU9NT7lwwsViMSmIZaB9wQlEURVFWEieWee8DKSUTKarUKxSNxsRVBe4wEOr4RKdUCOkq56OzKOpHzPVYNHzfLRHsYuhqgs6s2VRW3HnwQICwjhqHXVGU0CDMFET4TGGma697WAWSiSTNFGfo3NQ5ys/k3RxFURRFWVliI/GOojcI3PcQ7QWSGn7qsLCXqsWG7zo+8VZ5LJ2TSDHezqL94DWmewW9jQp2RVHaSKcy9J6r3iPW83Pnz0mn0iBGRkakZ/vY6BjlsmPuUkVRFEVZPqB3vQm+5egkioGUZJ45XzgnxiezDlxezLQ3wVcdfupphG+UEI6jYk2HpR2W97BCHXWZTyREmoFl3rTL2VaK8vxwgMGaMBgT/O9htTdlbVSwK4rSRrlSoumZabGer51YS1MzziAPQcAlBn6AuFgqiqIoyoUiIQMplWUaAhnBEUSkc4L1HAMddQPC3KSlAPWMZcbd8JEQ6fNi6EJ0GcR0x3I8GGA9v/utCnZFUdrIjebEun72zbM0XZimbKb76z/44PU7aIWiKIqiLBW4X8HFBfck+J2nU1mJ5oI46/Bx9wubuBKgXfBZh+W+Um0OxoS2ghKMZUUn/rsXFeyKoviSSqYoHo/TaGaUMqnu8WUT8QQVCoWulnhFURRFWQ7gcgKxW5+rS2hEM5ASBPp0cUrcWxAzPWiAoyAw6qkjsh3rfb/AwIXRUmFRR5x3tBUdTtNJdHJ1XHC8qGBXFKWNmWKB0BsGPeMRdioMw8PDlE6nqVDispcFedr7wHN0JdIjZ+k1d6mihOLUAdq69QCdcmcH5yjtjriv8Je03osF7P9u/tsj+B4iW+nA5XfALglgH7JTtVbj38CQhHaEpbpWr3EGi93IMAvjMflErHO4b3rLdkooj0+UQ51ZFtToHDo3P9+2rp1MOfMp085sIwn4zbKAx0BKaDvmG3kWQ8YaplYxRVEMw3zxeOv822JFiEaj7tLuQODDIr9cvPbsS3TlY6sjCs1rz56lr914Db153wfpzXvW0TXu8o68cpr2vuJOX0CO7nZFXSOpWLkUOHXgfjq464jcyxef2UMb3eVLztHdtLtFFUMor7ZzyNOmtjYbeL3JQ7Tz5DO0Z9kOmLKSoGMofgPDQyNipR4Zxv3LudYl4854IbBo9yJ5zaqIEoOyERqmGEJH1uu8FK6i3uRgytmb8m42TDOMPlcLu6IobaRTaXrXxLvoyiuubPjWXXiq9O2XK/TZ69pfFV4IXj3XW1ueeCVcXPuVYNcRp/OVpCObae9kH5ZJZVVx8sQx2rVjmzu3fBw9fNCdMmyjhxZXm+BtbVN7mw2rse3KIOCahggxxXJBRDpEe9DARmGBGw184JGwDX4EkOmVRAW7oigXB+em6DCtoz+4DjNVevCR0yyCTzsuKZJ43nZT4dRq0UaZZl6rGwvKcflzZ+nOljy7vpfowXNY5tTzuZeIvvYtsxzrmXwX1CX1eNfnJG8JgsqAXtrk8MRjZnl7Xke23Uf7txykww3FfooObLUs8C3uFT7W1BbXDtctQdwMvGUB6ub8o7ub9be4MXQqH9SmbnWCoPK81Za3Dvb+oT0+y1u25SR/C66NXRev/7i7uEGHbTGd2wecfdvOmvTgdju/12Pmrbe1vVsP/LVnO5xkp93vzCnEDLLd7u06dWCrldfpuJs2OW1pb7NZx9TTuo3g4w382mkfAxB0HLBtT709/Y6UTpyfeYcW+V8uu8ZdQnL8B6VSq9C4Wydis8M3Hv7sK4kKdkVRemalLQvgiWfPEl0/brmeTNHnXhl3XFI4/cWNPP/AWbr+95z5N+8ap68dMyIXovkEHb5+U2P9Z6/P060top3L/yXRg8gXFxeU4dy73Pp+L0eH/wwPBQn6/D3YHtFnJe9G+vyEW4Uv3vU5fSqsZT5smxh+ePkcr2H2r3u7/IDImKRDO082LPAndx6iyZ4Ew0HafjfRoyjv65rB+Yd3NOvff5y2t9TvLR+mTUF1dinPoms7ua4kkozFFeW2E5m3ESd30iHzJmLbQ831T+6nLVv2032Bxm2nruP7m23YcWIvHXNzA7fVsX2GjbTnmUU6ssu8OUF+P8eMaO/d9jFrbe8zez7u2Q6nh7w7Peh2QXD+xj3PNPIWuTEHt3uFso332HCSNg9yvA0DnHOh4PoDf0cKgLOIncZHJ2hoaEREulkGzGevoBxCFtfm6jKNGOmI8JJKZmhkJEpzbmQ0sy07AfO5FKhgVxQlNJVqReLZ1mq9jyI3GHl6/KVx+sNbW3v2f9ZySbl2Ikl047qmSL1unD77dpVexTSs82+3lr/m1nWcn6dvN6zQSfryb1m+6C0WfWZinHasnaLHV9QPvYc2TSTo5pfOhrOqW5w6cDftJVdwnnqcDh3bRfsshbJxzz7adewQPR5aaWyh/Y8GCQzOt9Rte/2e8qHaFFBnt/KTm2jLwfvbragoZ44L2PhJ2tnyJgKwMLv7EO0M3F/Gpw3b7mOh704HbqtT+4IIdcxYxFouNBs/uZO2HDtBJzHjUz4Ug27XpVt+g207iLV47yzJ8R7gnAtFt9+R4gc6baIv1VIKZYyammWRjljpsKxjgCMZhImFPDq3LuW2glDBrihKaJLxhLwGRMhHxGefmp5yeuEvM04Hz3G6w513SNL1YS3I56r0wtoEXevOOiTo+rUVermTwEWZt8/SrQ0XkxP05bfdvAtFUJsm1tG371tHL/+Zk3fns51Hp224B3CaPLSTThoL3skTdGzLJpqUtQyTtGnLMTrhq5iWgi7199UmK79b+Y176JnFfXRi0jkeW41SQ7lje2nSPU6RyCTtbZrEBTzsHNr5aHcfaN82WARtq1P7ggh1zLbQpk4N6tbeTgy6XSE4v9UlZjt18k4PZKmPt9DDOadcVGB0U4SJRGjIeDQhkdNw35udn6XoEsVzx321UJqRKDTTGNip2B5cQQW7oijhWMQIcQUZmQ1WdsRmHx/NUalckrzlA51Nib586wCdTWF9Ntb2BlV6+e0A0Y8ya9fRsw0XEyftN9btbkBcu5Oh6Vama5tytF+WbaIdL5/oGJWmpdOp/bod1sU2a+ZJOnGsi7hzJ8PhFS1d6g/VpoA6Q5VH50Mcj5O089Ck4xeNclv200lznNzU8AI5dYDu5oedR8NYoX3bYNFtW37tCyLUPgeA8u5kTwy63W4c3U2TezfTkcYxOtKfhX1Jjveg55yHnn9HykqBBzeJDhMZktFTYVVfWJh3lw3uHw+XGwj0VDJNY5kxGkuPNSLa2KhgVxQlHHxhQshGCHS+lcnAD1iG+OvLyitn6cssRO/s2R/bwnUd+VPL6ixW+7UB9aIMnaX/GMoFxrHWH37F1F+lB4+1R4V5iQV5k3BlWgjdpgRtvMKd7AXXNeB+y6oo4QK37KRPii51rISHGu/1T9GB+3u3cR60/Epa6/eha5scOtYZsrzDRrpus5nkcrSXHvAVa0edcIBhXRZ82nD0AcuHPXBbNlb7guhpn31w23O3Vd7m+Cv+ywfebhgsy7XU7U53o6XNS3S8+z/nluZ3pDi2IpPgm9KYDsiT+S757iLBfEajMRkxFQMe4XN4eKRlHW8Z3zz+Y28H89OlGRpN5yRGvFle8hmYSQW7oijh4SsJLOwYdAI+fCCCuLNDnGBo4LTUPecRDvHmls6m/YCOn47V2URRufXlHD0bGD8dZTjXRHaR5HbwbIPX/a11RN839Z+gl7dcQ591c8Edt1r5EiWme5l2AtrUEjHnOemAGvptQAN00nOsio6rgMdlBvmPohegyZ+kE/t6tXJuof2bDjfrh8U0sFNdtzaBoDq7lG+J9BGRDoeOpRXljhBZ7kMmEogjFI/xYWjmBbtOOHVtbhy3CB3eYR+3ztvq3L4gwhyzINrba/YPvveN77/N9DzodruAiEYstI0ry920j/aHeBXQ3ualON4DnHPIH/h3pHiB/jWIGLbwzHK+e8NyEwI12vMGU66lbvfTEDTfbd0FbugQnwMIn4y3PNU6Rmqd8Q3sEPnFL36xCHP8j3/8Y9q2retVQFGUy4B/+/A+Suey7lww+Zk8jWacdUuVEs3Pz9ND/8NXZV5RWkH0DIS+WMrY18tRp6IEoefcauH/8/0/dac8QtmjjNuEc7d8d4lZbud3r7u5pD3PnXDBaKmVeoVGhkdErCfjSfGVRx3XzN5MmzdvlrfZktwyiqIofQE3mXKlLGI9lUjR+Ni4m6MoiqIoSicgxCHUYVHPZXIUj8blrYu4nHpQwa4oykDgwpLNZEW4j4yMuEsVRVEUZWVB6MV8carFyt0P5WpZ6ilVSzKPyDAYPXWmNC2pWCmyyJ6VPIhtdBpFKpRnet42rOsZdzRWhI3sVF4E+6A7piiKoijdgW/vUrsRLEedihKEnnOrBahXO8HFBJ8SJ92T10uqzdVoLOO8LT5fOC9hHZOJlESGQUrGkhLaMV+YEiE/mh7j9XPSv6s+Gz7UMeqFVd2ABwODV5urhV1RFEVRFEW56IFwhqBGBJeBYK0MwZyKp2g8u4bSibSIcdOJGNHR0smMiHQkLAPoPGp3Wu0GQiQjkAOA8E/wg4Cpy4sKdkVRFEVRFOWiR8Q0C+tBgFA3nU47iWcD8s06cKOZW5iXkVbDgrII/ALwABCPNa3tXlSwK4qiKIqiKBcd8Flfardu1Amf8m5iHWDbxre9VClKlJcw5QwQ6DXXhaZbORXsiqIoiqIoykXHyEiMzhfOScdPyHaTQNB8p1SbrUM508gwQivyMjfDTHsTYqbHY0nKpsZY5GfFxYUXNxIImh8aGhar/PzCQstyJC8q2BVFubQ5dYC2RrZSc1ybo7TbDJJyQemnHYj/bO+LoijK5Qs6bOaya2i6lBfRbvAKXj8B7AXWcljKQa3eHJU6qCzcWRDlBcBvHp1ebcK0YzQ9KtuFS4244+BJgPnSl75E733ve+k973kPrVu3TgW7oiiXMu4Q8ic7RXSAaL7MBPDR3dQ2QKWiKMpFCjp6jmcnRLQbf/B+qNYr0gE0GU+J+DfiPQhEjimUCzIN4T6/0D5CaTfQfnRcrc1Wpf35Yl4GIPzKV75CP/vZz+gXv/gFnT17VgW7oijteK0EFy/b6KHFoPBr3fIvPY4ePuhOKYqiXBrA/3ssnQslsm1gzYZQFx/0akmizKDTKjqAQjwba3cnYOG3HxK6rd8JtB+hIt/Kv8XbH+K2FN2cJirYFUVpo1qruFMOb77zJs0Ueh8QoldOHdgqFy6TmpZguILspqNHd1v5cCeBhdxvfWDndbKie91SsJ1mfZGtB3iJwV1XXGzsvE7b6bR+J8K01+Vx73Gw6bQPzvLtrNcPbnfz1NSuKMolAizcCLdoxzLvxMLiggxyBB90MDIcbYwyavAbbdQPR2CXZLvlakViszt1T1MdPvEhScSTtDa3Vlxr8ODgRQW7oihtpJNpd8oBPdnTqTTlZ/LLKto37nlG6pd0ZBcLS1uMHqTth3c08o/s4vnI/bTppLX+/bY43U50xM07uZMOTXqFrReUmaRDO082tnFy5yGabBHavM27iR5F/jN7aGPX7XjX70Qv7T1Ge080j8PiEaLtLaK80z5gsBccN6JdZjsPbZNSiqIolwLpRIYqtbI75w/yEdkllUjTWGZMBkBaWJgX0W4T4X8Q3VXLn90PPCSgDgzWND46TnxlFSt9dCRG9bma+KaHBeVsX3wbFeyKorRhWxkABDwuOplUhqYL0yL2lp1tO4i1ZQu7djQF5uSmLbxgX9OdBesfO0EnMX3qcTpE++k+s/rGT9LOLQfpcJBiR5lju2if5R+zcc8+rvMQPd5Q7Fto/6OW8O66Hc/6neixvfZxoG33cUm3jaH2QVEU5dIEVvEgP3bH3zzScH3BvQyRWuC7PuS572XTo7Ie6oPA7wSE+ZrRNRLSUTrBZsb5ocBxs8FDAEYzhZgPg9x7O9xeVbAritKVaNSxPMwUZ8SaMDU9RcVSu4/doLS6xGynVm/rLbRp0p3sxskTdOzYXpps1DVJe4+5eZ1AmS2bqHUTk7RpyzE6IU8BPvSzHT96qsfvOLht7GcfFEVRLiU6hDMvV0ssrkdEWLfginY/UY3rcSqRwkRHVxu44kD4Txebb6BRLhFL8PwCZZNZ2XZYUNbPKKaCXVGUUGRTGbmgZdNZWpNbI6/9zufP+15Y+uLobprcu5mOcH2oc3HxSJuFPTSTm2jLlv10slGXkwI9QFDGWOgbnKQTxwIeFPrZjh891eMV31Yb+9kHRVGUixS+TLYkBEyIuNLWXg4r+ezcHMWjSZk3+Y66j8i/2uxsswzy3QQQDaZSrzTm7Xxcq6fLM7xOWoR9rV4n1umUSY5SMpbiRbD645qOkq1l/YiNRLmt7b7vQ9iQoihKV/hChIseBoYAEO64frxz/p3AV5A9YVmHTx2432Nh7wG4lNBeeiDIBcaL64Zyv9XbU9qwZSd9spNPSz/b8aPHeg5avjItbQy5D8dfUf8YRVEuBRzBjQQ5WyhhlNLRhjg2oFMoIr8Y7HwsL1aKfB+b9/Ufx6oQ9EYv21WLWC9NS4QXuNXA3z1fnKIRnoaBq7muY/a3y3YiZo1+amt0tbArihKaWDRGpXLz1R4s7ZGhiHRGHVi0iy920y3kbtpH+7e4eT2DDpbojenU5aRunU5R5iTtPDTZKDN5aCedDOws2s92/Oilnl10ZMfhxnryVqLRxu77sO2+/UR73XyNEqMoyiUAor7AZxzuK37RXXB/gs+6H7gWwlcd9zeIbQh3LxDyZoAkAyLAwA0mHkuIwIZwBxNjV0gdeEgAEO7eskEgLrvf/TTy85//fBEZx48fp23ben2PqyjKpci/fXgfpXNZd64JxDo6n14xfoVc5AAGeCiUnJCPudGcXCy/+pl/J3mKoiiKslw88vR/EP9w6Nh0KtsQ5bZlGkBM26ESPdkNyzfKQfgjtCLEP+5zyIMwN+Wr9ZpY0mFRT8VTNMtiHtvFuuhg+s7U23TVxDq5F6Is6sumRht1hQGdY98/tIU2b94s/cZQl1rYFUUJTSKeEEtBsdzscIqLCTrxiHViKSztiqIoihKCUrUsvuOjmZwT9YWXNcS3lYxYNgn4zfOKUleU72czLJox6ijiqtfnZsVPfYYT5hESEm4vRX5YgBELcdchshf5/mfEOoDlfXhoRLbfC20dYxkV7IqihAYDRODCAz9224KRSCRcC0dawj4qiqIoynKTSWaaVnX562BPA8zb9yxvPoS3Dazno+lRGmPxPpYdpytya2ksPSZW9jVjV1CtXpW3yxDWZj18YvAjI9bRcRSDEEqUmR7xc6FRwa4oSnhYrONilEqmpHOPzWgmS+WKE6tdURRFUVYLENbGp9wGIh7uLtVa8OBINhDzmVRW6jSuMDaoE246Fa4TAr9X63onVLAritITsBbMSvirRbEwNOCLUiad6ToqnKIoiqIsBWHFMAYwwj3Lvj+JWHc7iiLq2aCY+lEnfOBhcQ9qH9bvBRXsiqL0xMjIiLjE4AKHgZRsYHlQFEVRlNVGNpWluflZx6LOwhr+6XCpgWyOjcSclXoEohsRZOC/Dj92CHS4zmDE0yBq9Rq3Y1rKhUUFu6IoPQOfdVxwkokkla0wjwADLCmKoijKcgMjtV+SPJ+UTmYpk0ac9kWJ3IJlGGxploV8y7r8xy9hACQMwFSqlFhwz9BMqSADJaETajY1xsKfhTqLdl5VEjDTkvgPkgymxBNDkeGW+u3kRQW7oiht4CVeUEpiYIdaVT5hbZ/n1MgP+YpSURRFUZYDH73bAHHO0TkUEc7QuTOXzbkW73wjIRTjTAmCfEYs4fZyrBsdiYnFHm4vEvud6/SjUzvwNno8O95Th1QV7Iqi9A6LcnQ8LVcrNJodFdeYXv3xFEVRFOVCg46jGO1UIsK4CdZ3CHIjyu28dDItgnuljVMq2BVF6Yt4LC4jvUGoj2XHJAa773s8RVEURbmIgBi302qgIdjVOqYoSoOQ14PRjGNdx6tFxGDPIwa7XksURVGUFQB3G5Oabi2OC0ulVsYqFy1Gl5tPtbAritIGOsOEATHZYWlH/HWMdIpOqLXZupurKIqiKMtPqVKk+YU5iXs+lkHKiWUckVsuFVSwK4oyEBDpCGsF9xiIdyRFURRFWQlw/4GRCZFabPeVRCwp88i/FFDBrihKG2Zo5bCMprNULpcvmQujoiiKcnEA1xd0BAULC/NULBdonj9BMp5atsH8ZJCkYl6s+LXZGm97gWbnZt2Qj45rDqLKoD22ewvahrSwuNBYHgYV7IqiDE4kQmOjY1Qo8oXSHv1UURRFUZYJyF1Y1xHXHNMzLI6TiTSLW57nBYibLgGH+QPzJgF7vi0h303AOw/XT4jzbHpMYrtjeblWoTovi8Xisnw0w4k/R6Ixenv6bZpyxT2iq2HdIoR9aYbyLOyrLPjtbZjt2KhgVxSlHbxV7CXxH1wwc6PjNMOiXVEURVFWhgiLbEfiDg0NO2+IXdeYCgvjZCzZJoDd1UPRVpYTrOsIBWmiyGBkU1j5sW3408PCjpFUkbDumtEJyiFcJAv4TCojI6wiZCT87RE2EtZ5rBv0lloFu6IoSwYuXOOjOXdOURRFUZaXRCwhwtxQrVfkTS+s2Yix3quLZ7+Uq2UR3ojhjjalZHCmEZizpB2dwH0zyeuOsZhHHZ1ceFSwK4qytLiWDUVRFEVZbhChbG5+1nFRSWV5SYTKtbJ0Ou1lJNFegBgvlJtvkx3/9brc/rA8wg8Jc/zQgGUYZAlW925AuMPaDiu7n2hXwa4oiqIoiqJctMCqXZ2tik84LOpwOYF1G+4rxqXFTHea74URFuExTnB9gVgvV0uUYBGPaGlwc4GLDh4iMsms5JtBBsOAtiOmvBcV7IqiKIqiKMpFC6zTEMfwD5+dm5POp7Y/uFcq9yPSvUCg40GhWCmKSw7ccBCVZoYfGjCNPFjXER8evvW9AEu7FxXsiqIoiqIoykXPUGRI3GAgeCGWlxtY851txSRUI0b9hlsOHiCQ8NAAsW7mDY4Ffq6j1d1e16CCXVGUNkwMW0VRFEVRgoG+hniH+wvENh4aIMZhfU/FU2TL71K1JH7uTsz2osRqx3Q3VLAritJGUI92RVEURVkNwEBtEvxcGtPObCOBoPm2xH/86pV5Z1FLqrHgjscSLMbLsgDx3zFwEkJKwuo/MhylQqkgyyDOFxedTqrzLPAh8hHRBv7wQeOYiGAP6wivKMrlAuwBnVP7v9Y1FEVRFGUlsZWsV9V2mw+iW9lqrcKCfEQ6iiKcIwZCgh874rQjPjtA2EbkjQwPi0FsLJMjDKqEDqqYjvF6iCpTqBSkrNHl9qda2BVFURRFUZTLArihnJt+hxYWF9wlvQMBDUu5sZiPZ8exVCLVwHcebjFwh0E+XF4QJUZEPX86oScdUA9COELM57I5WlhAx9WklPOigl1RFEVRFEW55IFARh+t8ewasWT3AwT2VGGKxXdNxHfWjeiSSqQpm3TEeHRkRAZCckYyHaNKrSzC3ljc61wWI5uiDfB9h9UdyVm3IuLdiwp2RVEuQqr04CMv0YPn3NmeyNPeB07TE+6cMiCnDtDWrQfolDsbjqO0O7Kb/y4hfbVDUZTLCcRGhz85RHJ0eEQs370AsY4ysKgjXjrqscE8or/ANx0+6WYEVohxWN0XXYcaRJWBoMegT3ClMVFh8ImkcdgVRbmoee3Zl+jKx/LunLI0QDxvpQMXTOmGFe8Xup2Koqw2IH9N6gas6xj6Hy4nABbxYqUgrisY+KjGYjzITcaUN2EbO5FOpsWanuH10LEUZdAhFQ8LJpSjEeZoix1zHe46iDBjhL6NCnZFUdrhC4qXSrVC04Vp37yVoUrffrlCn72u/VWhMgjb6KHFZ2jPRnd21XKxtFNRlNUERDPcTxCJBcLZiG18osMnRDM6fcL6PTVzXvL8gNiGRTxIrEOMF8tF8Ul3rOQRKQO/9vrsrGwLDwh+QORL2Aa+xRpLvI0KdkVR2piamaap6SkJN2Wo1qqUSqaoUPK/2Cw756boMK2jP7jOnQevnKYrH3jOTV4XGbi+dMozwLXmND3RUk8nd5lTdGDrbjp6dHfDOhJpswxjHZPHqcVFw8dC3OLG4VqasaytrMOpA1utbUdot2zc2aYz3UTWbdTRrV1mP7q3wVmnWdfux93FDez8MBbxSdq0axP/dfDfR2C3Eyx1OxRFudQQAc0CGe4n8A+HkLYxvuPoEIpQjHBz6QQEO9xogkB8dVjIIcxhaYf1HHUDbLtcKYl4zxfy4lqD9iHBol7kstj+dKm9wylQwa4oShvRqHOBsUU7hA8uNBjJrVZr969bbp549izR9eN0jTtPVKEvv5ygZ+/7IL3J6dmPEH35L8/Sa5IHIc5Tdzl5b/5ejg7/WSchPkWfe2XcWU/qqdLnHjH1eDlI2w/vaFxkT+4/TttbRPEkHdp5spm/8xBN+oreTnD9dxM9ivLP7CGvMXnjnmcadS8e2UUHt0PAbqQ9+3j6fns7p+jxQ8do1z7U0Wu7gtqAurbT8f3Nunac2EvH3FyTT0fcNp7cSYcmbZHtB7f/oeZ2/PfRy3K0Q1GUSw3ctyCY0ekT14JOVOsVzl8QC3wnUFdQHRDguD92GmE1Go2K3RziHGIeDwDodGo6vyZZ6L8z/Q6L/USjc6qNCnZFUdqAJWB8bFxSfiYvF6kI/5ueccJTwScv6MK19OTp8ZfG6Q9vbb2YfnbLuoaAv+a6HN38dpVexYzXGj8xTjvWTtHjr7jzLSTpy7c23WyuuXUdffbtPH3b1yK/hfbft82dhrjcR7uOHaLHoXxPPU6Hju2ifZbPRkt+KLj+R9uFui/bdtAud1Km7e24bdmBpvbcroA2+NS17b79XMIF+bSfGodo4ydp55aDdLhfpWzvo81Kt0NRlFUJ7kJ+CX9wi0LKJEdpKDJM52fOixVdllvr1udmqTY7S6lkpmW5SYbYSEzCMnox65X4oSAZT7WUtVNEBlAakagyEO21ubqbh9CONVkGyzy2keBPLyrYFUVpAyGp4KU3PDREY9lRmilM8wUkTvFYjMZHc3zByVLRdo3BynZaYl579ix97cZxusOdd0jS9RPupJdzVXrh7bN0a8PN5QR9+W03rysJun5thV4OFYFmkjZtOUYnTvLkyRN0bEvTtcPByl8CWt1FttNBdznLVdqx6xgdchX4qccPET9Z8FJmKdvlW5cF8o/tpclGGydpb9PsHYrO+2ixAu1QlMudn//Nt+nRbxx107fpO2fdDCYor4Wzf09/0VjvKfqhuxj88IhZ3qWODszOd47wAiFsA8s5osP4gbfIsIx3AxFg0CnVdhU1YDlGNMX1Joh0KiMjnqaSacrJ4Emj4qoDq7rk80ODuf55UcGuKEogsAjAJ69erzdCTY2woMdFy+/CtfSgsym1WMG7MpGgm9eua7jLmLTf9n9v4BXnVXr57U4PA16Re5JOHNtCm6AcJzfRlmMneImNle8HhKU72ZWju2ly72Y6sui6eSweabE+w8JMex+go/zvgb1EOz/pWp/7aVcnfOuyQP6W/XSy0UYnPdR8KRFMl31ssNztUJTLHRba3yteTXd/epukj6/lRX/39/TzbnktvEXf+btzlLjOWe9uvv7+4zebdbye+VCjjruvi3WoozOlWsmdCosTnQXXAumE6o4oGo/Fadb1J+8GBDbKetedm5vr6ApjA1GP2Ox4S+0MqjQjPusY5RQdYBEj3vi8e1HBrihKV2KxmPjfIVIMX6lkWSadkd7wy84rZ+nLlKM7O1nT/YALDJ2l/+jrAtPO115phooUa/7azts7aPlVnDpwPx3cspNEG7tuF/dbvRtb8l2rtrGCcy4duN/XftwZy6osdbvTgnH72H3Y2mZzeed29YBPXUf56aDx0IF82ksPDOJ6ErSPhpVoh6Jczqz7Vfrc9hvcGaJfmhyn4YUSvYGZoDzXov71H2P6dZbsE/Rr70cG8/5fpnU0RSdgSec6PvPr73KWgyvSzTpCUqr2dv/BrWuehTFcY9KJtBii0EkUgjnsqKfooIqwjhg4yTZYiYXdE5O9E3hoQB3OoEqjYmmHTzuWQ7AP8Tb8UMGuKEookomkiPSZYkFe6ZUqJYkcM1OYcVJxRuaXmidemaKbWzqbhiFBn7+HS3zLuMQERX9J0pcnphrr3fr9BP3FPU3f+Fa20P5NhxuvLMUa3OiYuZH2PHOSdh6abOYf2kkn7fxHYQU3+ZN0Yl8HC7If2+6j/SxCjZvH3bSP9jectoHb+fTgQbezqaFbu3oBdR2hzY19iNDhHfY+OPm03clzUg+dPbvuo2GZ26EoSivvlGh+KE1XubMtdMrD8vgo/ZI7S/QuWhNfoJl33FmLHz5/juaT6+hX3PkwTJU6h2D0IxGLS9x1DHrkBFAYEcGMCDJrRifkOhEGlIXIRgdRRKCBtR2W837eOHu3yVeqjpb+yM9+9rNFbOT48eO0fft2d7GiKJczf/C//xGlc84Qy14Qix1xZRPxRMNdHdccXGIg5Eczo/TvP/0FJ2PV44R1pN+6kT7f1YKPyCMIn6KxwBVFuZx4i77zzeeJfu1O+s117qIGAXk/fooe/dk6utuyxsNv/fX3bqPPwOoOa/wxFurISG5oWS8Mjz33TXqj4B/Pyyt6vRLYXxI3CXKPMTlwES1VS3z/g+0b7jaOu0uYsp2AHkedsMBfU91MmzdvFss9fOzVwq4oSjsdLjizs7PS4RQXELEMWAkXL/gCKoqiKJcKEOT/QDMbO4n1TnkhgGuN8WF/79m2TqlBoMPpG/mmxztE8sr0qWqC+x2s7TBejbJQhztLkFgPg3Rs5f3wq0cFu6IoocFTPtxf/IQ53GHi0RiNJf0t84qiKMrFhBHkrkW8haA8F/il12asjqRv0fnaEI1e4c7awL99qEqvw/c9BKfOvkwLEYwM6oBBhzCSaW12ZccIwUBH1XpV+nfBLx7W8bBA4KPzqRcZDZX3x4sKdkVR2oHVnEHMdelo6oKn/7HRMXeuCawB6MwD3jfxbvm8OICvexh3GAC/aHWHURTlcqBPsW53Ol23nt5F5+jvjAj/8T/SWRqnTeuIfv7jn7RGhEEH1YUOYt7D/MIc/f2rP6ChCKI/OS+E0VETMdYjLGuNcRofJoGWef5jyvomz/p2wh+zHt8sKZPIyAimFRbfpXKxEU3NF1MJynN7sf7C/ELLMuee69yDbdSHXVGUNvZYPuwY7XR8NNcQ8X7wZVPCWkG0/+5HPk23XP3Lbo6iKIpy0QH/81fagwikr2ORTgF5Vzh+6Qjl6Ij5n9DXv3GaHLvzEK3b4rrPtNVv5XXhH1777/TfX/s+DY90doHBPcmmdY7nvQs8eMvb+JWdKU07gyZxJsJNIjQjLO7eTqWmLKzy1VqFMqmsGMZgVccyiP1Mih8AWPzfPLKlxYddBbuiKG3Ygh3XhyHXT70T6Iiay45RuVKhr/7LL4lrjKIoiqIsJW9Ov0nf/PtDNBKdDRbVnjzvmkst2CHU84Up8WWHwIbwLtfKEgYSQRrwidCPtXqd5ufnZCAnjCg+x9MQ7vOcl4wlZV0j/m9Y+KB2OlUUJTy4WHQS66ZjDC4yGN75Y5u3qlhXFEVRlhz4hx99/v9HkaFZvid1UdwrDCzpuey4DIQEAY5+XggfCR93ACs6rOazfJ9ENBnMY93ZubqMboowkWC6mOcyWbmnelHBrihK35TKJcrP5OX1XzQyQh//5a1ujqIoiqIsDRDrf/nD/0bT5XNUny9Lh83lAEaoCgtujIIKQY2BldCR1RinghDRzsJ7wbW2ox4sgyUdAyNBwK8ZXSOhH02CJR315wt52SeMdgpruh8q2BVF6RsMpDSWHaMFvtD8Dx/9l5SKJd0cRVEURRmcN/Nv0KNPHaSfnntd/Nbx1tcZ2j+/ZKEcxfe8UhSRDsEM33LEQocfOiK2YDRU+Jh3AwIdI6hCeGMwJdSX53bCzQUjg2PAQQy2hOVoP5ZjPYh3lPP6vNuoYFcUJTS4qHktG8lYgj5/x7+ma991tbtEURRFUQZjbn6Wfvjq39OfP/V/0EJknsbH0pSIxykejYuYzqZGRUiHsX4HgfKoB/7kEM6xkZgIZ5PwBlks5/xwUA4ZthHl4BaD+lAWbcVo4VgGX3W0H6IeCcuChLpBBbuiKIEg+osBUWDsMI83rNtI/+Pt99DGd613lyiKoihK/8Cv+8TPfkT/7799hJ768RMsdGOcMFhfqzCHpX0sPSbx1wcBbi+wpLPMbhP/ENKwgMPnHBZwuLugfb2CetDxFOJfIr6EEOheVLAritJGudIczAGCfabIF0S+UOEiY7+C/Ndbf4fG+YKpKIqiKL0yOz9L+fIU/eL8z+j50z+kb/zd/0n/+Tv/kf7q+cfojal/ovnFMi0OVWluoTlIko0ERfAR2mGBVR33NYxY6hP6XIB7DNxh4JeO+2GhXHRzVhYJ6wir2T/+4z9qWEdFUYTf27+Xrvql5gBIZgCldCpNlUqFshl3NNO5EefTe6VbXOCLIC6ki1QsFSidzoiVwouUsiwNdi3oTV+fdWLS+uG9tnrn4S+YTWcby1vrroulxIzY2l5X6xLbGGJbRrzlQLlSlJi6EbmR4FDgNWrZaYtPWbsOP6tLYz1PnnfNlja6nzYmXz74j70O6p7j+8AwtxnT7eWbSzDlLWvjmW2bR0izaq1M6WTWvdk6YOARrBsfiVNkeEjOF2/dc3xOwM8UFipYqxL8/Q0PmXOwlbZ2cCrXSlwmxdMRni5INAaTZ4PtGgFQqhYb6zXwFrCQLCu/rW730w9vm3uhU1GEi6vwPiQTGRruYwMIbweRgqHgU3FYIR3groDfZ5zP9RqLGTvPjwX+x9+q1FdGe3h9fMfBoflakW3O1XhbzjXBLutd15lvXVqq8LXIfJeeArN8jVvkNsaiiTbx51+3P35l4UaRiCWd/eX8+cV5+Q1kkqMD121j5wfV44f3e8ActKH9GzW0b9ed8KW9XhuUxfdarvF9hb8b+c3z/6EhPk/q0zyP63TCtUq3tgX7i/sEfMEdy/WIXHsxjQ3Z22rbrvtprOvYLtxiTLQW77EGZhl80hERphOB53TnrDaurW2mX/7lX5Z9x/fQ/k0oiqIMRfhCOOcoCE4xFkZpFs4zxQIlkixGeZkjpiLi087yRgRDIzUurBHKpEdZtBdFIGPe/ufMu2U4ATMNK78JiYXrHyLStK3rtkPaYk9LHgQfJiRLPk3CvsGigq3jHxba/4Bdt53sPP7TSGYZRtsb4gssHhhwo8Z0hI+nX1n70+TzgkbCv8Z6WOLMSnKzmvOS765rJbPMzsM/+TTLmCjf5EQkI68tYXVrfXvam8fre+d5olGmAqGSGm0IASzDjRBhzFL8fY9EoyLGnbJSupHwneEBDu1MQCiyeKvNVhsruJuRBEwbpC5OOAUxpgCEOwSmndeyLsqahxfMe5K9rjfxH25K8x8vaPkn854yJnnX7eUfyvql4ciwCMMan4sL+CFhOz0k/I6i/N1gFkLTLB8ZifF3kBLxjeuDvdl5/ie6BPMuRm6gralEVn4b5prQObWCcwdCHzjCH/7EfuWQgDUvu4422PlN5hbm+LyLunNWOd/UG4i/jXO2WJmRc284MsK1tMsvOWarANOOfl03eoKrh0FjNM0PlKyzR2L80BTnB4VhxCrH7z0rv3scPz+QN5oek+8WLiuIzIL6wh5LBEzAPkKsN+43HWgei2U+Jh1QC7uiKG1g4KRaZI7Gx8Z9L9j2EljeYZmF6ErEE+7SJiiPPIR/REQZrGvjrR6zsJpAsOcwwqo7Dyt/IhpnodC0qHrbZuawvUKpwNsblXmz3HyiLdg3m9aamnWjLkza22qZ9nzmC9P8d4FvIqPyuhVRARDSC9ZgEFQWtOXzn8Z6Vh5onfPkc7vhvrTIYgECeHi4edxlLf5jlw9bt1keWNZTuDHPbUJUBGPFAj3tE4M5WNlhSYOgwDQscLCqdSs7U5ySG38ykeYb/YjES67P1aUc6ouyCLUpcFvlIQJKwsK7f17a2uF+GoLKd6s7iKCiOA8KlWnKpiBuet+I85vKUzadaynvZ02s1RHOzrGex0farwlA6itPt71psbHrhhXWGRnS+U3jt4VrAr4zfD/eVnjbhe2Vqnir4pTHvM0M79so7xvwZLXVDQEO/I6jt17M4ZzHcohPGAsq/KCBcxCdJ+21/Y6ljV/dNnZ+e56Tj2sC2o9rgn3c7W0H1Qv86u5E2/fgfhpg4LAt2zbdytrtQuQVuSbwfmE6HnWuCYa2su7nVMG5JuAajfUh+PHmCFWjPjseOrYH6zriposLTQeCvsegY+VFLeyKonSHb0SjmVEZwdTgjNJWc+eamJ7vfmLdgBsbxDd84XGj7QYs8rYrDC6O2AYuXGHA9jpdGOUiH0Kv4EEE+w9/RcTINfverShGfB0fHZe2os0TY2saYt3G1GPXF6JZHTFlsX+lckHChsFVQR4aWCBg3r7BBW2327xNr2Uda3A4OtWVYrEzxDdmMw33gm7bBbiJw1qMG3OxUpCVEL0BIhDiDxZbHCMct2kW93gz4hXrFyv4TTgxn7uHpvMD5SGuYSU24CEA4sZLXEZsRDSP4GsCHh5KXF+YmNqw5OO7NuB7gZiCQAsDttdJR+E7D3NeVvlBBA8ZcJOa4U+/ffcDFmCJr81thUjPZdfI50qB/cP5js6Z+P5xTYClH7HG7WvChaL7ke8O3FrMuYBpWNnDgBjpOI9wPsE9BuD7gsEF1wQYXHCMqrUqi/vzIu6DxPpyooJdURRfYMmG4DQdUHFDG0S84IYJMQvXlnrd6WXvvVBj3rEKL7aJc2xbbroufmVtWGv53oxw4UUoShtvWdyY0Q68ERhLZ0WAVxEdx60P65sE7PLeuoC9vknA/pRp/mOmZd769GLnyzT/WZifl45RcBfJZcbEapTi6dFUVj5hoWys7346045c8cuTeT7u9ryd7DwIGHm46bAd5/vrLBC86+Ovmbbz4NZilmHa/3tpbzOOC94oQ4yjrbj5QrzANx4WLAh/WFphIR7LjAc1tSPOtsODcxQPwxCtsCLjbRL6WCBhfhBBhbKmXpzPI8NR3tfeI1wY4CMMizaOk0NElvULzocMi3b42AdF3sDxwb6YhzQD+i/Y14Su8Kp+xxMiVtx6AjDXBDxkoE/DWDony1AfajQJeOf7xa7HL4UB33+ez3f40EOI4qEHlmM8fMXjCRbujvuIt17vMjsF4V0XgwLBig0fdb+y+P7s78QuC7zznWi5N6DOriUccCxwjNBGPKjjOoBrAs5HTOMh3hkEqUzj/KAVtt5BwPHAueZFBbuiKB2B9VwExCyGU8bNOaQ1y5v4AlQsOtYLiHZcDMss3IG9HihJZ9FMy3K/BBrT7gXfzodYRV32MqR6vSYPIvYygOu9SbVajTJpWPPgwuEMNY03CLC4eGmUdxOAVLT/NXObySyXG42bZJmzWBIWA2tRIwHJdxM6cxYqM/JwAXcPLLPzh3nZHCyZ7rYaGZzwt3U+QrNcH17/5ovTNM03LLGCmrJWQgkzjXMF50ydP3lBoy57Gp368LYC04sLsFxB3Dv/2tcH9nxz2pu8efhrzzvLWCCK2BqnRJTPbT6v57mtuCnHRuK0ZnQtP+isEREpJfhPaw0mdf7nl4tlOEWNxQ6WTpPg0lOpluWYoHOn88DqnNJwn8A6zoAtqCc8ENXF8rQ8fIg7CX+i06WcA26bmik8EH7w98ZDjlwTQlq4vUCUoD0AxxvnTqXmH+Pasa4H+xd78RPm8H9HXV7w8IbvPwisA7GLeovynWD4eb4meB402rd64ZBrArc1xw+ffsYWPGzhAdZLp33AdwTxKtcF/gzzthTnPB6UvcfJBtdjMygRzn88RICBjmUPheG7DpccWNtxf0Bbi/w7heX9itxavqaukYcd4PyelwacS3iggWUfHWdNkusCX5O8qGBXFCWQscyodKD0u7CHhm/sqWTKncENOkPRaFR8ye16YUmDiLL9BruBix5cbbzuOni4wE0KFn1z88Y0hLxtjfHD5OMGBQsurDAQKCNcp5E4JgHz2QlvGbO+/emdtuf9aMnn/YPPPm46YnE2y91PJETBiI2go21zmUkAVvHpQp6PZd7puMVCEvWNZ53BPeR1MW/Hr6yZNp22RlOjvvkAbzcg0nGDxo0JAtDgt76Z9puXZXzO2PvcWO5+epcBfL/ooAaXDvgSw5qOZThP0DaIUAheu229grog8iDu4AsPVxJ84hyCldYkuOPA2gkxiE6cEIFwJ0GCCwv8qnHumXM4DBCl2B/4m0PoIjIOPiGM8ZDUr1uMIY1Oo7Uii6v+rwloH/bPgP3HGwC4nNj14jvC/nv7FwSBY4WHAUSUscH3imsC3EHM8cTDGoS8+c13wuTj4Qf++Tg3cH3o94FlucH+FfgY4E1Ap32DmA5y78BDCazzEJG4JuDhEtcCXBeca0J3lxr4e3Nr5JrQCRxL1I/fHvz9MbDQIOA+0u379IL1U3xvQEdouNSMZ5vXBLQN9xO42eBe0C+oC/cp7KMz+umMvJHEOYnjaRIeDjCwkhcV7IqiBMMXLfifw5/b7zVdWHDBsy+iEOVwOZGhmktFuZjNFAriO98LqBP1wErjBdZeuPZMF6dF1GNdPCh0w7z2xM0MN+WpmSkpiwtrtxtUr8BFx/aR7wfcSPAQZB9fG7npVCt8Y/T3KcaNG1ZxhJ6Em8HUzHmxnuHz/PQ5eV0Ma53x8e4Eto9tdGqHeT2PcwGvn3F8O60bFtxMIXIN+L7gm9vN+gfRNcLbx6tutAGtgIUXbRN3lAVEEgovEoFzQ66KWw0EI+YhxiFaEN5zjEUA/Lt7BeedvOEIAb4nbNdvO1iOfZrlBwmImn7B8cqmjGDrvx64uNjfP9qGTqH4TvDQgfbC99p0NA0L6kQZP6s5jgseDPAghbqxbhifZG6KgLIIcTnN3zHKLss1gc8h1I8Hvn7BMTThCv1Am7GO/duxkWsCJ/TxwG8C/ttyTeDP8zO4JpwXY0u4a4ITWcwP444ygodk3l8nItHg1wS7TxWuCRDJ3a4Jjn86P9Dx9dS0AZZuPJThWKB8L8YkgGPjXOOnRKDj3oJjCkGO++ma0TWhHwI0SoyiKG3s+T/+H5TOtT7h4+ICi3huLEfDfGEDxgKNm5bBe6n1XnztOZMlN4LpKb5Zp1ss8X5lsS6s8BDe2K5Zp3XNZt0A/udofybV7LRm1+3ZjDxE4MKMZLLwif3Fxdd+qPAUba3X8wm8+bBe5bI5Ee3jblQcg10OtNXNf6QOLpsbbUa9MWuZT9wocFMwNxssx01NfM25TjwsIA8CKsUPObLf9rZ4GscPN3i8MsbNMBVPNdZpa5eFlSU3LQzVLb7jfCwxaIrdkRCr2uXteoG3br4dijgWf3MG+ZiH5RqWWrPcD1M1rIgQRlEWYtge2oWIOrBIe7dv8C6HSMaxQV0Qf3C5MeugbixHm7CsQ5UN/PIh/p32uAs6gGwIXXT29PMtr9RLvJ98DvCKeCgxIRIdehedOCfQ+RId9JyQicYCDVcZd/tdqrV9gu1VcUxnynkR2LYl3sboRKyL7Q7zdwhxhe07ef51g0q9LO23z78GvLJ3/SIfVwxZj4cKW6BiuxUW2M1Y/cFezl5t2zLLmZjHOex0TE3Q+ndfSxn+7iGs8TAM8aysHHANxP0AbjolFvI/P3eW3sy/xQ8anR9UcX7gPgXhD3c33Kvg/y7nJefjeovrL66F5jrhhzdKjAp2RVHa2Osj2AGsIdMz0yIscQHBhQnuMraAFUsEC2oMsgS81yMzKxacep2GWBzhGgQLufEthyiG8LFDOGIdDMKEZciDv69YPGIxEaMihtx1DfMLc9I+uGFAZNr53gulPYv9gkUenbKSruW+xm2qcZvhIoR9t/Fu164bU3a+Nw+vrdFZFPvkuOs4eQa/smgfXFwW+B8ensQS1mFgpmKZjxmLN7iAGFAWN41sKiM3IxwnvIa196utHWYBbxsCtMo3Iry+hTC0tws8RaUutBmWb9ykAOb5rzwkGEw5u3xQ3QjTJ5FfXAsp8mBJwzwertC+TtjVoi2LfG6jRUbweTbbgmkTRC+EOsQpyi0szjvCmvNQp+OT7bh+2PsRWLf7aQNrsGNl5hZ2KQvBDncaWIJtzEMF6kHb8BBgLNfBEjMYnDuwtGdx/vC5aPYbx0HgquWNBQvb1gcEB3vbeMszO1eTY4VrDcQx9gWYNzL2+YLBvsq8HzgHsb9oC753cSnCAFzWgTZbwXGAVTjK141OUWycc7MJ5rAMD4HO+eY8+MK1CL89HEezrdaS7fjVbUAeHlCuvmo9vffKq1sMIcrqAfed19/6Gf3o9RMivG1wPjiDu7nXBDEUOb8FfL8IOYkLQNDbD4MKdkVRutJJsANcgGDRhUBsCCXPhQfiVkIZ8nLvNcmeRV24wZp1gZ1vbtzGDx1i2d4WpiE8y1UnKgn8gwHqxSt/vN50Btrxr9vGMyv5uBjPIqIN50H0G7ebtrLup6GljW4yePPwpzXfnXBpzXN8Ks9Nn+MLfkoeXiBA4JsO9w67bjwEwO8cFnOEkLPzZoqOVRQ+1cZyZ+eDtna4C/BXji9/LxDgOA+MqDJ4ikpdaDfEtDfesr1dM2WXb2uX+wlLOAQTYlsbkIft4IYKseN9sLJp2z/30+DNt0H9EKU4/+EfDtGJUJoQrQBuIhDZEOpG3NkE1e3NwvmPjqOOAGZ516Usznt8r3gAk1jofDxg5Yc/N9xNcDyxrCUmeYts7A2UxTbRwRVt9D4omKohuHGeeL9Pe9uYkmvCPPpb4JrgLPeCc0/80BfgI936oAqwv3g4ARBNqAiDPmG/8XAlVvWA44j1bOw5PKzimoNNQrxjn+z81pLtdKobDyLXvPtaWr/umpaHEmX1gt/mSz87ScfPvCTnBYwf+L3DgITveYavAeZ6h/Na/PP53DNvOruhgl1RlK4ECXYBF6PCDEVjUb75tVoPgT3nyWq9T3I9b557S8rDmg1hbQZhwnUJK+OGC8szLlqeqlq2izLSWY3vgLi4yQXOzTZr2eXb2tw628gPVdb9BDIdsqyzrjffnXBpzWsK9jEW3HjVah5GDLDwQBxhXVjQYfUEpiyiEpTLRRH7sPJ0euiyZ2XSXYC/uPFAoF65Zp3j0oO485bIsGtyysqkbBvWfdM5Fdu0t9uY4nY2l2PasvxzkpuhuMK0dqhrTjl498nGm9Ve1p2wwE0Xlmk8HNlWc9uqDWsyOqzC6mqOvZeAZrW1Q1xcYs6AMHJyhygLIYEHCsxDEMKVA9F5DBDv2BfTqXZQwS6f/J0gprqMgOrWK3Sp2ivYnfPbuSY4/sz8W8aDB//DwymAoMXxH4p0FraoBwlvPfhDRq61v4+gfUY5G++aQfmda3XwKxvjB+ZbJj8U+EZIWb28OfU2fef5p+ScRcJ37AzeFJfrq1jdqyW+ZvNDNJ+HYdGBkxRFGRhclMZGEfouIn7tuPn3Ci5qU1x2YnyCMmnHCg5rOKwTEj8cvux8N0MeLljdML70EKIi1t3l/dBLWbMuPoOm/RIwn37Y65iE/bxibEI6MaJTKB5SsLwinXedToCwnkPQQ6CYchDKeV6fV5DvD3HZjVj3gvXNpzONb7o5D59a1AxxiigyRRbwdr6d8MdMY6RavBnASI/n82+LGwrCKjbWBdw+WIjRsQ3x0qXDKx7EGKxjLFXGJ3wlwLkKNwpYpdOprJyj2He8HUIeBCRctCCuxT2J29ZRrLufYcGDq/0wFAasD+t5mhM+bbGO9sKdqZM7SL/gu0AUGoARUfu9JhTKjv82rOAQ6/jEG6BkLCUindeSB80wxwRtgkVd3rZ0+D4uNOh8eOsvb1WxfhFz5fha+vTWT/F1MdW4JuD8xDSEOwwVEsGrB7HuxxAqBuZTURQlLIjCAv/1mWJBLO6hbtJ8rcFgTBD6o9lREY0i0Plih0g0uMjhwobXhrBknps6J4LNCB18+iUQNN9LAn7L/RIwn8B32qzsSUZvti5u/pM5rORJsNIk+NjjZl+fdWKez7KwG+WbgmN5xI2hWQcu7/DlHx+dkFe2sPzAqoe6/RL/aZR16gHNefhnXnXFe8SSOgT/7eGouIk0aK4qH6gPCSHTAIb7z/FDBzrrFVkIz8O3wd327ALXw5+57LgIN4RXq9admOLohIiOk/CDR8dQb7vbU2PT7SnkP5zTeBBCp9T/P3t/AnfHUd754s+775sWL3i3JRvLNhBsCJZJQmBYLLPegJLMJGOSuZjM/eT+7WTIZ4bBk8klZMi9yU3s/2QyQcyf4JlJQgQEkmBrMCE4BAvCYgi2BbbkBZuALUt69337P9+nus6p06e7z/Iera6v1G8v1V1dXd2n6ldPP1U93D9q/TN4u4BwnNU0aVSWn3Mq5pf0etbXGTljxhoxvjEVTpDeFk4h3rWnTJiy6n/VsYWTq+fJx76qt2LpfdNT/fBM0FCgccNQlvWUCaQLlwJ8xGlg8KYCf3fiIr3kA2UCzy5hjFBib9NOc3BHe+kVL7d55PSGTviv+5GftPoLKBNwScStkmeVZYZyrCgna5DW59HCHolENgQV6ejwiHUyZSzw5449Z3NfcGlpowJGBdfsjAnyCZ04Zmyk0o0CyzidWangsbzT6RNr8ubRzTIxOVEqtE41kDNYQfHb51r9Ni9z/HJ64vX+sclj1h/A3H+UdGHOfn6eNSHmOC/D9JFXfjuEc/y9sVKyz9w8Y9G7jpF5hMfy0SQs+SyHE3H5c2I1Nzec1D5MgNWf8d0RsuyHmOX6/QdL3Ed+psy9Busv/tf+2eBZYQQO10HSffioUmwePxgXmvHo8U33fvr2XOvpGS2HNGFpJ+1jw1tsQnByvYjLeqzARSwsztrY7BvFBDF5rAK6r3dQ01bZ56DVcM94y+A/VDQ+fcTmdDwFL9CtYaOCnIlGJmPOh/7bPN8MH4lbix8qk3tPQ471U7VMAIwMDM+Yl0au88Xbr4ti/QwCo9Nbr7/J+kvwFnDr6FabKM/o54FrWmUDvDGiYI9EIi0BtxXGQ6cTIqO/hBUVwoXKiwKNMd3DMXIr0MoYV5gxjQcLO+KIIQkp7JhOVUijVdCI9jpwHQPdV0mxFmN9Ib8QOo1Avrqv0a6YtT0PL3C9xbYRwYs1Hes8r3XzQGzhopOHfb1WxS0TjQXeBCDYub+kBRFOmOsoqY0Anazjpgo0XEygkTRvFO4FI58AYj08N51cEeWIdTo3kqfeBcbuq4pPOl/ydceNwPXTMtjIdXMd+LIjjPEtJ50bEQyNwvNJPpEffD0yLBPIL/KPTrt84CndcdnD9ds+pL2TNznLJtzxQXd5dGpCIw7LKg3ULC49b5v99iNnFltHNsuLLtphLk6U5xigMEQMaRkXjtTVDFGwRyKRltKnYnxocEgrrOSDGlrhMrrKltHN9noQS7sGJHvnQCWt8SDuqdTwc2/EWomIwvIZCoTjie9YlP4ok0mtlN5CpDLqDcIPMYIQ5tpYdq4sAXpsLbmG5bzW11sRaYgjrOuNVhpYwWmEYU3PA/FUdH7C040RfJMZ/gxRzhsY7hVxMGeiEcMXD7mPXvQwhGVdblcbwN4GzE7oc9yXK7rZxw/x53ytkwaGijSEZdGzWpBNFZAnzme7OchDOoEy2gojqRw/oV77gsinARXtNB78fUagjwxukoVlZ2lnexVsSibe5fR0atnSNyqDvcMyOrCpwhof7GoThOtuyMegTAgC2RROwMxPULQeTvwhjo52VybgwpOOmz4FF51ziVuJnHG8+NKrze0MV7/J2UkzULR3dLjnYwNEwR6JRDKgemzkn6u2fdXd09UtIyry+BgSn0K3fVRsIb4ZNx23GIQXFXetCaHnBW31pOdMTYg7PlZBJ0Bcc7KPa+2EoN00ssmEe7hd/yTXXp7Yh7cINF7oUIkVjuNZD11ibH/9Z3FscMIqid87FQb5mbVP3sT+Y8ObTGBlhTPhOtKtjbKsMCbEIsPs0XHTXxvxInIRcrxNQbjjJqFB9raCBgIWVSzyWGc5hnMw5F8YdysnZyGfMtcMXFqy9rGGjwpP28dGMdEEKzQ+bCzyGvmrV5+5PZxgXdbs+qvC6/zH7wCXFAQj65w3b6r1L+sYP/m/ef/8frjh9KvQpjG0pmWCHaVlwmAflnP8fSf1vru3CrUmjmsrGCEGKHX8/u5DNQv6O1i15yyMK2sKj61nPZy8KOO55cNdvKEKQbRfdv52fU7qN0BETi+or1508ZXm1jmsdZ7/TW+UKNgjkUgVjCiSafFqAO+Tzmf9cZHxYG3Hco6YpvNpq/FfIg2/mHoqQeFNY4LGC5+lRhjiUoPQY3x0OiYdmThik+8LsNF7gbWWIcUYMrPVIK4ZCaHq7UAA4gVRToPEV15cE40ArptGDO4wiEs6GiI2ETTmL+72tr/kFc/m8QAXHSzkzo+6+lpIL+E0MrCih5UwjREsakV50Ag0CPozPjJUL6SVsdu9z/hGIb5WvLGi4YZPOiPBEJ8H3162Y2nH177V2Hj9fYzuc/LLBJ6tcze/IFmLnKlcctZFWpbwZrJ1ZW7rS+9IJHLaw+eY6SC6UaicNo9sMusx1gat8W07YgfRzvzoxNGWujlwBoQh4sLGv/WuOTkgZhmxZmJaRYSNuHL8IV2TKs79hGBlFBIstogXhrfEdQVXF4QNHZgQ9c2Ld/cBqrS1b6MQJ774uK7UcrlgeD3uN+lnQvymBRT5QCc83jrgaoI1G4s3Vniw422ptSDWsZAj1kMh7qHTLhZgPnqS7gRKWhHxNDZagT27+nto5l7xhsB9wMX1iaAhwRCLpJ0Op0sqXJt5foiHdBHHRqFMGB4Yq0gnkO+uIdSuv4ljLe+zwj3mXPyeeNNTlA9cL28CmMqNxtYwNrS55b/DyKkHH+07f8t5yVpriII9EolUsbqy0jrLgFbEdEZlmKsjKs59J0JABCBMaRzU22EzDyp4RDdf/fQuNFs3bbXt4TlDrAJXke595WlY4K6DAAsJJdxGX27OL8ybtZnzMW0Z3WLpeG78OenUdCMOWec6EDeMOU0HpuH+IRMPCPyZ2WnLu7x0+WU/H+jrt7zxFvb0NRQdC1XbNH028s/ctBt9RuP1Qjc8DkrHajj+8ByDCEf4+i/Tekr7anz4vbO/jRiTCBzCiYf8SZ+nEcJjEdy8IUh3LgXOg9WXfgb4gTN+PA0Nxof3z4hZw5MGRRbEwZQm/Yz5c01MHymMLwtEKGJ6UZ9fGn6k1UatGdqi1zVqQnig13VKxq8dodyIIG5v1wYfz1sqf5qFeEgTb0wQ56G1nbcCfCiKfKbBthHIY8b0pzHFGxvOu2l4q20PzxnCfSANNN5I4+LyvDWYW9WAOGvT2clSczz5lSm54u7stJc4OCv//mCy3CytiON5zgVbst+k5JUJtZ6xKNgjkUgVWHiHBwu+dNoEPT09NkTjwuKiHJs4ZsKVQotRTnCdWVhaNF/TZkBoT07xMZ0h66yKG86UCm+EOoIc95xQalQsayXOOvORwWEVNn02NOWCps+2215unl4O1z2hqAm3G1pGM1qOHyXH4tD9Eee8PmWccjo70mDCYk04eeT2Q7wzgs6oWd4Rvgy3SEdS3Ykd3H46QThnCELO4a8V/L5u3W03S/LslPUBIO/MKrnmRuhZVRGDrzrhTAsqXjmGToPkezmu7LiZaEi5jzqNWHrCMLevm/dpI4Axzf16GN6t4su5elQe68M96XUo75fkg14XwtC+QJi6bwh5LNOIShpYDO+Iaw+jntAZNXzbkXfPEYXHJg9bXCFsR0h6uB7OxdH9KqxpANUD53e+3ysmyHkDQOMmTI/HnrOuXk2/G24R0Z43gkkaRmlh7Hwv+luF73iKMEe4kx4aarhFObG80LRoJy6ENunmrQ3WcvKKvF/W/C56I+TzjzkjAnG/j05qmbA0b9sbgScknHiGmmdV/vaRVfmpy4s/bX/fozUEfR20Io7nO5TpaShXD48/a28nQ9iOUcWT9WYnCvZIJFKFfT45o9LfKFSANAQYg50Ci/HHcZWZUdGJX7cfiYS/6Qn83IMrDe4sdGzdpHHaa/vZadk0PGYdORGbNAawXEM6rvQ64JaBYEQ4UICmLSF+P4+ta7q5trCit2W/PfnH8IjMfUdcH9ucCmF8oBF2dKzUjLDjxvX8pIHp6MQRG5+eNwAI5jYtvukM2qPiHwsxAnBeBQWpDc/NnIYAPv12JX576fwuJcwRpwyvyL1ARNLZc07jPDL+nKZxTto7Oyxfe3t7pVsbYNK2buOoE6ef8uLOmvhbue7mnR0M6ckbhHKYD0fk4cfOljDMh/t/6XX+lfd14mlaRSsWaJ530u2nBRWKuE3woSRGWaGhgoDkU/jEw8eTujSNLK+t0pjRypcIdaLjJJZuPrZEwyvs+Gn7azgNTD42xaPFeWio4sNtb5x0f79v1j9/DRxLY2OgVwVld/EoQQ73HHBuGn9ufHP3pqQeeOOWfY5ymrKnYoiTNwK4yVAmuDce2mhcnG3Kqk/j0jq26pxOn87dados5jQ4yH/ua1GnT/I2hLcWjHRDWUAjIF0mNALPb9McXZZ7pE9u2e5W77t7XK74f/00JR85uiofuWtc3v1dkU/+VbI9scabZb6073hgPV+Sf///zsp9Rxfk7YTdNSe/mxNHpDF6k2eG8sFcL7Ucp8GIK2DYYOR3P6t1INtcI5wO+NWN6bannnpK67Q1eeihh+Smm25KNkcikeczt/3//qMMjuZb09JVaLpODVfTFW5W/UsZhFUxFOw2T+28pgUfFTEFG8ID6xtuJezHWN/MB4MhDktz+1uegw/DHWd0aMQCfTiFJ1ZV9qEBwHjp4bCG/lhP0TpLTM7fe9rSS4GMtZm0IrJxVeF6sPQyZ2hMJIETinofEqGAewj5hL81lnjGvvdnoqCn4Od49hnqG7R0EE5n1oH+QROGWOehnEJHmGZcBhg7mNF+SDd+9VhxWWYv4sdqT4PBux+FFMVdFAZ+jeul8YA7RghrNE6yXFjSpIPD1dmFGXPnCX3PuW7eXCCqCAOeN1xhEJXksY1prvnufdkJ5z6ZFV1PgKjv0fzylm7EIscCzytfbR3Qe4rFnnuMrz5psI8adVdW5EUQL42BsjW+WEQSioUZ6zXp8Gny14P1PQ8ar81SS9yGcfsljiFfrYlScI85lmeS+8YXd+loSyMTqzg3g8YQh5NP6XjCdKVTOKmCn9+ah3DiYtQeGi48fzQGfJzh8enrTcf96uteV/c9ToNA/4PNw/KJV2hj4+CsXPFolzxyU7W1nf3uvXxM/lMi7Kvg2L8S+dC/GZBXJYL9k1v65LM398rFyS4144jUhDc5e/b9d/uN4hLKfeeZofz3382gTObZGhoYtu2AKyCGo0sXrpKrr77ajqesjxb2SCTSerTSsoJofs7EeBEUYCY8UxVqGl4ZIngZcQaXGipzhDTHYXVGYOPKUyueLNKVLH71CF+2I7CzLO2NQtptPHMtfIkTtxj80SmkOdewilNECudB7CGE/TkJd364rsjGikt4CNftfeMRmwheDy5B3A/ETT0gSkaHxiweRDMuAYwbT6VCpcM9pQIqGpt9o1BhOdeX1oNrA29dQrGOiEWsI2TDr0+SF1wvIg1RjX912PGUcEQ3rjIIRRPgmnb/HHINzgVmwlyOsGwj8GlcYbUnDYhm7me9nRGJj7chPC+IcL4UWo/rCA0vrj208uIvT3o2+nzXgvhdg4XGTR1lQkZDMA1uAzRcKBtwqdEDzJLOceQLzxDXVyueLNL5gVWUBgF5TmMRK34zedasWMcSfu93u+WXEeuwqUOu+e6CfOSoW22I7V3yU8mio0P+7RvLYj1Syf4f/IMcGn8sWXNkbUvDmxlcAL0A988hzyv9Yiamx62BSVlLGU/5wBtL9uWtaRor/Y/3DzUSiZw5pKs+XxdSCWOtnp2dMdcNXgMiFHF5oUMpgnVSt4edS5391+GX0vF7/HCNA/0D9iGl/j7nR4xLzMggIqun4tiiSjoM6+7qMktIuDfCmIIW/3cENaIMdxZIx1u07pdIJ1b0UGR3mbVFK3CN24Zc1EYLln0aHYAYpuDGEkth7i2+0E7M7n+JimvS4yw0KdsRkfj05gn2qjTrH86P24B1ElWxipWePHB+x24MckSnP9bXI+WYHOn8CUmHhWuI5rQI9eEIW1wdikif1q+SB9wPL7pJN64lbEd0c+9Th5pAs8kEdrHgSh+LddfFzdd7e7QinrRrY0JsTs2OmwA3K3ByTC3IFwQ7Qt99dXXErinv/iKSEZg0DnwjgZFQ/D3r1kYIacin3pRVgrjl+SGdDOXIOr8Brpvn0bZruvIbG8XnteEa9Z7xfI8Obba3BzSQuFaGcQwbJlxp3gThOkKL/CR7/ERacD+iTLCx3CkTNP3+GD9Bels48Ztphie/siCffGGXvCpZl8298ol/0yuHPurcVt7+leLGeKVLzKx8Mtl+PHn0a78rv/6/fjuZflfuOpwEKEVhFRz+mLy/tN8fyr3J5kruk9/T8Pd/rVhAN8NnHt8n//3hP5GDE4eSLdnb6oVngH4MfBOADyrhAjnO20zKhJ4+mZydkqNTx/Q3634ToT6PFvZIJFIFYidvog6tWLf920yYm4VbBQ8dSRHWiGh8yKdmps2iPKLLq6u4GNCh0x1sr71tuXKe/ocLCIIR/2pXiLXZOv7wpY52OjH3QtAvp6cwDN9x0qMrFeEIt8GBQRUCo+b/jRgqidLUvnnr+sfm/pWn387E0JlEt3lsq4l14kcMmmDUcP2jQqRfFlU48FEm6zibHKtq2vKEfUrbUue1txZJXAgl7gVCHjcCv19p/9Sx/GNOWnClQbiPaD5gvfeuQsSF+EA4M+qLTSrs+bqfj8viC+JOT+kw/VNaRtiR7qxwKjdrZAVh6Ul3rly3bc4FhLcGbEPcYTWnYyKiL8z78NhGJv1TsU5aEZL4ZHM+LOyIbSz5vgMiHS+zjs2awM3XrUHn08z9xW0p3NdPdBgm3OcZbjkcx5x17umyHqsrmZP+tWci6x8hedOsinV+X216L3u6+62R1KUielAbP7ML027ZfPdXNS005NNxQHpbecKvHPcw+jusJR9jcsNzjtkzWy9lSeTgLQqN5DTkFc8JjR7KI55/ntGQdFxp5jN8k2tDZ1ORf/uKtPtLt/ynfzMmj/ybYdn1yFT+qC4HZ+X193fIh2xfpoGUhf04oEL7Y7PXyfvf8O9s+rnNIo9962PyaK2wCh6Tu771pAxe7PZ7/8UiX7q3er977/uKzLQ3++YiH4T5Zx7bJztf8KPyhktem7utUfgt8vxgDMLa7q3quMmYwUYrBr7RkSYK9kgk0jIQlQhCBIBn2kT1aEnoDar4ZWz08GNK9cDxNALovIN7B9Tz2rwWHE88NASy8IIGd5Z6O+ilQZCE6aSiJy4aA3471+RHjwnB0o/l3UOjodErdsLKvdbPFCLJPBNaFRl5TCOJa0Bo4S6D1R0rNI2TVoE/eJb7BA2bZtxl+CiPt6xj5cWKivgK33y0mqUVXG0m7byM4uLvN/eRNGAdD5+NeqHjKHmA/zZxYUWnIcDcj/6CCwfh/do4IC/Nwq8NK/bjWITp8QTxynNC+nAT8tB4GVJRTTq4dvdcztaw8lfD8XTSdb7rrkzwwzduBI6nQZNnDSeccw9pvjKiUiNwfxrm4IL83yrOX63CNpsOuXRLspjw6NGUxX1LR8nlxaz1yXIRVXE0wlk/I7/+qtL7ALn8ovOlc+2YPMlKUVhiUf+977L8NfmepvqNLyRAeeHr5TL5vnw5tMZ/9w/lS/IK+ZmxZL1F/LWKci/Mf/6qf65lZHvmtmbAHYY+QhhkcJfxzyu/E763QVma9QxHwR6JRDYMBQ0WXcAVhsoOEFtMoYCfSny5l1Qs2ceUGgChhluM+f9NTUhXV1kEbASsGlg7EM15/rWc249qUzRmfFjM+mXix1/RvWbHBQMr4LA1bugsiy874gA3GQ/HkhaGNyRdHAf4PGKNSROeF6u3NWaSde6HffZdN1jDJImLcL+PXw7Xba7CUBOSrFVijSitcHAZAioZ3zjwVK4Vk96X0Xq8+AwhrxCgRaTjolMobzFweMG/GbGKtTSrYmwF7j5PWUdpRHm6UcB46LjBNNpYIL1cC3M+688bA4Q/opf7gDUfqz5wjdw/tiPWEbb8ThHGuNL4c+Nawmg4rYTrL5UD65rvyTPiy4TwGeYaGMGF3wdvPBqBBgFvKxg5yLv9tAI+1kW+4q6TtqJ7zDVL7wVvl7JG9chiesF1LGwEhli85oquSh9zOo6WXFzG5d0yUOog+qpXaEPs/sQFhhFetvfKv5V5eX2y73tE11MCP01VHBvl2DFZad+U7SefF8b27nPk8mRVVK6f270iR48lq7jCqMp/ZSD+W8FfP3aP3P34PrnhBa9IhHlb5rZG4TdBWU/5jChPu9fR74hBAXxdmsb9giKRSGQDUBBlCR8ssH5UEg+FFJbkwf4BEzNeiPqjaxWDnAfLNCO7YKGwbfa38th6C1T2Is4hFdWTKsZpUGR98RTRbPtpYwPB6K384bnzlhGevPak8j82eVTFQL8NOckINLgPjah4Hx10o1L4Y7G04DeOdX7LyGYVPLpV84ohA+nw6ffzE/hlrOicM9zGORizHfcI0u+PgfStK63q+fC9N9cUXfXb/RwRhgXX44S0Cy3tr+t+udYE4Xon/QtWaKy485MeXiHj14/YThMeC+E6x8CixlfLF90f3yw0MszVRkUflvXwt2FCXsO69f6EVudG4DieJQTxgPmw0xm4HBfnSE9go8roPWPuwTKN6MxqBG4EzulFeggWZv+Ww0PDgQYF9xQx79NbL+536foY0HBpBcTJ/UOM44dPQzkN94D98JdHhOX74pf54dEfJkv186qbxtzIMCHbBxL3lmQKR4sx//Zwe4f84s3lfT/xim5dZ4QYwK1mWH4xbb2vimMjPCZ3PTUnl73kZwLx7UmFYX1/w7+TX/VW9QJwhZGL/w95XbLeCM/MPiv/+Ny3k7Uyf/XY3SrM/5e88rzr5eeu+lktC9oytzUKZfKkCnKMN2lDAc87Yp3O/XQMzyMK9kgksmHMcplY0/D79kURlW/4NUu24w9u4VpIUWix7PcP5zUnO9b9Y0s4d8vhmv5j/4xJ/9icV9x8lAgLLKPb6Fb7t7iogkZFsy6adZ99KXy7u93rfDvezubIXGa3dq3YtbBelzUb55vhHInPLOHE43YrQWMGn3E7hR6LNX5KxYP5wjPUYbiz4ldNoCX3w6fP0qjr7tgOZ7VmWzJxdLKbTZZenTFSgYkn4jQNxbW6HfhHwwEBzTKNHD42VRqVI5nY2y/XmsLjbF3/MU46Y8AzZjqd/bDW0lnLri/1Tw8qTeE6Ps4ILsTcIB8mUiHpj8n6549v9J81wvQecTy+6s6PupwO8hAf657OXpvCY92/+uBDRghthpvkt0dDiZFeODcCE8sww1binuSmGQszNyBtsNm6Nhp408CzXfuDSOVrqJ6ycf0PXJmA24qHxlf6rYIX8I0K9TTuWW4d5lesDQGgk64Hazp5zm8SsQ7zS3N1NcCOTR+1Y58/qCC/9+Ny9ML3yM1nJZtKFIXVIHGFqUfYZ/GPzz0o//Vb/03u/d7nky0if3nobrnn8c+qMN8p/2LHz+jT3RZsu760rRH4fU7MTNhRGG3Sz74T61PWH4PytIiOX/mVX/kNDnjuuefk8sur2z6RSOT5x2e/eZ909+YXHukii8rZXnN3dZnLhbdeMo63fYQpwR/HHAs1r8ARvl7sh+E2T1XA6fo4DE8fCz7c/uqfrDDwSzQueB2JywodgxB2NjKKppFrwhWGSpxjKTfZ5o9lXlrW8Irt+seHW2c1zSNr5GgAwwsyL+2fLFN4mzW+b8BcZWZVePXrsf6c6Qk4FmGKULSRYpK4bNJlxBvx4RJhVnrd5kEA+vvmtzKCDcIPUYcbBhZE831OXJw4j+v0p6Jd48JyZBZ2978Uj7+mzCkIgzAMGIedtNrU3VvKfyjnmiN9bJIUE6qjg27MeE947VkUhaYP5VmgAyf5gHtGlnBjH0QyLivh6CXNQNqJA0HMOWmgcU5cYMgjxlQnPGuiYcqEC4zPz8KLbRIaVjRgSBcCFfcR4Nx5ec/bDyzVjNLiy4STDc8MZQJvp1w/HH4TjNWvZQJjv2vjm7cbPIsI+I4anR9psPT09crYQIudrk9JvCDPspgXhSWsPSZ//08zcu5lV4t7AfCYfOnRR6X/krPlHx/5powvf1++cOhLNn17Xuug+QPyhce/L+eV9s/n0pGL5dnZw/L5p7Su02fyoSMHZN8T95pYf/0l/0wem3xCvvKDr5a2NSPW4dtPPGS/+aw3WJQJuMjwppj6Js2mlbPkrLPOst+CTcn2SCQSaRqErffztBFXFAR8lbIJwC0G9xIs2KcSFKxnbTrLGhT4q2MFZxvXRYPEj8mOeGfeKAgArhvrudbvVmDjP28f3gmggN48utlcCGjYYHHPKvTTYGkNh4AMcW88OqVXhRvCnrvjp2VcfPR6/B1jjtjiAzKbRjabdZ4JvIXQxLZOjLqC9bqWCD4Z0MigQj5eaaMBg/Ua0YZYzzoPvw2s2biiIFhbBfeSfMdCbaKxjmtkHz8dTxC2fEkVfD8EZ3XPPy9WRt7Q+A6kpwrk7eaRrdZ3hjcY3gXJdfTtEhuTXf9hea9VJiC7Djz9HWuwn9k0KdbDTqdnvUwukiflMyzDdz+rR54v1591mdz8umTkmNJIM53Sufkd8v7XZbndVEOd9YvX/Eu57uyXyl88+pcmzH/MhPlPyz8eflD+8Jt7KrY1I9bh4rMvynzmKYuxvGNACft4FREt7JFIpIpGLOy+8kfAIsIR4L3dPeYLzroVVlrGzCfWaTvG/jofd6zXWLD8tnTcIelyz4fXOtaW9E9ReBiGWKYQRbT39/ZZIBZrRC5uLVTchJN+L4798fWel3lXp/Pnx1JHXFjrEPHkh1nd29tMXGMZRzyHBbuPM4wbEUBFQP7rCarOizWWeBB6Lu3le2xWRD2PWd6TbZ7wmkgj99FbQKn4llfLHWHZM9i94lgoihvCtVRQFelKtDpusTcEWR/PSa+nKQrlUOpNXEtoaCHUvQU5DYKetxCIPBprta7pZNCsGHFkH0ucS3Rm1efJd2qlHwHrQP4Rns43L4LTrgON09pr4nmh4cdvH4spINr5TfF8UVYQjvsWDY8i6HDf1tEuW4dr9Pw8nfnux+QvxhdlYcJZwP30zZVXyvVHCsL6HpK/++GEdI/q8pZN8pLLVuTLX/+Y7GOfiVW57EdukddUd1+Roz/YLw/JlfIT51UPh5gH9/QlZ71IVtdX5aotV8rbLn+LPbcXj1xUta1Z6Oz/9JF/StYcGGCmk9Fg/FvNLNIW9rannnpqndedDz/8sNx0003JbpFI5PnMr/7xb8jgaL5fa7r4ouA7NnlMNg2PWQHVqYULdibKFioyLLJ0rsTlBF9nvuiGsERgbhkrV1o+3tI8pW7SYicMTx8LPtz+6p+sMPBL6XCs6YN9A1Z445ZCowQrISO8YBmnEEVQ8zqzKO5gtfC8JmJUAGCRxEJJ51SGykQUkl+1BDsdl7CIcw7b7ue2yOgiWHqnrQMq8+H+skWYGb75uCS4kV/CmN3x3trPV1lDOC+VD7jzJvOErGsG3AMQOAigtDuOJ5WMCtIVaXrX1bVl87HP7KCqEXMvVzS/ce1BfIUUnFbzYMGEG0KtSFgyVCF5nm4wsMi9Drc5iq2zG4Hz5YF1OAvuD1ZjRHXem4GiePkoFCPkkM807IBnGQHPb5/7Th5QHuBbv7a2br813JegKG4I053eM31sUXjtY8vrWNN5q0H6cX/ht8q3B/Bln5qbtGeSRgkNX6iKO/m30LYiP37VT8jmweeDa8zzFxpnn7z/r2VFnxeY1kYrZQJjrqd//zx34bbLFq6Sq666yowpZsRJtkcikUiJWhVlGvNHVyE+t+CGjUORUPBQqSHUR4fdOOwIXkQuLiFsK7IunAqYNV2vDSHBl1r9By8Q67jK0CBp5TWQZ1jsEb+Mz4tYotFAvlm+FoDoQVilK4EQ8p5rYtQLhAaNgxCuDYu/+wgSnRQZMpCvVE7Jsakjtg/uL2kQc+m46oG8RfCGHfpaCfFmjRqCEMVFhTcKPKP1nh+xyXH8PIrGbydOvuCJoMtyk8GXHeGHkD0VcQ27Sbv3WLvDr6LWC88Dz6QNJan5RB4wcc342ruRerrsGaAjNB1f6eC5ccv68cVcdrSxRplAJ2jEOQ0PxDq/De59rTIBUd+ht/7Lj+63RnDkzIU3s9tfcKnVFePT49Y/A4NPukygThmfOma/vTyiYI9EIhsGIYgwx5JOBexB4HqhSQGFWDRrtC5jqU0XWq1kIzH7Y6l4STNuMQwliQWadGMdmZzGmj2swmsqV8xsJA0Mp4hoZ+QaGjt0fuVjG3m+87MMoZmyJGedH0HE1yfp6LQU3CsPIgorPR9Dcv7RKq7oSKnbvStAGoR+ox+QAT9euP/iZxG4HtQzbJ7HrFX8Sz1jxEEDhHG2mYiXMcmLIC7EPcKVfX2607j9Zmz0FizL3v0jjU8X/7Lgi6UIXdJ2MkCs09Dwvtrpty31gEUdYb6i1xJeB407L8rJA95++D4GuA8dzzKhFVAmINp55kcGRu0+kW4s7HzpF9HO85VXJni62jpleXFRvvjd+6NoP8O5+qIXWmOfUWKyOpeCuUAmUx5RsEcikSoarTS9zynCnS+Y0lkTS1MaKjEEPR89ml9YMEt7mrwz++3M65kga3s9E3/S2yhQcSVhzogR5laiYp3x282FJbU/E2Rtr2cCP8dKw/lGVEgzoiPCYHpm0sQn1mIEIvtYoa/7p+NIT7iBeF/1vIm4aDQwig0j/bCuJ8vdl5FjlhNBzbZ64DmjUeDdJfJA8GHtJZ+x2qbP76cQRBCCMYQvnSKusO7icoQwRYAXPe+cm06lNJryOpW653re4sNXG6GbFydbiceloXIf4sH6znXipuMs+s1b4i1NsxM2Wf+IOiAN3Hd/T0x4ajqL8igLhC3lAR+44jm1ITlzygSs8eQd1117iMlTB/LE32sadCz7xiDXUgS/1N62brPMf+6hv5WjM+NJSORMg7emN73stfabyIMO/aNDY4W/s3b7MUYikUgARUbRlMVA/4AVSAgqeO7IYZmanixNWKSnVcgz1BsfPRoZZDzsSoHp405vC7fXi9+XMg7Lf03Rk3Wy0np5BYGJVZBOtViGZ+f53D0dUzU8NVnhyxQcXzUF+2dNYQ4hMhGhI4Nj5j7AKBx0Hu1UMdnPB6rSx+dgYnB9VY/T+7W2QtTVxwaT/jWrsrm9ZIQzMVIJY8s7XLpb9Y+vWOLXTL67EWr0nEypNJDffuIDUbx+djG0lQQUgtCNlz5pbw7MXaMcY2nCz5jh+2h4ktd+OEKbkn+6i8WLoOfejPjP7Rf8A/5mPfu4QPV08QXWIY2HvhF8unzUGoiVe2ZN1SDSGceeiYZHViPaUY6H6wibZaxznc3AqDhWJug9I7ZjU89ZvpNfTM7txgl5Gk55DaJW48sEGrutgDdPlAtOrA+YeM97CxPCE9AndG5fkL97+O/kO//0fBg95vnJ2WNnyU9ec4MZVvIoevZ5ZqOFPRKJVLGwUJ81Lg3+z5tGxrSy6pHNY5tlBGGeTCbSdcJ1pplK2R/BvJ6JCpmGAp/+X15akrm5WW00TJj4y9q/kYnRXXBVoaLFwo6iydoPsrY3MkHWdgQf47LjntNjIjF7v6yJ/XGHseEd9Rqy9gknwG0BS2lWOBPpGezVBszCjK23Gp4Z3s4UvRnw0DjDL9o/Z1jVmfjgEAIR6zsWbhouaagYcX1xX1PF9aF6uEoEpvsY0aRed7vFVWtkkHqwMcg1nz2cg3MzNWNcQ/QjjLlm0re4VJ/bEtcU+tJa/5NSY6wxcAsa1gYD1zUyuNlchbBEM5FvzH3n0+MNZYI1EjRf7a2NCmv6EoQuO81CwwQXGRpdzsWrvvvFMI/90sNDJQ8+9ZDc/c198vjhJyytkTOLczedLW982Wvl/C0vSLY0RhTskUikCkZsoJNMU2jFi2APRzQ50eBnPqsCnY6huN3wdVU/9jk+4FSqGwWBgQ+7vfrHCnkaQdrxY+dLpvUKAxOO+q9IODJkJHnRivwN4ZxMCGXv/1yUDhoWpVE6dD9GsWGOcEUc5llyvfsL9xQhGd5Xcz1SIY97CXMEMJZrBGnLxGYqGj6AxDVjdW1mbHIaG1wHDQ8+7MQITln4Trg2nrjmE29L2N9DOmhMNGv9JX/IJz/058mABhuj9mDJx9/c8iZxTaLhzag/G4XrxIed58feTNQJvyvcY7rXO2VRy6evP/Z1+cuv/ZV88cDfy6FnHpPD04ftS79RxJ/+DPYOyKuvuSFZa4y2733ve+u0pOOwjpFIxPOrH/mPsq51K4K3HkLB4pdK84IwqHUsHyzyHVT5rD9DEeIb68M9pSUVHLjfYGWlw6uNfEJHH93B7zM+NS5jw2V/QfsbhENFmP7NCgNb0j9F4UVhtY6tmLf4WKzskzPjsnXs7FKeesp7OzgewYC4oTNsSBg3zKhARhAh4CErXZ70sdXhGp+KaLM86zJvB2hosB8ibCxjLGv8wHF9weqPAEWIe5cWT3hanhUs6oyyE1p7iR/xj2h27ki9Ksaa64RZhqHbkkUFEUyfAsClaHig0o+VcPzYcbcpFoHVDRgX97Klm98QPvwI+DT4USNe/e+MvELAI2bBBiLUfMTiT2MnhO1FcGwR4fHpPfPixtpvrneaTezTr89jOm8q4tVlrpE518c9Dt9ksCcduv2QqOnzpq+hOrxMURhUxZXMgWP5t7iujSP9t9aW2jcdWYrw3Old08dWhSdbeN4n9fe7ZWSr5QUUXRMdpPlYG/cgk2TnKf0NUyYwPG5IOj9Ciq6XBoxvAPJBOww0wDCum0c2V8XKyFi8+fD3F/c+jvfXmGbNRgGascaX/54Ix7mRj5x7GQ16/NMZejeMp+iaPH3r+W/kMJaRvqvXrysN62j9QZLwSCQSKUHRUylR8wn38suleRCYDoNa4Yh1xNSINhyGB4e0Qh3SitWNwBAWkOGxiEoKUL4gx8guVCa8+g7jxdp+bOqY7Wvb9U8YXlmIb0yshzRzbGm+gWNDbJv+YW4+zirgEKQh6eN83FRe7Bv2BwjPC6wxwsxkYq1Nh4dkHRvig9nPOpF29sjE9LhLr4bl+QljhEIEYxWGtBXcL5I+OuxOaaMFyz3xmn+1Cn6s8VTKiAws6QjdtOhvBv80kYe41PDxIFxzGAKyt6vXrMAen76+btxyalXX1ekiLizlnIuPc/FWhcYLwt3fQwQaIor4EQVs57nwbzKgqCyoXU5sJL8qj0UG0aih78aA3o/+PqZB8x1nG+FZE2Ngd2hDy4aT1Hs5r43OWc0bHw59vQMyrs8B+4bHZk8YD7K2MxWF6aR/8iZjvU16pEv69G/verd0rndK+1q7tK1X338OqX+q8U93YlrQRjydZikbS2nLjM9N7fpcrejvzVyoMnbwi4hlvuxZdZ/0T+4U7peaRJ9XnoWurm4Zn5pI7tu69Ki4tnAl3J80Mib6ioph1nkDnPVb5jdHvyDKGb4bQpnAkL5TM/S94I0kQxX3a300IoNaj3RqY4ECJTxXs5CH5BHXFf7+PNHCHolEqnj3H/yabDl7S8mCUYuw3LNF/eM3VQil1Byqw50EoOBkyEREN8t0FOzo7DALx8qK+xBTVtwLKvIR7IgPRqxhHwpevqjq9yE+LBiUfQxvaNv1Tzk2XU7i9n+zwsCW9E9ReFFYrWP93IlURm5JhsRL/pT3Jri85pdK84zzIk77VZDiDpAeWrG8t8Mf70TttDai3IeSIIwbWCNuXKvoLBpa7/Pi9VSHO3GLsMQyajW5bdd7kjrWQxqxFq+trdg95n5bxL421WUOZRNClTxt12cEUct6UdyQH1IPmghND2Idf+7wPJa8ZJVrmEO8674ITbMI+/RnUh2Iq4s1YFWsrqwlHyzTbcSHaMc6ipUQ4evTQcOI4/D399vIQ6zrHEejLcTJrzLpVFjeFxCGVx2b2oLYozGF5Z/jaFBx73gTwrNmz0dCGC/X5L5RoGWCPkdcF9ftrezsyf64HXGtYTxQla4gbgjXqsNS6w0dW0k6Lq6fLb5MCI+vOrZW3MkG3Mfo3G1lgs6h1j3mGWPELEY5SRPuS3lOg3HT8ObSs5VOV0h+iHsmF5bnrUHt46j4LaUOJq+wvjvXLsoEjBR+f92ZY/Ug4rAyQcsDnhmed56Voriryd8hL4RrQKzjtsn5IPxwEmVoFOyRSKSKW/e8T8a2bk7WahOUZa4I1D9+U1jQlbYlc6gOd+IYX3PC7EM+s9NaMPfaq09Ky9l5hlBLfT0ymeMDyval5WXp1v3tdSYB+oc5rxuxrlPJbRrZZPuG4R4ft/+bFQa2pH/8FgpeKgb8uFlmO7v7cI7FosqrVIZCDI+1ecV53ZwymoqU43DxMetQEuj3g6p0hfOMNM+q8MZaxCgkWIxCyns7wuOx+lKR+XHGwzBgjQoSKzWVG3H7SqgoXqgOd3NfKYfuKOlj0xSF1ji0MO4ah9bADQHJ8xe6ZQAiCYtheG6um9FqbKz4QqFQHcix7murq6ISxYTt2FC1C1H6SIT9/NKcS4cGIuAZsSarAX8iBfuC5g/QP4FhPvkd0BghjrlF10nYE8brhrRsN7HIc8ubmTAc6+zE9DETRf4rqyFV6UpdU7hWHab/dBtpoNM0v2UjucV+b54Hfk907vZUnTfYQjy4rnCPEK3kRXjuqmML0gw+mLcVCHbyFxchqOcesz8ucL7viCfclzIBYc82L0zT6QrJD3H4t0RZv9WCaBOKdygK3UjceSE22peVqeX7nxbstd6xRSKR5yFYFihc6yiZakKh2kwHVqwgFFRpGEYxLNTSYElHMA8NDJpY91AxUMnhl4jVPituT5EgC8P8MnMnqqdkamZCC+V1q5A2DY+Zr/zY0JhZn/wcdx1EEb70WKvJozCucBnW9V7gtoAvPhaidDhkLYfb0hCGVZ3zO2tTmfRx6XUEAhUMeZq3LwIESxUdc7G2O8tt5fNU6zysezHAON4IV3yrsZKeznAPEZohXCeiLrOhkMq3ekCkT0wftbzqVBGI4LffQCJyiuD5RXjRDwCfdd4E8HshzvQ9bAYaAFa+NAjnZ4x4I8gmOgGnGz8hNsLRinuLFLpR+fxgGEbeGGWNGrQRiBsBTGdeQADz+7dpsHJCJPNWCFcMXyYUQf7xJpHrwcLdKtwHoPiORu3nJMSJ/NnC58PKBL1/fE8CFxM+RNfM88Qx05pHlLfkL5bpVnQaPplwD2u90Y6CPRKJVDG3MC/z8/NaeWihqstFhPKCTox0/lldcRUIx07PzljBPKNzCPcP7dZ+yc8ZrxbhDVjTEeoTk+7jIiULc0J4LI0DxCSVu4eK8Nmjz5qlfnl52Sw7WKrtK6VJxVR5fpeyrIk/peVkzvkQpYwAQGXMcIveEuz3DffnY0SIdgQ96WB8ehoSofmlYn/NCyYaBezvt/u5Wy6nGdLh6QlII1Z+3kakwyrXK/OD40yIz05WhUG4zodzGO6uXdfIIzp3MkZ61r6QXsd1A8E13D8sQzbCh/v8OyK+CH98M2zk2HpAlFdaS3Ezcq4IabCKp8V9LRB7uI6MDG7S53GzCRzykXi4B3likP0Q+Fjlvb8+56eRxPG8NfIfdqoXrNrE50UlxzKsIm8ZcLNpBNLPbxn6ewZMqNNpGooEO+KTBmPYSOC6jkw8a+KYNPIU93X32fXVEsv1QNrIa+4p300IOzNngZjFBYXyA0MDb9QoE/IELeKO/AjLhFZAGrH0N9oo5jg+7kbn3VrYmwy9To7hk/yIb39f64E+SdQBGEVoBNEAwE2SeE5XKFPDe53VoI2CPRKJVLGmlSuVFqPEZH0K3wsqX/0wR3RSKWMF5pjJKTfm+ShDK6rgxl/W7U/V6P6Fa37JbUOUa+WsxyOoKczGhkZkbGRMBVs/yqK0nzsimesfOpluGdtsYv/Y5FGzWGEx2jKKT363bB7dbKPI8FEdCnoaFOtrxBemI4nMT6nF0rqKLl5LY/XDQmdWe00br76xIDHu+4ROz008p/tNlaY5rcwtT/W6SAeVF6OfWIfKVazt7gQ2132o2KiUEfnmy6jrtj3Zz+0LfjmZJ/tlTfwjCYh1/NjxD9aAiuPL61C5jU6S+DTj9hJuzzuWfRmPmyEDuTcIEirYUBy5fQM0TYgt53rj4qOxhVhDxM+quCqfqXICrj93KvhHDOn4WjcxSkm/CWCynPzjmR3sH9WGXPlDT/xD0xNm/uSs1wHP1awKRfy8eVaANyK8NRvQxg7bOadrDPtUORDRdFJlH96OIBoQ68AylnEs7nSUzROSIZzHWQ4RgAv6W3NjntPown0lS5QUgUjleEQq95B0IoZDP+YsyGtcXTh2fPqoiXwss2PDmy3O0aFNNooJeUTa6rFw50E6zH3N3i5pmaBCnG1YgNmOoGV6buKwlgW6nExY+f05EeJY3TFaTGha8/IJtzrrg6N50Sp8WomXfG4E8o+PyJG39UD6edtJ2cY5Kf8Q8EXnJX0YZULXG66fspEygTw+HcE1ESME10ceuI+lVRIFeyQSqWJYxTEFIBZpE4jJ9jwoZJg4hte0gwODNhJLOCwk4Y2CBYVRYUgHjQB66fshG/OgMyr7YIXBUkU6urURgX+gWQY1GVQSvL6loGfkGT9MIITzrAn8MscN6jVT8bCObzeFLcIGCzTn4QNLVjHptTBhhXJic8YaEiY+9FhEKfsjHLA2hefKIgzPW/bzrMnQe4KrDQ0NGkZhWHrfcN1PXBeCBKu53wbhPhCu29sFFWtY3e1DS5oHpCNrX1xHEC3hNg/51dXRbULndAPXC98BEhHdryI4Lbp4xp3VvbKvRi1wq6FxRPwhjKXu3ZQG+0b0ucOfeMLS4H+bCEUmfyyiE1GMiGVOY8t9zKm2dLAyQf8hpvntcR2I/XBYyGbKBEbrsVF8sNLrtTKnUcFvLg/SzT5+/HzS0K2NCBqd/m0BllqeJfIatxCe6WYgPVjVvesNcSIi+X0xIhMNeyYEJ78BpmHNW4wJlAns6wUrzzj7so3GxomAe2JlguZNM40WVyZ0WtlYLzwfDBWL4YIPwWEEyXs2aADmuUTa9z80Hxs596mCdxfiLRb13pDWE2lip9NIJFLFez7yGzI4lj8Ge1o+8Jn72bk5FegqPNigf/w+VIAUvhNTE/YVVEJ8GIXUxVsvkG1nXypbhjaZS8lgz6CJtEgkEomc2TC6Dx2GZ5dmZHz2qDx55DF55AffUfHdbQ3bNLxxYkQnhHnoVhbCmzsaQOkOsJUUNxaLQtNtCeo3jCy8JcDIwDVtHt5cesMVUnxW515JI5I3FVenxmGPgj0SiVRx23/7DzK6uXqILkiLdTP+aYF1bHLcBDkCPTQIso7/OlYRCmFiGO4dlFde8QrZcd4VUZxHIpFIpARD7h46/F35+pP7ZUbFfAgWaN78mJU9R/0ioMenJ+yNJfVPFnliv0RBMEHoZvpmIc4xQVn9pg0EhDv9I3Bj4i1rmlqCHXCjxCXpytUfqR4lJu/VQyQSeX7iPqSC8K6e9E/lOsWVFiYjQ859xb1G1W3JPzoDUbjxuhJ/7VdduVN+6TXvlJdcdHUU65FIJBKpAOv5jhe8SP75K/53+dFLX2nfR/DwVpb+UEVQL+EKyaACrQStjIsTo9LgdoNIHzUXpxHzw0dU06BAbG8Ejg9HjPEavbYjWiQSef5hQrwx8F1HtM/Nz5kPOSPE8OEiRo3Blx13l3+x8+2yc/vLzWcxEolEIpE8EOrXXvQKeeuP/LT0d7sRlKg7skaUYVtofMZIhHhuZkjhNMRN3yQaALjaMFgB1vP0MIycn380GDZiCKch4IxhlUTBHolEWoa3bCDQeY1HQYeIP3tkq/zCj/+svGDsnGTPSCQSiURqc9bwufKO635eNg9utTrGjWhVBmGO3zqWb4Q1E/7kW0e3Nt0BFcFNvLinMKISAh1LemhswiUGEc8c8D9nxC1Ab29EtGcRBXskEmk5FKpYCQb6B2Sob1B+5hVvk6Heyk/fRyKRSCRSDwM9g/LGF/2UWdoRzQh0BDEumAhrPkrHhLBmYrQZ3+mzUeFMx1bEvx5oIp3Rz6jTGK6X8yLS+Vo2I/d4P3XEOr735ltvNP6WuhZRsEcikSqcZ3r+VC8UrO94+ZvNHSYSiUQikWZBtO+65q32ETWG6ERUM+Qv696FhDmT+4LzuvmD892LesGiPqXH0oGUYTV9vMTFMKLe0s7cf+gM/3WG3mRoSk8j9WS9RMEeiUSOG6+8/OVy7ujZyVokEolEIs2De8zLLtkpfDnW+5IzUksa3GawvmM0Wsnwec9FlTauNPin8y0PPnKFywujvtDh1UO83tGqIgoAAKWDSURBVD0GMc/48xUdRZN5GtxrrFHQRIfYKNgjkchxAReYH73s2mQtEolEIpGN8+ILrpOzx86Rmflps4DPL7gvR+OWAiwjphHYWNfdl5Lrg5HM6HuF+Mathg9X4VqDxX5pOVv4I+j5QFg9sC8WeiQ9HWMbIQr2SCTSMvxrQOY/9sJXlCwQkUgkEom0AkaP+dFLXiltKsiXVFzz9duJmUnzZTfLtop4LN4T0+NaF7WZy0q94EKDZR0LPXEx2Rdnh8bsi9kz87PWIPA4V5lFG7bYQ2h4fDiRLqz2ROHdbeolCvZIJFIFxQhlSf2T8xtkhTmfN7/6/Be6yCKRSCQSaSHbz77SfNdn52dsRDJGJxvsHzIBzcgwU3O4nLQ1PCY69RcC34/8EmLjo3d1lTqeTus0ro0C0hEyv7ggHdqoaGtDYmu9GEwI+1EV/1jZo2CPRCInnYu2nG+vFlvLIbnzhhvkzkPJ6inP6ZbeSMSzT97d9m79m16ORE4NqF/OH7tQ+lRET6s4918ePTz+rI3UwgeNmGcJ71pgBcdqHlrSPXzUyY9CQwOBkWloMAB+7vinw2B/60dFi4I9Eom0DArNqZkpuXDTecmWJjh0p9yQWOr9dEPTqhexUYdo3vduefcJVyR1pi2Sy75383zk5KF/joIby/6V95lGVeU+hZyU5+REEZ/HyOnFJVu32WgudEDF7xwLONbr5eUlC8+zlNcDI74UjeEe1k8IdSzuM3Mz9g2SRlxwGiEK9kgk0hIWFhdMrDNm7Xmbzk22NogKorbtt8nV96ybdcNP99+6LdmhUW6UD63fL7UO3/fpPcnSiaS+tEWK2Cm33CKy9+5qlXno7r0avDNZywKxvl327j4o6x+6MdlWzMl5Tk4U8XmMnF6M9m+2OR1EEev0mULA49e+srpiYrpbw1huFOKk7sk7ljD/YaXZ+Vmr93BzaTc3mONDKWZOHolEIo2CFx4FFxaOseFR50/Y1LjrKqA+sEduUbFeqJ/uVlFfsm6EFsHk1b23rN5wp8ZY+TrfWWTDY52FdZfqsD27ku1mQs2wNhKvxemojisJSFOR3tC1oDJtbj0rPtKo+9GYqQp36U9bfQ/deUNy/dBMvFA7D/LjriQ7r2rFT7imr+J+ptkvsmO3yG2/o3uH7JPfue1quf32q5P1NFy7E+vlxmBRevKeE3bRvC5dW3gvauUvuHhL4ZnXGOL2b+5+15nftlxETvwV1+mmdDo3nie1roFkBMdWxQ1ZaQivO8mHqueuKF214oSi44vSnZPfuen01MqrrDRn5depy0B3dj2DcOZrp9RJWL+bFdG4veAjz+gzxEU95/3WiR/d7MdkD4d8bCVemzOPFvZIJFJFZTeZ4omCZHGBD0oM6ZrbxtdNG+bQ3bJ3/y3y1kJj5365be8OOajn5LwH71CtdnNYUe2RXTeL3EX4/bdKhbFQK6Zdco8d5yasidvk1vvX5Z5bxBoKtr0ea2tmXElYBZreA28t73ePyK6qihWoPHeJ+DQc3C17t4cVvl7Xp8vxlK9b03/7LbLnA2Gch+Tuvfvlltu5/mbjrYdacSfUnVdZFNxPz+W3yu237JFPhyfe92nZc8tbJe9O7nt3WqzXIv852Xbr/eVr0x327Ko3f8m/xMLvw3fvle2Zz4dno/d7oxTEf+OHStexrhe6c+cd8muZN6DVeRJQ97OWTsNDqd9l+rmrJ11FcdY4Pjfdte5nOp2NUnQvTn0Ge12dkwaBvml4k315lI8b+S+eNgqNmOGBEens7DTBrplkPvP4x48OjZrrC/ucKKJgj0QiG2J2btZ66Ie0vsNpGSdMHNtu2i079x+Qg8k6LhJ33JVTcW3fITv3fKA1FqQG4rolbIHc+Gtyh+yVKg8OGisaUhI4226S3TsrRWgYT8V13/hWuWV/EGfY8NlIvLWoI25jQ/lecD8DbnxrKGJV5HzgIbkjWy2ahRxL+XGBe5EsenLzN7lPtweKctutt1feyyw2eL83RF3xa/7fvFd2F9y3lueJp+5nTZ+r4PmoPkfquasrXQVx1jo+L90187u+30cRTf/+TwGK6hmE9ICK9fBjRs1APHQ0xeWmVwU6bjcnUqSHRMEeiUQ2xOraWqmX/PFnp+zYniw2yrZb5f712+XAdvf6t/mOrErdcWWld78cSNeIBw/I/v23yXaNi/ja2rbLbfuTMKPoum+Ut96yv+THbb7bd/yasy5vKN4a1Iw7oZX5nkcoYk3k7JabclSMs5DfI1fftr0lHUgrXWJ2SWVboCB/yb+dO6QyeLvs2JnxfFSwkfu9QeqI/9CdN8ve3XcVvEU5HnmS0PSzVuMcTaUrCK91fF66j/f93MjvP9IUvMlolijYI5HIhmhvL1sbNmR3aLU1MBM61iHYDsruvQ0KNirPZNFRT1zpCv2gHNifUUliYdt5R8nVx0919oWUG3+Nd9n4ceO7LbLbq9UNxltFmAcNxV1nvlflcb3cKC4LNAdcBtSwOmp6Dt4hD+2q4bNbKz373i3bb7ta7ild/z1VFvZcyL8qa2bO85GiZfe70fyuFf+hO+Xmvbvlrny1XkwzeXI8f5eeutJVEGddx2eku9H7WYumf1+nH8jioulEs7q6Ksemjpn/++LSYrK1Elx4vH981ldQo2CPRCJVOGtO8eT3AwoX+yx0ENY4iX/urqzOaq1mm1ye6o/40KOhcnPWr/LoI7hZ5PlRVMcVsidogRy68wOyZ2eG9ZfGitwmqjebwzd23v3pyvg3FG+NPGgq7jCvGsnj2tjr/D27ZNeeSteDXLbdKndV+OzWl57K50QJLKd2f5PlmiT37ANBi6Hy+cjoNOhp6n63IL8L49f0bi92halJzTw5wb9LT810OXLjrPN4R5DuwvyuRWt/X5GNwceWGLOdaWFp3vnEp2BYSPzj6ew6OTuZbC0TBXskEmkYvuQ2OT1pw1kh0BHr4aeZm4aOa9Zxr7Jx0BIBv69yFAs6eXlLlbNYbndhdjJtPJiaS7a1bZcDtwfW04K4KrlF7nnrp0v7mTU2s3MYnRrpkVqOs3qUiSKSxs6ePRU+/huLt0Ye1Bt3bl7Vir9BVIBrFuCUK/UaIOkwes/VtyWd/2qnp+o5sT4JZZeFm+V2uaNoJMkKyD9nTXXn0+dj72456J8P6zh7e45riR7b8P1uRX7nx28CVPZr9OWwxt2fauRJrWuo+3e5U+7YUc/v0lMrXVAUZ43ji34jx+33GzlR8FakfP9cR1bGbWd7CJ1jCWeOcE/T9r3vfW8dU/3DDz8sb3zjG5PNkUjk+cx77/pNGRzL7oEPjLdOJxz3oYghOXzsOTl789muwNHw977pVrdjJBJpCnzjf+fy+3MEZ6R5DsmdNzC0SiOjFdXieMQZqYf/8re/WxK+iF1PbbeX4j1SWroh0oeSPizsDP/oQ/mgE2+mGb/dgysMw0R6Llu4Snbs2GF9xKhbo4U9Eok0zFD/oH0oCbG+srJiH6tY0AKoWWeYSCRSCdb/KNYjkWIQudNzU6Uvjaat1qcqDAnJuO5heoP2RiZRsEcikUzaCv61t3fYUI4d7Z2ysLAgm0bGbLgrd1wkEolEIscfrNa4mGCZ7unulpn5mSTk1CG0/IdgXcfS7qE+5cuqi8vZnVKjYI9EIg1D8WNF0Pq6e12nBVJvd08U65FI5BQHv/BWu64cjzgj9UDnTT+iSldnty23wspOHEvLSzK3MCuzOjGyy9p69cgt9UI9iRgP4c10KM7pB8Y5l5eXrX9YmijYI5FIJBKJRCKnHd1d3ebf7UEYb0RYI9QR6Pics9ytorq3u9csVHMqonHBQUyzTyMNg/6e/ioRjuWdN9NeyNPYWF5ZksH+wcxvm0TBHolENsR6qosNLjORSCQSiRxv0qIZiztWam91bwTGQccXni+b4mpD3LisdLR3mDV8sH8ocb1xlnDcb+oV7YhzhL8NfxzgBm+YlonpcVleXTb3HrBGQor2RloIkUjk+QGFSz0Tlg3X4XShtC3q9UgkEomcCLB4h0MkInSpl7CQ487SCFjA+3p6pauzy9Z7dZkx0bHYEx/nmpiZMDcWhl1EbHNuBlyoB4Q+6Qw/nNTe1m4mrxGNb6B3wOpQzscHlPw1+Xm0sEcikQ1BoQZHJ45lfgwiEolEIpHjwejQqFnDzVikMPoKRiQs4biapP3G86Du6uzoMBeYNIhyOogS58jAiLmxINyxstswjHruqdnJuqztxIMlnwlINx9T8uk3NBpcaNJEwR6JRDYMxdTq2mpppJjWwfjGNT4fH3keEZ+HSCRSDWI57bs+0Mvww/VZvxHgg33Omo4lPbRud7S1myUcENY0CBDZhGF5x4Wms6NLj5uoS7QP9g3K3Pxcxb40LLCq4xtv/vKLla4zEAV7JBLZEHx4bWVlWUaHnO/dhjxi9r27NV81jRTzvMzngk/9Px+Iv63IGQx9qfj6tvddx4I9r6K3tnx2tPFPxTjCHKt5aPFezenEiksMnV4R1ywPDQzXJdqJmzfT4Rtp0o1LDNP62nqpgRASBXskEqmCoiqc1tZWZXpmWmZmp7UwWasIo6jEso7VwRUybmsz7Pv0nmQpcjx5fubzjfKh9efv0HvxtxU5k/FCm46giObl5aVSH6taILDXVZRjZffjons/c8R1Z3unHJk4YvHSOZQPHnmInzoR8c2ES066Y2kW+Ml7txhA+DMBPvILS9VvBqJgj0QihfAl06npKenv67NOM+NT4+a753HDUq2WfAWbk+u4OrTJLtUUe3YlnVpDc+Dd73bbbEpbSbGcZoUR57tl377wWF2v2L8tZXXMiyskL94Qdz2l8Bvu1C2eDEvvoTvlhtI+hGt8bKs6FrLOn05r3vnd9up8zjtnK/IjL+6iPILw3G1yQ3jygueBT/qXw8L7m6TDluvJw3quPe/a8o5t9LzhdRflV1G87rjW3vNI5NQDgY4/Ox04e1U4L2vd5UVwLfBdxz/dXFIU6jpAhON33tnZqdt6LW7eKvv9oK+33/ZD+BMPQryWlZ2RZ4gnC47lPGmiYI9EIrnwmg4fvdHhURPmFH6bRjbJ7NxshRWBDydNqqhfWFq0gqtx+PDIutxzi8gt92Dt0Kn0Xfb9ctveHXLQrCDrcvAOkdtuDkXfLhF/zMHdsne7ihALgz2y69NvdWE63XOLrrd9QHYcTPbXE+75QL1xhVTGe/COh2RXhRDdLnt3HyyH794r26sEaREa/80id3H8/bdq7qRJnz+dJ3nnL8rn9DlblR+QFXdRHrlzP3RHOfz+kmm86Hlwn/T3x9j93VVvmht5rkIazbfa562+7lr5BXnxHq97HomcfOg7FcJzi5V8Zm7GxHs90DjFws483Q/Lf9iIUWEQ2Pi3I+ZZ9oIbl1DGTce6Thz9Og+t8I2Ce038cFIkEqkbCj58AtP+fCwj4FdWVmV6dtomXu9tGhmTqZmpiiGrWsUtt5dF67abdsvO/QfkICuH7pa9cof8mtcf226S3Tv3yKcDhXHLW32gyPYdO4ms7BZx41vllgbiKrNT7ijtiEi8XePZK3ejnohn/y1ye+B7URFeFxr/XeVrziK8rqo8aer8qXO2Kj+MjLiL0pgRHpL7PKTh/iaLWRTmYSPX3mC+NXLvjFr5lZAbby4bueeRyMkHAe0nOm3i1pLlh14L7OHUefrHzRPoIOrjwdI+NDBkw0VimDo2fczOu7i8VOF6Y1b24C10HjQOsgxcnG/T8KZkrUwU7JFIpIq1tXWZUiE+OOAKK0S479VO0cW24cEhe61HgYPFYULF/SYV8nylrbXslB3bk8U0Bw/I/v23yXZND2lqa9sut+1PwoyCY9PUjKuI7bJj5345gDoinp07dEtIEN4SauRJK87fqvzIolYaM8M9xfe00iVml+R7bm/kuSqg5rGN3julVn4ZDTzreWzkuiNnHN//4mflrk/uS6bPyr0/TAKUorAKfvhV+Z+l/b4gX082V/Jd+YSG/88vHk7W64OvgiKUEedY0xkzvbuzy+qjRunr7hUs83wcCeHvGwFpQU2dx8eNENRbRrbYeUNLPnUkb6WJq9aQkn29fbYf+HHecbXh7TXraaJgj0QiVVBgMSYtlnOEO5V3T0+PWdyxPbjKvE0G+gdsem78iBY+vdLV1W3bTxjbd8jOnXeU3CP8VHrj3wgNxZUWowflwP5EMBFPlWUzCM8CoZQsbphmzp9Fq/Iji1ppJNxtbIx975btt10t95TSe0+hhT2Xhq49xUaPTRYrqJVfrWIjaY+cWajQvm/mIrn5p2606TVbddNXvirfrxVWwWG59ytHpfdyt9/Nl4s8/Knq/b5+zxOy0N64HJ1ZnDXfcqDeQUx3ddbns54G/3TcWIgDMe6FOK4pDPXI7yAU7whqXw/ilkM4sD6ixw309ktXR2dpcAY/hWvtbR16nBn1tbGhDQ49rruzR+veLhuSMk0U7JFIpArGmF1aXpaJqQkttIbMYmEjwahoT1sc+LLc2PCozC8077MX8tCjdfuNuFf2cpv8Tite2TcY157AT+DQnR+QPTt3y034FiRuBB8IeutVhCeW0b0lX4ZDcucHWjiCR83zO2rmc6vyI4taaUzOfXMzPR4DS7TFmSw3RIPXXkELjq267lr5VSetvueRM5hzXy4/t+uFyYrI+dvHpGNtVp5hpSgssah/4kGWn1TJvllecQ0ByjVXybkyLgdCa/yDX5CH5RJ51eZkvQFmF2cqXFEQy/V2Mk3DsQh0XGoQ316M4wKDPzzL/guoMNA7kCw51xbCwTdy/XotSK+vU3Hl4Ry2bbXaVSYK9kgkUsW6rNm46lr0WOHjoRMqFog0FDDt7W0WvhFu/DV6ym13hWXl8C050KHuHhE/+oVNzXaSaySunXLHjk+X9jOrbqlzKPEclN17k+sgfO9uORiG3xVcZ9t2OXB7k5bgTGqdv958blV+ZFFHHum5ry7lUWqUmDxu/DW5QwWnd+m4WW6XO5oy1Tdy7Wk2fmz1ddfKr9q0/p5HnlccmZXV9gE5J1mtIC+M7T3Dcn6yKnKWbOpZk6kjySquMI+KXBWI/0bAh7yVILz5wmg4ljr1Hb8DhoucmZu2t8+MlEbdGIKo54uodFI9PH7YDFn1wH5ZHVSzjm978skn1+npeuDAAXnjG9+YbI5EIs9nbvvQe2XTlk1mWR+fmpChgUErzPCx41PQIWZH0AJtYnrCXgUytNZ7bvplCzszYSQNhtZ4/o7pXUnMj0jkzOaw3Pupb4q84vXyunOTTSUKwh78gtz19LlycyDIv37PPnnyghvl7ddULuMTf5/8iPzcj5+V7FmbT3/9L+Sfph5P1iqplNNZ5O9Bh1EGUxgeHLF6z29DuGMBR8xTF/LxIyz8uMdgtOrq6JKpuSkzXG0eyX5lkHVW4sIPH0Lr/KXzV8qOHTtsBBqmaGGPRCJVDPUPWqGD/x7uLgzjeGzymHXqAeeBl4h1hQ8rURIh1v22SCQSiZzuIMi/IVPb8sR6XlgNElcYxHoz0OH0BxPVXvOtAPE9OjRmVnMs6nQeNUGeuMQgqBHYbpjHCRPuWMTN6q7/s0Z4KYJhkb2fPJZ875aTJgr2SCRSBaJ7oK9ferSQmp6ZMvcYlpeWF6sEOQULH1YaGXQ95YcyOstEIpFI5HTDC3JnBa+kKCxhy4B0LE4FnUwPy7HFdhneosceWhCZf6I00sznn1uT1ee+IXdldErN4pEfPiJrUu3n3SowPvE2GSPVrIpo3GCwpONv7q3gDPPIB47a9B/uMIzuwjHeQl4vndoQIF6O43wMJUl8aaJLTCQSqeLX/8dvydCYE+BY2hlfndFgKFT48ikdcXyhxKtDXGf8UFpXnLtN3vTSN9hyJBKJRE5HmhTrdDrd70aGefs1qf1wkTk0IK9528sDv3ZHIy4xq2sr8sd/98eyuD6ZbKkmy/WkkuI90gZuRDqjweBvvrq64sK1CkSs4zbDR5MQ+bXIOivuNtStNAA8iP+r16+NLjGRSKSYqdkZK6CAQmhkaEQWFhdlfW3dhLkN76jhC4sLKtzbS2IdCX/Z2RfbciQSiUROUx58WH64JjL7qB9D3U02+ktRWAVnyevedomI3+/RJTn3FdVivVG+8fgDMrvkxinHlYT+U8emjpnwzYPxznE1Yao1PnoWGKgQ5li/sapjSefrp7jGILTrEet50JnV3EoD+Nppmmhhj0QiVfz7j75f2nqcn15YEFEg0vKnMJmZmzWBPjYyVrK2U6D969f8gnQ3ORZuJBKJRCJ5PDPxrHz8K38u7V3LsrK2LFOzk8KHjBjNBTcS6ibrGJrsD7iy8F2R3u4+W8cvnaGLi1xXvMGq1aRj5TyTeg0M6Rh+gAlip9NIJFKTrs5Os6rjCsNXTj10vEHEY60wq7oWeAh4z4svvCqK9UgkEom0nJmFGfnrB/5SpH1FVtdXTIiPDW0yQxHiG8FLp00vtplTPyHg+3r6bR8mxlDHIs/xx0uY1wvpobGxtLJkU1F6omCPRCKZ0OJHtONbh5+6L0goYBDttPixT9AplTDGr/3Ry66zfSKRSCQSaRWI9b/8+qdkbmlW2jvXrF7Cmk595GEZl5Wjk0dkYnpc50dtv6wxzXFBod5CtJ9s6Gi6eXiz9Q/jLQHDPDKliYI9EolUMTmDT92aKwD7B82ajp8g7nNAEdnb1W3DUdEZtbujU974ktdJX50fi4hEIpFIpB6emXhG/mz/n8qRmSPS2eU+zsf451jP+VBRCNZ2My1p3cQwi6GbCf7uDFU8PT9tFnfC/HCKJxvqWhogGMP8lCYK9kgkUsXwwIBMz03J/OIc5Z4K9m43HvvCjG2jIJycnZKe3h7ZOrpF3nLdTXLB5vOSoyORSCQS2Rgrq8vyD4e+Kh//ysfNst6BWG8rv+ml0ycDHzw3frhklT4y8ZxsGtpk7ptMjOqC1ZrOps8cfUZF/qyzZq8x0su6dLZ3mGg/HYiCPRKJVIHVghY+bjGMP8trRQpItmF5P3z0WRns65erzr9Sfv6VPy0XbbkgOTISiUQikebho0gPPf2g/PHffVS+fHC/rMmKWdbbErHuWViat3ppy+hWq5voe4VIx9jER4+wwPsvlDLC2Vbdj+EXGSUGF07EPBb5ZkaNORlEwR6JRKro7Ogyv/WV1VVziZmbn5PxyXEbznFtfb301be3XneTDPdV9myPRCKRSKQeEOfjs+Py/WPfl28/9W351Nc+LX/0Nx+Sv3no8zK7OCsdHWvS2b1asqx7EOLUUVjHGfWFaVpFuu4o7e2ufxUW+L6e3tIY6dRZ/b0DZmVnGUMUHy1a0XmjEAeW+xPpThOHdYxEIlX8xp/8J/twEn7rFGyI9K6OztJ465O6fWx4TFaWXJsfC4anvOTwYeH2KS1oRwb4gtysFXiD/UPaKJi1DzKtri5bQYoFxB/kj03Htbq2ZlaUYW1UpMNqresGN7O/pVVb9/uSNr5yN6DxuypAZE3WLa2+0cI+C0uL0tFGXrjGDA2edLweHzcsLs1zEunlWhPCdPCn8vCiNV3Xg6kAeUPCSAikiXWzKOl6FqSfUX/wn1xaWbS0L+j6QF/5i7VhmiFc4/iZ+Ql9Nvqkp6u6DwMfFuE6qUS7mhhBiFPPzk9Z/B3tmq+6rqfUOGe1InbXNK8Vu1+GcH1uYVqvbUivaVbjGLDjejUsdUm58EaJfOnu7FGRMG/HHi9qVf1cd5r5xRnLG7scvd/r66uazkXd1m9hfT3JfUwdnI7KPqueQxg2p78HOpxz37mnPC+2nXzuG7LlMKZ0mtPnIR6muYUZvU+Ddu/Yp1/zeU6XmeO+YJ0Hu/oq407W/Dbma/qs47ZHXKXfcfK34tggYT7cE4Z5/BaCpucm9fcxZG8g2U4HRsqJLsoEzQ/KS2f9JXxNy4Qe6WzvdMcH54FwnbgXzOVQSmVCxd6pdFWuEey2+L8+nOdhfnFBhqycbLf1Zc0nyghPZX5Q7mke9mGF5tnvsnKW47NIp4MycmJq3MqUrA6fMK/xdWhedXW556cSLTXaVah3ll1g0tChlM6anZ2d7j5o+rGsM8QjTMxMVviB4y7j18enjmn9tcm24ceO8A73haxnwEN5ShnZqw0B6rD0sUXkx1rNpelhHUs3uCBxkUjk+QUVHRPDTfFRiGEV0n29zkpBxYlw9/ukJ/1TuS31j4qAgn9pedkquG6Ni4IW8YtYn12YV5HhxHpFPMEEVCSIUdJGJcQBFhbsEx7jJ/2T7FNaTKZgH47VfxTMVLYmxpPtiHXXEbdXhbGK46UFJ441bxAwvGb153FxlZfd5KKiUlxb00nL3vV1Xve67X4/VvinC6WpHEf+RHoR24jkeU2LqyJcfFkTlXdXV6dWkHwAS4Wfbmtrr4wTwvVw4plAtCHWdUvVPyBe7lUWGkXxpP862lTsd7hOzvxjbiGs15zKjUr9z2FBWO2J60MEL9OY0Wc0a59wKp+ricklL3/SP+mJBsTi0pyK2lV9XmmsLZhYJz4aSD7u0gHJVDon6xZ/ff94zrv1XiMoedY4ni8/cn+IpTomvzU7lH+IVBpYPCOdmmbiYng+GmjLq6sartekYl13rZwSWOQpX9LnfVnLkIH+YXueuU4mu87Cfz6WvKkM8Xdp4w2RCGgnxHq//ub4DfD753poIPPsUIYi7vIpn4eyYEXLBAwRNBRbBfeJMhdxOUeDwORevuab0/QihMkZN5BAY/qwXY/jeMrIPHh+aNQQtV29CvP29nVzfenqcS4weWIdyFeMI/4+cI/rlrG27zozI2w0ecrPRvU/NwzjsjU6SEMtQn1dvtu1p/A4S+8TTzyxzoPx8MMPy5ve9KYkKBKJPJ/5v/70g2Zhp2xg2CusJIh0Cg182jcNV350IlyGcM2H8ZfKjDiIj6+7ecsEFnfViGbF7+vtT4RZ5bE213Vegc7o/lhvfGFZDk/mbmb7h8s2t7/1rWN5Ge7XBgECVreF1mquY2L6mO03Mjhmop6PeLA+hGDQeTmu6vMAFT1redZsW9I/fksYBpVrleEsYfljQlAjHtIg1rkOKlaO5dPbHEdF2qcimwaIpypdAfML09rw6i1ZW9OQE6QDyyeWyZDUJVXBsVjYB1KuV7Pz0/Zmxi+H8WLtxbJMmv0yDRiECxZc4qp13hAaVORTmB9ZcK5lzdOB/pHcvCiCcxSRF8pxyyrWud6886bjDtdqnjcIp0yYW9T7reKUBoErIyb0mR8t3cyiuNPiiAYvz0aXPj9z3Ef97XDMrOYlh9IpkAafi7vyaB8398eP/OGvPzyvLel61rFASH6Y++u38Bsf1GfN/x4YOxuXCgQoxx2bOmq/jxH7ME+7TM6Ma9rbzRrMMWHckD4v5SIM2LOdny6oXCuH+79Zx/Ibp4FFwyj8Tftw7seqLuNGApR37IaFnTIXsZomPI+HspM4eOOQB2nBjSXfQp0Vs4NOpLi8hIRW9LSFnfvmy2W/zDVRr9E4TMdVcGrLWZ576iJ84IsgH6j3+FATRqlGuHjuhXLVVVc567qW39UleCQSiSRQSPDKkMIc95ijk8fMbSUs6OuFwg1LGYU4jQDiAbatrq3YeagQiuImHXzMicqvVuHXeAqzCdPD2wVEH7C9S5ex8ODP6KEApyKqB4R6KNZbjXdDyctT0k4jZEpFBdeGmDUBpfeqkXvchyuD5oGv9LMgLVT2eZb2WhTFTUrD8I72Tr0Gdw9sWe+H71xGA6AoriwQXrXEOiKISnx4cJNZWDnnicKeRb3PzTQSGoUyARcj8nBmblIFCa4PZfeTRiAO90agz1xt/G+BbbjqIowRwkVxEwdv6GiwnYjr52EL04OlNSwTzOqrzwpv4vw2rM2UcfVAI9Q3RI8HzjLt3oxkwZsJGvI0PPATxyqPyxzPdtF9SEMZXevDRKSF32V6aMZ6qOd3HIZ3BOWyLwuoQ5otE/gd1BLrlKk8x1tGtlijwA+L3CxRsEcikSoolv2EtZuOO2NDo7J1dLP5M4bh9U7TM/itD5sg7NFKDYs02/t7+2Tz8CZbBj9Pw3Yqj6E+537CetEEWdvTE6TnnvR20ryuhT7rTLjw9GOJWlsvbTN3DS38WQa/PYv0PukJ/DxNGJ41gZ/ngYvHYP+wNp4YHs0JjL7eARVKWKLqrx6oyJ1op9NXPggzLN2NVo4IsSLB44REUDmrEEBA2zKVsx7bbsKdOS4urR3GjevBIuyXEc/TKmQbvc7TBfIb0TfYz3jRfGmyOaHs3pwMObcsa1i6Z45PyPPWqh5oZNJg8K4Rx5v0b4oyIWyc8fEbfJtp9ALPAKXV6fIs8KXqkcFR+4Iow/gCHyPCWt1IHvOMeNFeBEYaLN2N5g8jwuCelEd7u+Z5UCZg6UdAA88rQh3LtZ/TIGklXM/k7KQ9MKSDceOPaiNoI89BFOyRSKQJqLbqn+YXsKL1WPGJ1ca/bk3D3n6enijozFKaZ1lnJ/4g3hqYTOwxt0h0MZjAzQlvM8FJ5y2/x3D/qKZpXQYHVHSY/62z4nR0aNGquxC17ap/sv7Z9uT8WZMTon7vyn9+O/OsKdyn1j8qYkT6AJbSqpiqpyywNiG4Vgos6FxPPcI+jVWwSWXrIR2+8uO8+P96zJrmBbuKdzoicm735qBSYLUC/NupkGlU0CDhHEMDY+Yis5EK+niSvqfhdCIgn/AFp1DgrUuRv3Me5C2/t1qWzlaSvp2kGwu0xz7Go+IPlwsaIqSNNNZ6Q3Oqwe+FDpyI7mbBgk08lPl5EF6PsE9DAy8rXv97a2+rFOHeqh4uU+6xD434et+K1gtuMLgVUm5haOIcm0c2m9tOs2VCFOyRSKQh0hV60TrLvAakQkak43tOheb3Sc+LwErhLetQzzxrGwXzlBaa+I/XgvOFBbkJTq2geQVPoUs41jREKm4x+NAiBsPK2Z+7HhrZN81GjgUqlI1aKXFfsA9rFVRI5hazuqwVZv1DqZGfaQs798LUnmJW84oKt2zR9GKe/dnEs8joFK2C8yDMurv6TETQIHGWfFwPek2YRirhN+I6r/fam4l0v4Z6oUxAmG0UKxNmJ0oW5SLs7U2qTOA6/BB/3HfKOhrws1om0N+FNzwcd7pBmvltbQSs87iDFJUJCGh+Q94CXg+hAPdYORCUCaFg5z75dR/myoR1/Y3Sobx1jT7ixNXT9bPqsTqPNy/kJ4M3hC6UjRAFeyQSqQIplDdBveuASHdjuaugZaQZE1qV+2bNq9BCEPEFtY4N40hvW9bCmU6vWGCLjgMqWxP2SWVDOAXwgArT2blp67w0NTNhFQ2dlhAiFMrsF8aVjtfjt4f7++VwPYv0/uCXw/UTCRWgWdAX84UP/sm4PNjwdQWVeIivWEMQRuUKuFpEha/DkXaAJbw3GUGlVRAnMEIL955nAPGxpNeJgMeqH6at1ZAv9ebjqQLC2A3hOGfPQrP3g+tuxb3kfiG60wIwC18mhHnO2xXEGQ35SS0PJpI+IaODY3bvT0ex3iq4P7Us6G5Y2YGawj7E7ntqXzOwJH7inYm7iyfvOcESzihfrXSpIk4KX3zzfcNiXhvuXKd7E7dW17OWJo4SE4lEqvjNZJSYPHCjCEkXhuEaBTAdVvF9dx1W3Xa/jz82a70iTOOZ1gIdP/isfflj6XL/DcLDZUPjwcKB8K4aZSaZA/tjiRnqH5CtmzaZD2dPd7dOPc7lJRKJRCJnNHw8kGEuEduT2uh4+sgP5dmJZ01050F9x3DIuL/gFoRop64hDj+IA2GjQ6mRaVLEUWIikciG8BKYQufoxNGq15ih6AUKGoaBxMruNXNJIIeCm3lq3cO6jaus57SJ9XBf/ePFOuEYIbCwpq01BHMcozAUifXenl658rLt8hPXXS8vu+YlcvF5F8rYyIj09/VFsR6JRCLPE7DU82G+s8e2yuXnXSqvefENsvuVb5ZXXHFtZl8sLPwcg1BnwtCDeGfZ9wegDuKDUQzA0Aix5olEItVogUKhkjWZLtY5r/uwmPMhJCwHzHOPxTqA4NaDWdc/bm6756/7ydY1jM6dk7NTth+Uw8rjs0/MTprv6MzcjL2G5bV7xb7Mk/WKbTphydh20SVyw49cJ+eddU4U55FIJBKpAIv59hdcIm97xRvkRy692r5i62ohPiK2qnXjko2nz9tYXF/YxpxOsmzHAk/9ROf4Roi1USQSaRgKoPkFRnnAzWXQfDQbtRY0A+fBUs/rRIYCw7pPw2FaRTz+j/19A/aBCl47MmHdwI+YDmFFIxVAd3e3XHvVi+SS8y5IGheRSCQSiWRDfXT1RS+U1/7IjwtDH4O5TGr9wWAEvO2lXsSghV87RiUGJqBeoh9Vo30bYq0UiUQaAjeTIxNHzP8OYcvXSZljLTCrdbLfRiiKA+sG58alhYYDZ8TFBYGeVQD615JYOPzoLmkGBwbkFde8RPc7fh8siUQikciZx5bhTbLr2lfLqNYzHuopRDsfA8PIxGg5uNDwFte/5W2UKNgjkUhDMMoLAnh88phZEHi1x1izjHXtP0hDcZSeoHrulsJ1/M+xnNtY2Ro/YeFxfhkhjq85H2FyDQUXUt7XLzkYxQHrBqM4hEMA9nb3yEtfeJVZRiKRSCQSaRTE+GtedENiaXejWllH1ZlJc4NJ04xmN8GeZXGKRCLPX5z8zf5HKIUSApcCidd/WBNwR/F7JLtVTFZAMU82JHuW1tfX3Jfh5ubnbCi0haVFmdKCDn9ADvZ+5qVljspatxiT9Yp/fO2u0xobuMi4IRjb5cVXXBnFeiQSiUQ2BKL9J66+3j7uh67GDZP6hnqpehhHV0fVg9fo0cIeiUQawhczFE6rKytmucbK3a8iPhxjPT1Beu7BtQVLxPDAkHVkJe5BbQAwhCPjpc8vJB1H7e/GYLxdPr2N3zv+6tENJhKJRCKtAPeYl29/iY1SRt2F8WlZ60lvVPKw1qixPAr2SCTSFF2dnTI8mD9We71QaDHyi/nEpz5eQSHHkFgUenwprlUQ75axrXLRueclWyKRSCQS2TgvufQqMzphGGJwBIxaYf8q6jM+AhgFeyQSOaFUWQ4aMINzLD7wg3390t7OgW12fDoKOuzkfc7Z7+vTkV7PY/tFl1gHoEgkEolEWgUDMLzkEvfBI8Ze99/8sO+DqEjHp536qfJrzLWJgj0SiVRBYVLvlN4fyRyuF00Mc7W8uqxifF4LMuKxfqa2EO7HKDT24aTUuZj0j5snYen1rImC9NzNW22fSCQSiURayWXnXCSd7R3UhlqpiX0j5NjUMZmYHrevpFIPIeAbIQr2SCRy0sC6TqccXh8Crwr5qAT+7Gl4pYjAbwVjw6PRun46cOiP5fWv/GN5PFltOcc7/jw4b8fb5Y8OJeuRBnhS/uiVZ2LenSrXdabm74mFgRjOHt1q3wlhcAZGNevpcoMbUJfxQb/oEhOJRE4oFDoMw0ihhKB2tu1s2Hd2PvkK6ey0dHV0JePVljusMpZtbhwF5Zs/Jj3P4qyxTclSY3zuly6VX9mXrJzS3Ce/Uo8g3Pe+0+R6ziT03lxxt7ztkU/IL21LNp0B8NsY+6X7krXIqUJumaW//fL9qrO8OBmcxmXU+VteYEKdOg6fdQQ7c74ZgqtMdImJRCIbBrFba8J3ZQ7xrcJ7aWlROrQgmpyaMFGet//UzKQwJORQ/6CNCNPf21cOV3iFiPsLBVp4LNP62poNw5je7ifImmdNA/3Oon/m8ir5/dXagvBzf/lnyVLkxFHfvTm9uE/ueehn5Z0PfU4+l2yJnE6cus/k6VxGDQ8M2kAK+LAzdDATo6A510w6nUaXmEgkslGyVG4wrTAM4+yUjTc7NDgsfX390oOV3CwJGQfoxHjqPd29Mrc4lxXsJmY699b2ELPeZ2xP4/eo3pMtbupKOgG1ksfvfLuMdVxamrKtQrxufp98DutWaV9dT0IdWLt8WGj1Yrvua+4UGpa4cphls2r/ZF8Wlep9SMelsvvDIh99Y7I9sbblX0dW2tNWuTDtl8rr73wyY3uRJa/y+F+5O9lcIj+e7HxIUyt+ly+leCrcZWpdf6P5U39YPdeWfd/c9aSfRdu3dG31pim8nyn2fU4OvONd8n++4xH53Yp9svKk/FxC8e+m4Px3N5vPno2krfa9PnnX1QzEW3ntlelIheWmI4mnooxqNq/cs5tVRtWbD/llY+qYCte4rGtojr4uPqJUiR8txnzY16OFPRKJbJCytK2e1lSsz87PmOuKfeF0bTXpXKMkojp9jAtb1wKnTYb6Bm0d6wLWebZX7KcsLi1WbuPYnHjTE4TzrImvm7aaS2/9hIyvPu6mz/ysVjLpSs7zZ7L7L19b2vcbv/eI7C5VClRSvyjymSSeR26ST10RxqPHvlPkvxL2pV+QS7US3C0fKZ83y0qWuc/F8ktfelz2vkvknf5cf/Qq2734OtJpF3nvOyvTfuD3/rYU/tlbLy5tz78mT/Xxu77zm/LVJLQwnnryoa74Xy2fekc5/BvvuFuuraiwi64faudPdj5s9Nry7pve5/fp8m+FaXxS7v34A/LO9+nzU0eaqu9nGt3vtx6Rt910sVx6000iH/9CcC4oet6Lnrei8z8g7/34NvlGsr3+fE7TbNqg+Fk4ude1UTQd3ylf2/hnpPkyym9rOK/yyqg686HO3002WdfQOAznmAf1ZPRhj0Qix5XpuenS19sYIx1fdAQ2X3Lr7OxM9qrGfxnVW8mR3wP9A6X1EPYjXg9j2fqOqa2g83h3OL3xtaLlfQ4vlQ++x4ljuPTWX5Z3fvluuReLz6EvyKfkP8j/eaMLk20/KW+7/s/knpJ1To/9aFCBbN8mL//wH+RamIx69skj4zre+ZYg7SrQXv7lQ/IYK6T9yz8r70mLuprXlJBx/Gvf8x/k5clyYTz1XGM98afCK+5NQu71JxTmT176N3ptacL7xnJ4Dcl17uJctdKUdT/TWBw3yesQQ9t+Qd5zdWV+FT7vacJ01zi/a3A46s7nKppMW0KtZ6HECb+uSkoW6nB6Y7GrSXhtcuO75IOS5EvNdKTKqISm8iqLevNhI+VezjU0Cl/WzoP6Lwr2SCRy3DBRXnJ7cVYCPniEUHfjqQ/a9izw5evt7jUhbn7uemz6Q0kMczU1O2U+fzQGgH05L513GiGrIXA8qXyt+4vy0WR7bS6WK65/QB45qIsHD8lXv/ybcm0pnlfLe7/s9spEBdJnV39ZHrnC7Z/pslDPPgHF1/FSuWJ7spiGtF+/TS5LVkvUe015x3uK4qnnGuuJvyo8uDdGwfUbNfInL/0bvTYl/769Sna96wH51N3uuMfvvlvk994lr2WlVpqK8ivhc7/7mxVx7P7wA/Le3y3qfFqZp7npLjx/k/lckzrTZhQ/C6fSdZUs1OH0mZ9NQrPISkeTZZTRZF5lUe/5Gyz3TjRWP0XBHolENgqtfwqU9MRoMIzoEm6jkyiCGgu6jZcehKWn/r5+6evtMys9whzx7peZZhdmzccPsc6wixyDtX1Q19Nx1ZrsOjK2M7Wcfe+Ta3/1CtlbqhA/UmAlCgUgPCmPfDmp0LAKXf8fSq/E/fT73pqUCR3G2O9v5W0ff3WVv7Kjnn2Uhq4jBWlPFiuo95rYL8/qBjXjqXGN9cRfFR7cm41SlP6NXluN+8abBPnVD8vn5D75z78q5r5i1EqT26uA++SeD/9scF4mPfeHw86nBc97UbrrOn8GNfMypMm01eKkX9dGaXUZVUCj+dzQ+ess92gEJIsth+ommLQGKv2DcD39D7wVnnkU7JFIpC7M0r2yUuo041lYWjAhX+SvF4KlHJcaRoLp6uoyqzrjrxt6DoS/h+10NqVz6ylPYDV7/M4/KLQSffQvyxZI2/d671Lwk/I2+U35z3kVSyEXy2VXJ4u5VO9z4NGU5amB66ggSfu/Tluy6r2m5NV22GnRrLfJcv15k5MP9cSfCq+4NxulKP0bvTYoum/Jtd3zS5+rvJ460lR1P0P2aXzveq2z1pfAol+Zj7nPO+Slu57zZ1F3XjqaSls9nOTr2ijHp4zKoUY+V5RRTZ0//N24tyj+jRONkT/6rRMzEg3GKb4xgosnhqMGDexRsEcikdosLS/JxPRkyeoNiHQKHwQ3Y8o2CvHgl86xuMYg4IdVyIeuL4zZXuRmczKo8gdl5ALz8Sy/pv3X8svyweuTA6p4qXzwys+VjjfrUqljEx2tPiJScY6CjmX7wpEXLrVOVlWWpoJ9nOX11S6s4etI49K+w8enk3sNXe81VR9/z1tCa1tBPPXkQ13xO0ucD7/24zfJNzbQ6aySonzY4LXVvG8aP51PP/xnFT7S9aSp+n56nNCp8HVOeO1bfla+Wup8WvC8F6a71vnzKLqmNM2mrQYn/bo2ys/K3re0qIyqRY18riqj6j1/7u9Gj/9oEGfHq+WR9zXw9qRJMD5hNcdYRX3aDG1PPPHE+urqqhw4cEDe9KY3JZsjkcjzmd/+89+R4U3DyZrIkYkjJpxxTxkdGpGFxUUbFx3XlSw3E79m8yDMrZfDsdoj+vGD96PAsD/zxaUFixe/d7+/ncsv25/61tNhr37FDcnSiYYRDt6jqr+REQsikdOVU/l5j7/FyPHnf973SZtT141Pj0tPZ4+5kCLcqfuY53HR3BWyY8cOM5Thbhot7JFIpAovcv3EEI58tMiJ6jZZXl4qi3UND/Hr4dxP4OewsLhgPu0lsa5/ba6FGx9jQqx7wjPZUnDuonW3nMzdYiQSiUQiJwzqyrGhMXP55G0yrKy6t9QYzeshCvZIJJKBl7pu6urslu6uHm3pd8rk9KTrYJoSyH4CDarcmEy2XRfsyHVcbRalr5vhGt0OFqx/zRWmf8i2+H/uv/4jEn9u5sH69PyMWS/CcJtYCxYjkUgkEjmRUFeFo6x1dnSZeJ+am6pLtEfBHolEqvC6Nj0Nq4jGfaW/YEx09vPz9AR+ztjtvRnxuA6obVWdW/1xkI7Lz/moE771UzMTJtzZHk7g5ycH/C/jK/jI84VT+XmPv8XIyQfxjlsMI6TVIgr2SCTSEN46sFEYXaanq/qLo3Pzczb8o4evqk7RuXV9LdmSz9DAkFkwhgdGrEEwPnXMfOFD/DBZkUgkEomcaKiD/McGWWbQBQxVteqmKNgjkUhDpOV6KOBtSf/kSfrEUcUKJo6jIw2wlSkZcVY6kg8qsR+j0PT19pu/O/i4/XnDdazyPV3dtjzYP2jiHcvF8sqSTSxPz00lR0QikUgkcvzAR31iZsLqHUQ5BiTWMUDRD8xcOBWW2V5EFOyRSKQKBG/epH8q14P99Y8K6Op9yuFuXwopP9662+6mlZVl85Vnme3WM14nRqehc6rf1+bBsXnrDBM5OjSmheO6iX9ceUYGRy0sEolEIpHjCQM2jGmdM9A7IHO8LZ6fNrdS6jM+Qsi3SKgX+bo3E2+ezQrlqrAKomCPRCInHMahpXBKs7Sy5AqwADqf4uPHa8NmwOrOaDM9OrWn/OIjkUgkEjneUA/hqkldlufeyccHF1cWk7VqomCPRCJV1PKlCwkNAX453ObdWvwyX3ljQoCH+zMxtrtfhnr81s98GC/67fJHh5LVSCQSiZyWdHd2Vw2o4FnXf0WGqSjYI5FIFVNzkzI5PWHjrXsBnTeZC4pfDuaM2EJn0Zm5aRXsqxbX9OyU+Zh3dXTasJDg9weWZ+ZmrKOpqnuZn5+TxcX5qrhD0mFF+7aEQ38srw++oDfWEcV0JBKJRDYGdV9/T3nAhTTtjVjSIpHI84PRwVEZHho2FxXfQcYUcGnSP8nEamm5tK1NRf+0vQLs7xmwcdxn5mdlqH/YxljH7WVCGwRY2hmGcW11xfzXV9dXpaezy9xlpuenZXBgUFZ0G5YHdx77XzFB0bw8lf81DZ+7vuJuedsjj8v4ajI9cpN86opL5Vf2JftEIpFIJFIA9Z4fSAGmtb7s7Oy0r5qm8To9WtgjkUg1WkAwUstQ/6CMDAybZXxdRXulAHYTpJeBjjZY0fk40sLCvI3h/uzRZ8y6PtQ3aJ1xWEaoLzDE1cqKvS6k4LLe8hRSOmGpT8d9cnhS/ui3/kze+ZnU2M3bfkE++5mflY/+1h/L47bhPvmVtNUdq/wrfbjI43e+PbDQh2KfY98nn/NW/OCYEknY6+98Uldqn+tzv1Q+T3wbEIlEIicfRi3zo6QBrjDUf0VEwR6JRKrgy2tYwBnNhUKFjjK8rvPQ4ncfOMrHj9TCcFUo7aMTR22cdI5lqKspbQRgYfBj0dJrnk43W8fOkq2jW03sHx4/bOepda4TwqEvyKe+/LOy68ZkPeTG18o7v3y33FunGL701k+ULfSI/TeqSE/CRP5Mdr9T5L8S9qVfkEuTrQ4V6ImF/7O3XpxsK2Df+2S3fKR8rtX4oZhIJBI5kTDmeujNQp+uxaUl6eosD7Cwsrqc69vuiYI9EolkwkeNvEhHfGMB8IUOgntyerKiEII8SzgF1OjwqMVJXEPJyC/Dg8P2aWZE/dLygswtzNt4tfi+d2phdpaKd9xzGNZxYnq8quDLopSGpMFwyoPYTxYdL5UPfjQt1IHOp38gVzzSgOjevk1e/uE/iFb1SCQSaZL9P/gHOTT+WLLmyNqWB24uzkil9abOj00dk5GhkVIdhXsMI5jVqrOiYI9EIlUgppeDFj8FCYUOvuwsI7AZQxbrO+t+0j8VcyYENlb0vp4+G3vdPmjU2VkKt/3tJO0aZ4/5vY8Oj5m1nfg5L6Lejae+JpNa6Pmvl4ZxlOLy85xwXHRWVk+uxb7SJeYX5aPJ9iI+9c5Xy3u/nKzUC+46q78sj1zhzuXcaCKRSOT48+jXfld+/X/9djL9rtx1OAlQisIqOPwxeX9pvz+Ue5PNcO99fnsy3XdfEtI6PvP4PvnvD/+JHJwoWz2ytuXTJp0dXVZ/DfWPyIjWb9SJfNEbAxRGsfmFeRnqG9I9K/+liYI9EolUQYufQsU6e6rIBazkfplOoebqUgcUSFjUi0CYY33ny6T+HGnYjojH4g74uS+q+G4UjmnmONn2k/K26/9M7snqXLrvc/LR62+S1+VZvg8ekq8mi7ipXPurV8jekpvKR1IW9iwekB3ve1y+8Xsi731nhl97SHgu41Xy+3aev5W3ffzVsXNsJBI5/qjQ/tjsdfL+N/w7m35us8hj3/qYPForrILH5K5vPSmDF7v93n+xyJfu9fs9Jj9c6pTLXpqEMb3qVRbSKhDmn3lsn+x8wY/KGy55be62eqEOY6Kuoy4DRoXBQJZX74VEwR6JRKqg4ydi3RcqgB95LR87jy96EP1YxX3Pd7+dedYEfp4HBVtvT58J99XVFZlkFJtknPeQvHg4HstG41wsv/Q+/M0zOnm+8c/kne/zbiwXyxXXPyCfuttbs11n1Qqu3yaXJYuP3/kHdVjYXypXbHe+73uv/k259pe8JamOc5W4WC67OllMOq5G8R6JRI4LZ/2M/HogoC+/6HzpXDumJZRSFJZY1H/vuyx/Tb6n5dYbX0iA8sLXa7n5fflyyRrfL+eelSy2mL9WUe6F+c9f9c+1PmnP3NYovG3u1PqQupQP+mWNCpNHFOyRSKSK0QH3OeXuzi4Tvozy0qeFixfWtSZgztjrvd09Vdtr4ffB0s9XUSE8nolOqXzuebjfjWKTHjMewvXStC4yszCnS01w42+VhnEsubQknUB/v9QZVYX9R/+DyK++Otnn1fLI+wIr+o3vkg+Kiu7k+H8tvywfvD4Jq4PX/tHfygcf+kUZM9Fe41wMQ5mch4kOqOV0RiKRyAni2DFZad+kJVYGeWFs7z5HLk9WReX6ud0rcvQYy0/L0bUp+VLJJabAraZB/vqxe+Tux/fJDS94RSLM2zK3NQPDGvdrvdUMbY8//vg61qkDBw7Im970pmRzJBJ5PvN7n/g9Gdk0Yst0+KSMCF1g0kVV+DrPRHGyykgwuMP44avc5sqizh/rt/ljsZ5zbiwQDDGJD7yn9NElv/P6uszMz1gDA+t7Oa7yufy+M3NTctZZZ8u1V77Y1jcElmoT7HH0lUgkEsnmMbnr3k+JvOQ9cnOVRbwg7Lt/KL/+zI4KVxf81h8659/Jr3qru4d9nxR55Rv+D3ldsqmIZ2aflWfnnpUXb31RssXxV4/dLfc8/ll55XnXy7/Y8TNWW2Vtq5c/ue8vkiWte7SOwu0Ty7ofPCGsO9NcOHu57Nixo9SXK1rYI5FIJry6o0c7FIr1ZA7psHUV+l6sN4q50uixne2dWrg5lxc/ggyFnT8Xcwo9xnlfWVuRpcTdxbbbUuW8r6dfnjn6TGuGirQx2K+Q914RO3RGIpFINQjyj8vRC/PEel5Yg+Au0z4lD+FKUwf/+NyD8l+/9d/k3u99Ptki8peHvDDfWRLm5W2Ni3UPdSl9rro6ukpifXx63LY1Ug9FwR6JRKqYnpmSxcUF+2hSf2Kx9hPkrUM4918ozQqHcDkNH5Ho6Oi0Ag2Rzb4MfYWIL1nY7W95Tk/7haUFbSiUC8H0PnysqUs65PvP/VOyZYPgJrNa57jokUgk8rzBC/IMi3hhWMKmTdK59EzQGdV1NN28KVmtoiisktde9Gq57uyXyl88+pcm2v/y0Gdk3xNOrL/+kn8mDx55uGJbs2KdN8X0mWJ0GEZJA4xR1GHUcXwwsF6iYI9EIlXwgSOGXyx6XVcXqSHTQ/GctxzOsUbQ8dWnY7BvUNM2bMt5kHZePRbR3zMgj37/iVPjg0yRSCRyxtGkWA87nZ71MrlInpTPeKv5dz+rR54v12ONP/xY5agyYVgd8F2RX7zmX5ZE+74n7pUfM2H+0/KPhx+UP/zmnoptzYh1uPSci+wNdViX0uEUP3bePjPiWr2YD/vq6qp85zvfiT7skUjE+P3Ahz1NutgKCyJb0j9+y/jUuIwNj9k+bltlsVd0LPjjXFiwzDw5Nmt9Zm7aCkn7GEUqzOa6Pr++KBefd6Fc9oJoGY9EIpGWYj7lU8lKmdGLVaRLQdgmFewPuKEcnZi/T37vf31FJmwPhnFM3GcQ9rpf2T49XLf/egjWbnzUezq65Q2XvE7riLbMbc3yxLNPyf7vfD1Zqw9cZjAmXbqwQ6688krXj0unKNgjkUgVd3zy93MFO6SLLy+IwZb0D3M6nWKpL32AKflb3lvXco61RQ3jlSIFaHdHl7S1t1sYE4UanVL5pHOnxj/YP1SKi2P4QNJA32BFXDa3v4ouzMmiXPfCH5HRgeJx4iORSCQSaZSllWX59P57ZCV5m1v8nW4HX0JlrPYr136kQrBHl5hIJHJcwBDAsIzNjXnu4IumiHLiQvwzzS/Oyez8jH3muauzS0YGR028M8GC7b9iHX2A7SuajjQ0GzrX2+Vbj317Q2mMRCKRSCQLRi7b9oJLkrX6oJ9W+A0UTxTskUhkQ5Qs1qDimCEg5xecqN40vMks3VCydCdzyFoOt3V39ZjlnCEd+RocQ0Tymeee7l4ZHhip8v/jNeKapgFrOkIdUT81O2Gjy9B4SNPd1iWrSyvywKEo2iORSCTSeq666ArpSzqc1gOmJwZPSBMFeyQSaYhQWNsyriYqjienJ6yzJxZuZ/keSXrCd6lYzv74EX9Ky6k5E8eH4T4+xrKl05Ch5+Yf69aZR8U9Qn90cEwF/rAK+1HbP/xKa/k8bdLf1iszc7Pyle9+XSZnp5OQSCQSiUQ2Du4tO698eUUdVMT6GvWZr6XKRMEeiUSq8CI5awLzB08mtq2pYGYIxuGBYRnoH7ThqvwR/b2DMquCWHW1rVs5lEzMSsulbW6B/XGHKR2XbC8vKxo2Mzcjg3oOLOozKrgX7YunLpw51v6uzh57zehjAL/MPgMq2peXV+Qbj35Tnnjme7IWR4+JRCKRSIs4e2yr/PjV15vBqSZWMfmaqkwU7JFIpCHSghfo9ElBxIeWEMi4n+A3zvJ04ms+q8I669j0sp9jYSBejudjSAhyHw64v0zOTGi51iZzKuwZGQYXmWUV7Cz7iW3hV1KzoDvPYFuftK2JPPZPT8jfP/gV+d6zT8VhHyORSCTSEs7ddJbsuu41ct6Wc5Mt2fC2GKt8mijYI5FIS+jtwa982MQ5Yh3RzjK+5uZ73tlpfu2NgGsLx+Pygh/6xPS4dTxlmcYAYryrs7s0Pju+7cwZHYaJZcLrAUs77jE9og0PPc+jTx+S+x74ovzjwQfln577J5mYnZA5PWcU8ZFIJBJphoHefnnV1dcna40Rh3WMRCJV3FkwrKNZudtKTilm4faUtiVzCMMZ9WVpZUmGkyEYq48txwul8PV1E/u43WAt9/59FoctlffNX0/mblYZHsRjnWaX5rS10GHz3t4+WViat6/Usdfcwow2TvrNL97jj4X19TV7KzDQN2SNFnzqQ0rXpBAv8fDJagjDoHJNScIZBWd1fVWTqI0Rfx2pndPHpuNOUxyqZBy/sDir+cL9qLT9LGq+4VbU2anNH20whUfOLUxLf28wjKYGrq6tyMrykqzpv3b9161x0u+BeDsLXiHXTHOLoOP0wtKs3sshuy7uMf96uys/iFIP5uHFXJ9p4llYnJO+XuKpbT+j4ZoH8RXhQ3kDtby6qPetv+RTO78wa8+0J32eorjDILdYeXT62PT60vKCNfB7NQ/cHU3tX4rV/fWhxDOn6W5v67CGun8YSkfrQmlf+1MKMcJ0VJ5D0bBwbxrp8/pb5UNui/os9OrzibteL1ZQvf8z89NWLnW0J2VCRdx6vP5W+Qw9HehtuNnewVIYf8Nzzeo1dWk8XUmH+jCs+j6U15dXGBlr2Syz/pms2juVrpD0egUaWJnKSsKQWfIifJ4t0JXfq/q8k7609Xhydsq+qh2yomWCjfilabZRU/T5pCMmwxs6l0uNtVaiCygOrc28poW3xsODIzYi2Zre47W1dffBwWSfPDh3/7o+sym4Pzxr0+TH4KhcPP/COKxjJBIphgK/3incX/9UzNMTlRrWcCo4Cl8KKB+mf/hfjkOh8KKgp2J2VnP3dTh/TPk4t3/Weq1J/7gCtrTuCs71xRXpWe+UzpU2aV9rk+XFRZnTtFBZZ4l15ggfKhnSihCxhkUSb9ZEXMtagft1iycI1z8Vk9+OiO3p6nXj0ifbdIfSsq0HyzbV+pfePz3ZGSonRuyh8aDBFRPir18bLLwBYd0H+ErS5sm2pcUFWV1eNpGOIO7t0XuslT2NmDXiLvinEWROpGleG1Y0rtynv7P3y5/K8Cz49JDv3Sra1vRfDbWQCWJ/URs5C9pomZkd10bKoqzrtiUVgwua1nndjngNhVWrQQj29Qxqo2rexDu06mw+59K56SfgWfL3nqlLn+Oe3n4VwLOyuJKMjOHDWQz+kdDVVTcKFb+zPn1WKFP88+n2dxP4ZZsqVtx6adJNwDxrmROva0Oe52lVRTGie3V1yYaYnZ6btDTwW7BrgyDy2UW9r5rXiHUa6DxL5Suq/AcmTLXs8Plk15Yz6Z/S1NXVZenw5SPbKvZVwvWqifCciT+Zx/gp+NepYhpDhV/nv+4kA3r9vC11jSuL0E3c1DaeQObuXHP6LJDHffpcjPQPWx8l8g2jyYqWFT7uMJrqifDyRANgWusdGzGsRrni/mkcORONFxoR3d3d5gqKUcb9Zp3bZhhL+l8pNEmXCfS5aW20TMpzE8/ZaGU0bMiDNNHCHolEqvj//sUddVvYgYLH45dK83SY/mFOoU6la3Hp5CoyLfICsYJLDVat0KJuc/tb33p5OZm7WWlfsKVgXw8fbEJQubB1rUSWTIxXHZvMSfvkzDEZHdpsgp0rQVhTkHN9EB4Li1rpIwSp8CEdHq6lw9Kkg/0q6ULELq8skpRqdEfyms65tc4RQrwIYyrjYspxki9MWN45H8sIrzQ0ZFy66h8OzTM3P6WVvUvT4rI+Y5pOGgL14zKJ+z87N6GVc5csqZgc6h+zr+fOzI0TZWLt61WxVJxGLOnkE1bHHhVkPAu8nbCPfnV021sKmFXBzn3g7QIWcP9MeAqtnCSoAEJJB0KdeBFWs5pPA33Deo1T1sDypM+Tjjtcqw7LP9Yv5R2/rCKYt3DEwS/OP4v2O2Q3/dOujWVrrGqYP9b/zYu3Zrgu13Ms20kLvyW31b194W2aJ30seX50+qhs0jIBwc6ws31aphHmrNDlc/tjMVDw+0i/XQrjhspUV4ZXhlQfSzp42+nyW0kdS85jyQ7fXuQRRk28uC0yShik01iN+wAejR/ua6+Kcvok4UaZSrIZeYA6AWrHXWZieqKUJt5iEDfGo3yy40Zg82Ejfqeke/PIFv09dcqRySMWzjINJ5/GND5W3uSSTzSwMETxtgvhTr2IoWOgd0AunL08WtgjkUjrCMtyv1yjfDco8PAxx++dghMfeAo68z3XwprJW88aoSgNVFrpiisLjuW8FKJOWKpg04q5317bFxOKDCzuCKSsDzd5qBCJ+3jAteJygRsKy1hWEWbpie2IB0Tl/OJMXXkEJpr4V8f+1oDR/XAb4FwIxkXdtra2Yunj3IhYJtZxQfHCqBGwYiOq/X1AMHFHG7kuD6IRlwtcsRDWNHgWLB6x1/4I+VqiAVGOMO7tHdRjnKUQaEAM9I1YhU0DA+s64d1dWtlr2Iw2FLA6N5rmIrAQ0zjgFT5p8g0CJ4hbd55mIT2I30FtRDC6FAKuR/OjX59PtjPxVqrRMqEIrrvea68sE7plSQUkwqoW3hRgDcB5fmPzJszy6NVyD3F/POBaSQMWXX4bDH07MjBi1m8/sc523uDxLQuEZCN5VG+Z4EYBWzeRy28WCzpineeTAQxcfyWs4s4CzSAC/oN4jYDIpg9VZZkg5npS73V5+P26Z6DL+ljRiJjSBq9GZHUW2xHjRdBQwkVqaIC3DsMWH3D86NCorU/MjNu2kCjYI5FIFRRr9U6QXvbzeic/IgzixVvTGyU8imUqDVwqEH3udfasiUIqqyktLLHoUFj747LmfpnCmGI9Syg40ekKaOJkX4QRB+AaglAtEhiI10YrjXoxUaYVCFZUKpe8dLAdAYJ4RyAhmM0aXwcIQLNi14BrnJ2ftPzAhx3hjmUd0co6IpW4sCzTgBga2GRit9G84RjuuWsEYLHusfuAEKYR0Eh8VOzk35Je3/LKgqURyz3PKQ0xwrvtDUo25gKzNGfX6IV6CPnO8QP9mgd6j/w+pJ88QcA209DIg/h53sxlSeP3ln3EMefhvKcK5A0iruTi0QLIR66Rid8sZcKs/lZx0ZtUgeTLhHpgP/Z0VvJKEHG+TOAcPCe4YnAAjf48Me6vkvvUqnueBqGIBXd0cLSw8cN2fM3xpcZwgmDGGl8PfKWT64aiO0e+jE+7fKeRgHBHtI4NjZk1nGWsz0zD2oDYMrpVf4tLDecNBhHeWnENTBhJMBLhcsO9byQ+xD9uZXML83afSSNp51nlmrnvWV8p9bjG8qxdoxfqIdx78ntsaFOypUzpSTteD0ckEjkNoRAvmnLwIbZL3pS50U3eElUdUnvij821VqQSnp2blkUKaSpiFU0ruowwoYDFerSgheuUhlEAu+P88eU5sIxlrEsLV5bTU48KQhoC2iqw+aCKr0GzWmtlqOXq8MCYLKtI5fzsr4WtVVRhHBTE4Xo4FZG1f8WkNyLtVlELKh4EPvmCdb4WxI9fbz11CCIRK3KWSGAb4sfNcXdYSwRm9b5FIJL7LP95mzBcun4qR9xXENq1oLGC4PdvBcgTcpRtTEBDgEZOHhyHCO7vdZ3pGqljiZs0YNnnHIh+8sOEps6bhWO9KA/zlevj3tDwOhO1ANdEZ8gZbcAuar6OzxzTezNrIo4OoJQHQ/q7paE9oWE8+7UgL7MEF/SooEMIsg9zRC+WawSiJkbF2GYTv+b2BboNowKEv93Gnvz6wCDCM1U6T8aUBiGNwHdis3ikL47v0fh5g8Az67flTd66n/U7ZxtlgC8HEMPNNOBWVlftHIh+rsN3WuW6aLTgIlMLxDlWf+Y8T7iokArfCCBJNAR4S5AHx/G2gDT49UaobhpGIpHnPRREzUwQzhudwM8bheNcgThl/oO42yCih7VwxJrC63WEJVDojw5vtopgTgtQjkufn7lfxlKPeMqCyoMKkIYBFilfiSM+qbAJRwwhAhANzHGVCXG2utZDle8rBeYIFMQf53cuKIyZzxj31SKwt7vf8mlB968F4hhrdhFYc53wrQ+Eca/G2yhcZ57Q5x5yTXlvDzjWBLlmGa4wjF7DMWYFV/HPdTJ58YxbTx6Ifd5WEAdx1sqfENLOeeiMinjnOSKOlTX6fTih2Qw8h9xP93ag+pkj347Xs3iy4DrpGIowQ5SzPqKNaNxrEFjLQZkwNrzF8mBGy5Cs/Amx/ged2Y1hfvtYscenjtk5/OgxxO3LBBoJlAW4nPCMYGQIqXX+ptFz+7iZM+oNgtW7niDIaUz4NwQhuCuST1iIa4FhBJeWInjbgPCtF4Qx8TYK10m5nFUm4MJCGEI8C+4XQl0jsbTSEOEYDDKjQ2PWCGBaW1s318f0CDghuABhfefZ4U2HxdsAUbBHIpEzBsZJpxLAcuIrHApXoOKkB76HyrNHC10K4Vr+ogg0XsV6yxv7hxUq4VjvvYUY2NfvzzYEA/tgaccKbKNiqKhzVuzqisTDeRB/3trbCB0dXSb0cI3x/tD4YuMji1uEDR2nUZIG20dFA2nzIFRZzxL0Hpe+RbvWeqzX9UBasYYjDloN14TgTecl14ioRmRzX3iGcGUxa7feeyr16dlj1uAxdx69l3kQN41D89PXPEEoI5TS8Cxwf5jS95f89I1ExDuQNhpSNBaageeQhgcNJ+43QjHELJj6DJ9J8CzxuyMv7dnWPC6VCSqu8EP3cO38Tp2Aq1EmqEDjg27+N552pyEvMRQQZ1gmeB9stvXpbxDhbmVLYr2mI76z+BaXCaTPlUP5v80sGNWERgIfnUOgczz5gC8+E+UkV0EDAlGJAYSBSTykmecmS9B7XPoW7Jq8a8xGIa2IZG8QaSXES92AOA/hGqdmpvT56Tffep4bXFlseE+9PsqI5yYO233DRx4rfh7kCb7r5DUNHqzs/rkIoSxFyGeJ+dIoMQcOHJA3v/nNyeZIJPJ85g8+dWfxKDHBHMKCh8W8MC219A+vOd02hMPZo+fIuWPny3D/iFWWfTY6RrY1OxKJnFkg/nDFoZ/A7MKkHJn6gQrFZ008hQLYlnS9vMWJII+JraCsIYwJl5RBFcXEMKeimrdhlC/+2MnZCS17cFFwcbOd7ygQF2La7VV9XgQb8eFrTBiCHfcr4kZ0a+pN3E5MH7O3fM5SO05UMja82UWkhDHTCPAWfxoYlJ3p8zKRZuImTtKB0cGP7e4JjwN/vYhQxDjXFsL2sKz2x9PIYH9rgPTT96TDLOd0lvQkURuchwYB1njygrTSf4Y3DjNzvEXgGsQELkNYFrRLSvEi1mm8pzv4Vt6VfNLphTDNYNepwtuLbhoyNGq4Djq7Yk33+cOwkKSJPNk0vMkMRTQG/RuILDASMFZ+d7cT7OQN8dFYAKzv3EueTxoIhF0wsz2OEhOJRIpZXF6yQo7Cl4KjoYkSOGM7ViQ34sCUFtQDct326+UtP7pbXrnj1XLZuZfL1pGzZch8jqNYj0SeL/C2gvH3RwfPkvO2bJcXX/oT8sqr/ze54vyX2RsFj0mljHKFCZGLG4t3ZdGtpX8dWLj1H9oOdwbGcEeA+f34UJcFJnEhuNra3XLRhDuM9VNJ1rGckg4bP1tPh7hkO8IPIchHdno6E/cYTpf1T/fHv5rJLPMZ/xB2lJMdjF6k+4wOjlk/Gu9+4tOTNyH80vth+TWrOw0VF1gKozzGmIKQRXBPz/IWyn1ErvTPFfk20V+ITqJdNiqL2HE+fkZFwZ+fkVCwViN6g1iq/nGPrJOs7svbijDNNm3kX5BmJhqOvBXgA0iszyzMSn//oEzrvRtVUc6IOX7nTr2H5Pkmbaxxn2jELC65D7252HW31IQFn+E8uWcMFcw2xm9njtjHnQar+yDfGtFzsD1NFOyRSKQKWvp8sc1GPWkBVJQU2oxZi1B/w7VvkUvO3hbFeSQSqQJR+4LNl8n1V75JLj33RfYmrghcQ/BPxy+d/hkIdxtSdXnByh76juCagYhGQGLBRLQDll98ikMQiqaqC0Ckha5J7E15idjG+m3bNB6s7lizEapYqLE2ezeaZkDccW7KTqyxwBxBiyh2aS8G171wP6y/WKDNNcR3hE2BGHUdT9044XmQJ97lCBDWrJv1WePwIPqJx77FkYK0IeZpQJAuXPg2AmkoyheeDQxKWMuxfnsXoDldZrQajg9h3X/ED8i3LaNbqvYLoeFGOBPW+nAkmfmF+VIDr4go2CORSBUUplRo+DO2AgrErSNb5VXXvE5ecum1VuFEIpFIEQj1i8++Sl667TUq7opFm4kh/Ye/Oi4wfJGWcoZltjl3BVfu0KHYS6NuG5GnUrBjXKCvQBFeXCF2cbuhcbB5eEtJRDvcG8oQvpDZiu8u+Hh5Y0n5ioBH2OKmUwvK91CY08CYmZ9xgrpA2HKtiNNQeGeBOEYAe9ifLwWnwRccqzZ+/aSHNFhnTBXqbKeB0Iq6grxKC3bWsXpPTI/rOdxwkjQsrC+B5ifL3Mt6z5++z1lk7cNY8N7lpRZRsEcikSr4iBEWobQF3Bc3YbGTtRzOKbjPGTtXXvuSm2TT4BYXEIlEInUy3L9ZXnb562Wwzw2HlwUCDHcU3wkTkeh9yr1QQtji941F3lttsZKa/3sC4hERH1qJ80Dosj/+40zVgqxynTRihQ87cTYK1+T93LGoI6BpjABCnPSE15MF1xYKakQp/YcQyu0FwhF3HPYrgnzHOh5eOsI8T9Curq2ZWGdYS/bjTQHLDPdYjwiuBxoL09qo8qPh4JtO3tEwo+N9KJZNtK8xpC3fiyhutG0U64Cs18g9rIco2CORSBUUk1kThHNb1j+l5ap5m3S1d8o/e8ku60waiUQizYA/+0sufZXN02AJxfqLhT10n7EPmAXwfQRVzWYNT1vC7S+iP6NDZhpfxtExFNFeJCzxTSZeJizx1jlUd2e9UTgLohY/fDo8Dqig9N8Z8CB48ZlPpyhc9+kN04B7ilmZg/gQrrjgsDf5S57VEtGMNc/5/VjntcCfHXcQGlC8eaBRMKLbitxuGgVBzrWSJkQ4xihck7jvvPGg0+hzE8/ZmxbSzzX66XhC4waLvr8PzEkLH5PKGjozCvZIJFIFBRet/3Sl4osvK8eSybb55dI2t4Dl5jUvuTGK9UgksmEQ6y+65McqRDnwjQWs5t53HJzgqpQ4iNzp+Skrn0KRhFBETCPWcaEJhZpfSoq2qnXw8zR0HmQkE3zqx6eO6MncqC6rlK+JG07esenz+HXipBOmH1EkDGfii9FVH2Gytcp13qKm/dWtMyn5pssIdIQ3LhvkG77mdJr0ceVh38FQ8Z2uO7LgXN7lhMYB9Q6NhlouN43CWxbyDeu5Px9vGNYYO3111cJIC88B4faWpYUNBrDvciT3xWMj3/QNJFZ/N5Qj58cVKGu0mSjYI5FIFbyyZexpX2AzLWqBTSHsC2xf8EN62c93XHCNbBk+y22IRCKtY21ZVmd/IGs6ra9u3Cf6dAH3mEvOvipZcyC2sJ7zgaSwQyffZADKLazq49NHtFxCrK/JlO6LewrHjA5utuPptNp6sdhlHV03DW8p+dKPDm2y9DQL10XnzzxfeBo0YYfYLLCkF/nSI9D5IBAg7IvcWjy2nzaeGOkk3RjIAtcd7g3TlIpVOuUeL0h7uhHB+bmuFX1myA/vWsRwk4h4nqX0Mc1CYyjr40w0uuhYS+dW3jbwpVTSmuUmEwV7JBKpAusLrw6xdlCYMOe1Ip2CEPH1FGJY1S8/b0eyFolENgpCc/l7fyVLD9wsSw/tFnnm10We/XVZOfDTsvyNX5DlJz9lVtwznQu3vrDKNQaRykgxfKgKK68fGcaGe5yfIvNUNG+1fUaHNttQhYgl1rOsma0GEeb96Zmwtm5EDOK2gwDkGtPxMFwgnU8nZsYrGjAhpIE881ZfBDZvKTzE6cchx9ruXEiKwUKOTzj5ihAugviPTR3ThtOUnYd6xlu/jwf24bygEcE9x+JuXx9FoLeXGyOIZd/xlTov3Sm5Uchj4qmnEQPcs9IQmwFRsEcikZpQuJslQIV7b2+fzM5NWw97H+ZxS+6V6o4LX3RcC+BI5PnE6vQPZOnvf0o6FvdK15Vvku6rf0M6LnmPtF/8Hum86jek8+o3SfvKX8ni3/2U7vt0ctSZCULzknOuTtbKUBZhxUbMIjQRjVjNEec93Yxu4sSy37fcIdWVWZ7Kter1ItJ74iMdukJwPiy7uF3g1hLi0+ZJxxWGs4zlnrxA8Dph6b7gi2891vGRgdHS8JXV1+SEqeuou24W9dVV90VnIG6GH0Rkmu9/QDpdHnMnWXGWfeJkytqX7TSqCCOdnMd/1Tck7zweewusDZa60DZNOIQk5/VWdIR5eI3kLW5WCHmMVfiVNwvXivjGes7zmGVlB/Yjr7mX+K8PpfIc2tkpEolEQiiwsib9Yx+NGBp0X4OjsLRCOQhnRuF74dZLbJ9IJLIx1qb/SVb//q3Sffl2abvkzdLW2au/u2d0+qFNsnZUf3Td0n7RjdK9Y4es3P92WZ16Kjn6zOScsYtL7ism7FzxE0zuI0FmOU3WCfBlVcWUxOL/Va5Vr1f/I9xNEK5jmV5eXSqdy4tV3mJi0Q7TARXrwbKtp8KZEN1jw5vMqs5HjXSr/UPa4dpIY4F1Ozb4xxplOV9XZR0lyMeO8LknXizQiFmWycfwnPqnYt1PpIUPJxEHb4PcEJMalvrHfaMx0cUzq+fJiosJXEqzJ+InjTSAso5nIi2IYD6MpBv0KGZuTgfgscExG5GGNOkR9k8PMZcijFKs23Om23w4hxdN4cqqpo2PbNGwwref0WdK90TjXF5eNpdT+1ChbidfSA+Nn1Cfsxwt7JFIpCmocPx47emGP18tTQ8JGYmcXA7JnTfcIHceSlZPF7TCX/riL0rn9stVYWxSJfG0/t6+J22rTI8n0yFbJ0z6hqR7+5Wy/MV/pUK++eEDT3UYO3ts6Oxk7dSFN5MIdIYRpGPr0cnnTLDhjmEjo6wsmbUd1wwEfLosrReMJP6NAZZ23GHwk6814o2JSD0vLikIYNIFpAP3R0ZwqRfOjeBEfGLMwV2HOBhpJk2toSfrAV/+Lr3mvDe5XAMdOYf02pZWlpHIljdFcC8Ym52On+YCqtdAWptNL2If8c/xpIdGzXPjz9k5eCY4H/eI84UjDmU9B1GwRyKRhnFFCpVRl/m6U7CB3/6CsfOTpcbY926sFzmi6tCdcoMWZm3v3pdsaBX75N155zyd2fduaXlWNcLJOr9/ToLphqZvbp3PxnG81sXvfFJ/Z09Le7cKqaUnpW35SVUdmqDVR1X1HCxN68uPqdp4Sg9Q4d7ZIV09h2XhO3+exHJmsnWkuXJmozQiqnn+cK8wNx0VmJtHtsqm4c22jTHNp1W00fkT63baqtosuF2MDo6Zm4cX4Hkw1CFiFmE5NrSpJH4R2whiLyDrBYs54pPr5cvWCF4aIyFco+tk6jp5NgsjufiOxVngysIoLBiVfGNmPsclhUYUDQ2uGxedhaVFc4khf+iQalb2JiA/SOPMnBP/sHVsq1ncacz5sd5pWODTz5CO1Ke8FUgTBXskEqmCIrpoAr/MKAg9WnAyNrDfTkeu5tgpt9wisvfuaoV06O69GrwzWWslN8qH1u+XW7clq2cI+z69J1k6OZyU86twbtt+m1x9j/Of9dP9Td/c+p6N43mtiw/tkfbBIVlfeEZk/p/ku/f/o/zuv/qwPPA3X1bRjlX9e/LNz31Z/u9/9SH5zt8/oPt8X/f9gR4zIMt67JlMX0++9RjLJR1Ps6y7GwGL+CTW6xzhlwWimVFdGNovFMAs43OPmKQcRRwi8JqF8/jOio0I7d6uyi+f0skSV5JaYr8Izo/45wvXxIc1GQGNeMb6Tx+DPMt4q+AZ4PdPWnDRYfx11mkgcR+tU6mlZ8I+rOQGWhg2wYxFfGmFhhSjxzTecAmhYeEHb8CPnev2nWw599Gpo9q4GtSG3CZnadeGHGlNEwV7JBKphrKpaApW+Iu1CAvF2iqvDdukr8ZnxPPZL7Jjt8htvyOVBst98ju3XS23357uaIYF1FtSQ0so298t+7y19YY7xQWF+3vLa7KvhYfgQqHbEYGlY9L7sU85vvJ5IMM6S3oq0pKVRnDxpq22h+68Idgv79xu+y7Vant2JWEWUT15kmdNbuTYvPOXw9z+OlVcM3E1m1+gcX9gj9yiYv1DNyabsrg7vJ+1nplkm9/D3gCFxxblddG1ZMWVBASs4Q98WEX43KzIuAr2icPyrXsflvO2tsvX7/62rM8eFtHpG/f8o1x4Vpt8+2++o/s9K206yayK1aPflrVF1+nwTKS3M7ucQZRNz064+ZwbR7xVmK+zTo2ITSzpaSszUHb2dveYgLRiVfElK/h5veBSgZtiupNoFv48TByzRANE84sJ1xj7wFMO4bG1JhogY0Nj1omStwi44GD930hjwJN1Pj9x7zm3G6++y+4BsEzjxHeOJc/wGacTqrnDqIDGAIXAH9Q8yIq7VTCEI+dGyM8sYFWf1Od12lyUsjq6RsEeiUSqyCqk8iZgHn5hL/yAScNcfqvcfsse+XQoVvd9Wvbc8lap1GGIpV0i3pp6cLfs3V4WVyqhZNfNIncRdv+tsi3Z/6E7Drr9daptedU4Pv3W0v4H73hIdpVEF/Ftl727y/Ed3L1XtlcJySLSafRsk1tvv0X2fCCM65DcvXe/3HK7v5a8c+ux96/LPbeIiVcLLynY7DzJz8OQeo/NO//xzC/l0N2yd/8t8tYisa4Nwtv27pCD/vx3aNvw5vD8BfFrw22X3FNK+7pZ3ovyuoDMuJKwgJXJp2V9VYXUkaMiTz8n8tRR2XpWj/z0bTvk3O0qQLSSX1+YlXMvG5CfvvUa2bpZhcbT7HtY1o/qfGVRlifO3BFjegvKGTr6YSVFvM4utK7RgjUc6yfx14uz6C5m+kEjzDB4tAIaf1hwmTcC+2Pxxg0DSzgCstE4aoF45g2Cd0053tAZ1TequjvLY6Br89iEud2TZJQZXGG4bkBAc0/Ix1Z/PCkL8oIGE+dlLHbyniEoEfNpomCPRCItgYKHSozXnxTKG+HGt4ZiVYXeBx6SO34tJYQQaHKHlDZvu0l27wyF/k65465AdCWC7vaG3CM0juC82269XW7Zv1fMYycjvorwukilMeTGt1bGFQrSps+dkSeFeRiykWOV451fdeIaPI5tN+2WnfsPyMFkvTD+7Ttk554PZFrCG6bOuNaXZqVtSQX9uIqNZ1ScH56Sn3jpoLTPzssb33wx/hmoQdn11gulfWpafvIlKvyembJ9ZWJR1hfXTbSfqdDxNAsngpzrwaw2agCxTIdDLO58MOlEgbXUi0f81VnGPYZ0IZApK0+EMKwF6cB3m8ZIs/7apx6uPwCj3NDxk2EdyXt89WlA4OqCQMY9hc6gWN55Puikiog+GVg9qvciqw6Ngj0SibQMhhbjC4IbJhSrJgx3y01pFXXwgOzff5ts1wKOQq6tbbvctj8Jy4L9d+6Q7clqc2yXHTv3ywEUXmZ8QfiGuVHeesv+kj+/+fDf8WvuLUOrzt1oHoa0JP9bmV/1sFN2NPsAbLtV7l+/XQ5sd9fbfEdWpc64ugY2o8dlbWVF1pZ1YXldOlS7ty21qVBfTeYah2rytqV2nbO+pvut2f4ry1r5b2Akle9/8bNy1yf3JdNn5d4fJgFKUVgFP/yq/M/Sfl+Qryeb4ev3+O3JdM93k5D6QHyVqbTaMpwiHfsAgY5bDOIZizt5XjUGejIHwpslPBZxjgEDcUjHQ8aEJw1YdmlQII6xpnrCY5tPgWMjx2/03CEbS0fzR3fqvV9Zdf0XeIs1PDii7dtlFeiu3wMuP/S78h09sbLb2PV6TxpxdzqRRMEeiUSqoOJoatKKiR71G+dG+TXcFX5nn+z7ndtEdt9UbfXESrnzjpJ7g59yPRLYP1msn7SYPCgH9ieij/gqrLMQhGeBaE0W6+FGlwmiuSAuG5JcaObcWTSahyHN5P/xzK9aFv6WQCdUrvOg7N67vbGRYaqupXZc7YPnyMrwlbLU3ibtQ70y1zEgn//KrKzMq8hb7LapTae1pQ5ZmO+Te788L2sDQ7I23CnL+ntcHNwmHYNNCnYV2vfNXCQ3/9SNNr1mq276ylfl+7XCKjgs937lqPRe7va7+XKRhz/l9zssxxbb5dydSRjTrhdaSL0sLM8nos79dfKwPPX1qEjuHZKtI+cQmIz20SY9nZpnKqZLe+o2/VMqx6BUpjU4hcfSUEAg0nhAoOM/TYMB9xOWw+OYwmP1T2m5mUn/VG0rnIJ/enDlv6z9w6ngn+5QvX84Ffyz/1nH+Knon4WvS582iLCsd7Qx9rv7WBJX2NnZKYP9fMHb+djTcKJhVY7fkp49beRfVnw5U5oo2CORSEuhMmoF5q6wZ5fs2pPjxoJAk9tENX19JPvf3KBldE+gAA/d+QHZszOx9icC8QNBfBXhifW4POINrj0NjtrhRei7Px3EW96ef27HQ4/WuNZG8zCkjmMrzn/c8yvx+99V3Vm39WyTy1P9nyvzupFrqY6rRGePdF37bpmYX5VF1ej9YyKbz+2X//Jf/lH+4k+elPv2/VD+9p4fyCf+xxPyoT/6tlx25ZgK+zVZ7hEZ12O6r/3XWss3aS089+Xyc4GAPn/7mHSszcozrBSFJRb1TzzI8pMqyzfLK64hQLnmKjlXxuVAyRrfLZvOTRabYDGjI2caxidHiOFiYK4o89PW18Z3Qjye+HG1sdgybzX4XU/OOr/zLP/45zuI8NU191VZ3nSEYFyggylWdYZyxCXmVCcK9kgk0lKyfO+aYhudT3Ve1dnUQ4e/e0T86Bw25XWYBLf/1bdtL+1f261hp9yx49Ol/bffdrXcU+qMSHzOOloK37tbDobhd2Eh9+Hb5cDt9wiXVD+JCN2zp8L3uva5vXU+Cc9VsC5P6s/DkOJjq89fK80avtH8uvFDsn6PE+3+HEwtEfAVowW1WadR/zYh81qLrqUgrjSbX/ZOmeq4XCamlq3j3IsuXpFf+JnL5KILe2Vudl4W5xdl+2UD8r///KVy8dYZWVpakvGZVZluv1Q2v/ydSSwt4MisrLYPiLNVp8gLY3vPsJRHSz9LNvWsydQRlo/J1NqCPFxyiSlwq8lher62+x3CDDHLnOFmcU0ZVJGGiD/etKwszAARyjXwoSIsxfhen6r4t28nGvzQEep0IMUFyg8tyUgsDH+JWOdLpGuatmZGraHhNzE9YaO70Ik1C87fqmtve+yxx9bx7Tpw4IC8+c1vTjZHIpHnM3v++g9kdFP2WOrOTqRCw+YORIeHpf9t579wK6c1jGrCkCFn3hjtkdOL+WcOyPf+2z+T4bFZGR7pkp6eLmnv6tTfWiI6VXSsrizK4uKaTE+tyPh4t1z8C5+X/hd40/ZGOSz3fuqbIq94vbyuyiJeEPbgF+Sup8+tcHXBb/3JC26Ut6eTxr6Pilz1Uz8p1yWbavEP3/mCzCw8k3QtVFFoc4cJddU2jBBDJ0q++jkyOKZibdI6q7IvfsyUXSynjw2pjLky3C2V96g+tpKiuKvjrTw+DEew4xLkh1+kMcdQhP7NQXgcpM+bJuvcnvT1pymKGzGMOHbDYYo1lkKyjuXagM6iaXAz4oND1hgqSFaYZr4wy3l448HcGmuaGCzra2s05LJGxcmPnCTTD4FOqqSDTsM0AhjpxT9PgFhnFBqunY6tjoJEpzh36jLZsWOH5QNptl97UWZHIpHnH8jx4n9OmOdNkUikdfSds0Mu+lf3ytT8xXL0BwsycXReZsYXZH5qVham52Rmcl63LcsxDZucu0AufufnWizWvyFT2/LEel5Yg+Au074gT+JKUweIuomZw8laNvOLs+YWYRZ2/WedT02wddgQg5Oz48meZVqph2gkNIsvR9Nlq5/oVLmuDRK/jq/20pIbz72eqYis/cOpEcjPDhWbCFYaUFnx+YkGx7Gpoyp0l2xc+Mnk8/18FZVt7LOiIphrZ7le6DfAmxUaNTwDfBiJL4/Sr4B0VYv12iDWcXVi9BkEeTiyjr+eLhXzHRo3gzH4bc3gn8nj/04oEomccVCA8IW4Ra0g0vR1b2AM9kgkkknfuVfL5bd+RXqv+00Zn7tYnnlyTp55ek5++NSs/FCXj81fIl3X/ke5/P/zD9J/3ouTozaKF+QZFvHCsIQtA9KxOBV0RnUdTYe3JKtVFIVV8oMjT6rQKvbb7unuU7E3YaO1DPYN21dFsc4uqZCemp1Q4Vd2WcG/HQHP9laIdsTpMiP7nECw9nKtpxKIYfIC4Z1lMQ/BFETHYNxLENiMRc5XPxHVs/Oz5s5CnYM1G3eURu4T4ppvhQwz3rlOxNmMG4wHn3cs61jRaQBgAU8Lf9Y530bOE2IuMaurq/Kd73wnusREIhHjw3/9XwpdYrBuPXv0h+YjuHXsrIqC6vzNF8rLr/ixZC0SibSedVmeOixzzz1mv8ferZdI9zAe5M3a8LJoUqzT6XS/Gxnm7dek9sPt5dCAvOZtL5fzf3hYvn/uWWX/9jAs2ZQHI7x8/oG/lvYO1+nUybZKxw0v5kpz/efLKbYhbL1VlK9MaqD09wzI+PRRFb5uNJfS/hUxl+OEcuwOH8aXTTtVoHZqAyEkPBbCuKvDKgnDaWBg5UXYehC66Dm+Jpp3LHOuqyjuNFXXn8w9xccm8+S8abKOxVWFkXV4M8J9wgcdkc4XSLGSU/9Y42R1zToVI57T/QXSaU5THAoF1xQEkX7SWe9QkKSLY9zXVpczzkK4W7pi9UfMJYbGAI2dKNgjkUgVe/7qD2Rs82iylkJLEywKCwtzVkj29vRapeEL4+u2Xy8Xbr3UliORyGmK+ZRXu3QMIMSlIGxLKNjZ+l35xCefkFnbg2EcE/eZRNiX7cG9dfuvP/r9h+XQDx5UAeeUjf/rxQ+Cjk6Ga+urNqzjzLzrkMkeDPVIuYVows0CFwks7+2J4MPHHVcJjvf+1uWYHaHITJ/bhxGv+ZOnRGp4LIRxV4dVEoZjYe7u7qkQqrhn0FBgpK70seg8OqbiDkRDIv2V2PS5Q6quP5l7io8tJutYL9gRtVixuUY6diLMCePDRrzhZVx7LO9kMdc1EDRe0mlOUytdRXsUXG4uXCcNqkVcezTBGLu4rqxGjMf7sEfBHolEcvn9P/9tGdk0UmW58EWLn1MI8c9bF/At3PWyn9JjWvMKMBKJRELGZ47K/Q/+jfT1qmpq08n9V5xEc18znTR3l+7uXhPvBLTpvt0qxOcWZ809BuFHAALei2qO59ghDUdYLavAQhT6uEvoSrjFlYIJqTCoWMsMT9YzwwKScMpdXEz4yE+4fyjYITwWsY5hhbcKDAU53D9Sum5PkfDGoj+vjRjOAc6y3W9ikhOl0x2SH6JkHEtjh47B9qGrfvJfrONqf2+/LCwuWL3EPu1tHdZHgToKIxKuJ+EXSovSBE2HWprrh7cCiHXeFJh7TIFID0kL9ujDHolEquBjH/ScX7LKb8osHYYWNGYRSOZWkKhIZ5npknMuj2I9EokcFxBwX/vuF6Wza01KffxccWTgYrCo+/R09piFlnU6L66vr8qaKiys5vSxmdEyrVv3wfqOgC3JJxWstAGAjyshruZN2ONdXf4H5WW/5P6FYW49XMsKD+Oq71is6350mHJomw1RyAeBwjLaT+zpMWFeFc6mym1MuHtMzkyY6MSfnGEkh3Uif9mOXzlRZx3LRGDRP/ufOoaGgLmMrDq3JYzK3A/ua7+G4TdOo2plbcXukTuPE8ZzKuRtPSPecKqVrqJ/GkFVfJWT7WJveOgTwfLI4Ij55LfZ81b7H37/aaJgj0QiVeA3SMHDK0bEO1+Hw4eQ15BYrLIsMbxGvuL8q5K1SCQSaR2I9X/4zn2yvLqgYhHBVQmW34XEeo7IxB0FcYdYYhujwrAdCzquLlkdAecWZsz/20OZRtnHuRulyFrdLPjuI5IRy1np5+0CnWqzoMMlbxUwwPjhLGtBA+fo5BHz52fyLhxM5Cfr5A9DF7YS4sdgxOgyQP4j4oHrpl6a1XvFNXnIGzqTujcIk8cl/xuBzrGMREOnUyzrjTA1O+XeDKWIgj0SiVThXhc7rHDWCoJe9QN9A8L4szNaoHjryopWErwffNn2G8xqFYlEIq0EN5i///ZnZXp+QgV1tdB0462rgOsfSVwl2mVaRZvvQIpIR8jy4SRzh5mfqRB0iD32wc0jLXjx9SY878M4eTD2d6twDY0pc/vAgOLdPtINCSzReZ0fnQgeNgGJX3gtEP9YuRHHq+v5I8/QMCJ/vKtMq/ANA+Be+WXA7cf54rtGC+fmunHbYS+GuET0niyoF5c1LVjVw3RnwbOLIQyDmDeGIfBD1x5PFOyRSKQKK/xWXOEXTlSEA7391ukHywoTldz1L/wJ2Tpytu4RiUQirWF1bUUOfv+AfPmhz8viCr7LiLgkMAGBQ6dSxCgCFoHkv2Q6PDBmVnLKs8mZcRN2CHKmo5OHTaQzIfKxOvuPDqWhUyqCHUFYC588zr/RIRYRcwh1Gh9YmBHb5jOu4BaDe4XHRr3JEeuN4vLUjZzD+eztBMJSt02rEObcNCJIk7nn9A223MoO+NwjvBk734MY5lrDDqaI3f6+Abt+6iMMTLifkLYTjbkIyXqF9T8PBDp9Efq0TuV6OBa3nrwGVRTskUikCjr3UNiFVigoV0ZtJtrP2XSevOHat9k8EolEWgHC+okfPCJf+OZn5JGnv626cU3LJMRjskOCF+sIRutno+vedQJBicsGk7m6dPeaoJ+aVeGuDQGEKL7CWNzpWFpL7LIPbx7TvsW+TGQeLuPvvbCoDQi3qQr7Cub8tKbfTaTfl7d8QMhZ1KftevhCK9fhsbcImv7QCkvaKLfrxac3a8IVBrHMp/s5Pw0VHz/lvg2zODNp++K2MquCmXvGuif9Sf4sF49acM32YSNd5viJmQkzEoVimEaEDWOZnMu7CpHGFSz/OY0mf615U73wxpkJyDfSGQ616XHP6ow1QBjxhvqViY7DNCi5n1wrcZFmH2dIFOyRSKQKqjIKayw7WtJUFGJ+TsH56hffaJapSCQSaQbE4PT8pByZfFa+9+wh+ep3/k7u/dqn5OuPfskEULfqrz4V62nLOjgh3mdiEbeMvkAoUS7RuRTRi5Wdjyjh3oIwx2LOhDV2dsF9tr4WWO6x4tNAqGd/RBiNhvS+rGNV5bpJA+lk4vIQ6bwJwGKMUEaIhkLdiz5KYd8wARPLWMMDi/tGYLABrOqeuQU38gwNHNJAmhCavkHhxqxvr7hW0oMvOaKUhgv3slk4x/jUMRO0vo+By8cpazAgzrl2GlO48lg+aR4i7Bn28Xjhfc2ZxqfHdZrQtFb7q5Me8oLRbbgGXGV4y8Pzl3aZwe0US3tWH4U4rGMkEqniI3/9hzK6ecQKbgpbKipfsNhf/cN8PnGhxCJApWG94HV9aXnZ1nnVx3ErK1qhrq+aRYihtviENlYkH06h7ocic2fxuDX2ZbQGKjgsPVQQEBZ2tqR/VlaXrHKgkHSWCz4fvazxD8u6WS4Wk4q7XLn5Y8uxgaZbj+OriIwmEZIuZCvXyuFzKgaoyPggi4cgrE9ULAiJNf3H8HE9XX1agHdYZHxynNEuujS/KNQ9xDtvHePK496HVG8pkxfG59ttaLuE+SVd7x4wsbG84tIF9FXgWvAbXVx2aWtPbD7cU9LVo/m6uDinz0G/5b2jtrhJw+gPy5rv3YgxzSssot3kTxIn51tZXpLO4NUxYsKnfaOkh4MjHziD928mz8Dugy2V4fliuLmOzvJ9y4NndHFpzuKxdftbyQL3W597fgPkO3mbicZVhA/lnO4ZcuIVEDp02CRufhfpmDjGw29pSfOjV/OZRzB9Wr+6pveMMqAr6dfC88597U3Sv7K2bOclT61M0PtNXAhr4l1YnpGxITpH2u5JvOU741w0sK4PyawKXfzXQ8I0k178nslD9wx3mkV7ZGDMxNaC3oN+E53uZOGxEK5xfxmJhNFSPOHzEh7rl8LjJ6aPWb5TpoI/ljKLNwBYZ7k2rOj9WiaW/LS17EKEIl69mPPHlodptFUjPCekrylNGI64xP3Gg2WbDp2kgXz0Fm7SyPCLXV1dJfHunyniQ8TSeZQGCPOsEcTCvEsTpgmLM/nOubl3y7pO/vi8oLxiyEe+C0JZwDrPMn2taFxUUZwdxenSCVHN84IIB/JIE2zn8s+sh3155nB1qXEbLN3Ts9Mm6s+ZujQO6xiJROoDKwsWDSxCYeEZlkcUTnyIA7FOSTanhSYVDmLcQ0W0lLwipZCjUKUAQ3ybr3xSwqXKuRJUsghXKgz2RQz4Y8CW9A/zro5uE9iIO8boxZ8RAcW5iaNLC03EsCc8NgQB4URqOqSSdKjf34sDCmkKYb+NhgeVASJ5aUXzanVVl7H2aUWn+Ycg4NyIuFCsA2EIoKw0FaeyDPlgIlgnT3hvOzSvEDAISf/pduKmIqYhAViz1te4inVrcJBPjHHNsX0qLpf1ujYC5+X6iZdGkxOpKtJ1GdFHhUyDAZzVj1D9p3nJvJWQ58TvxXo4EofPc864lpwXkeo/wlMLGpBhw7GIJX1myeONwrPDPeI3iVj128jvBW3w8NstokNFF+XC/OKM5Use7Sbkeu1+LCzP6W9An/OgsWHuA5qX5F6Hnr+/V3+r3dq4Xp/WOcKedLl9syDfKEPIb35n/I5Cwt8IneHpcEo5gCCmUeAt4Ag+GoY0Yjzp3xdr/EYQqNYgK935asJj/ZKfcz7O6zpqunxmm5Wv+o/hEhHE3BeW+Uw/56Wc5NxZn7lnO/FlpTmE30kenMO5driOtewZlgldms/mS69TaHlHgPtnyPKTa9LjKKfxxcZaTHpHB8dMtDZKmGbKURoNGJCI243P7j5GRNopk3DZ4RifF+Qt6QuvpRXM67Vwv7xY555h5dcTl87NOckHcGVGdWMlCwzoPNdZRAt7JBKp4o8/g4W9bJWgjJien1YhPKAFthY8WiaVi1LKqbaSBYhOqSYqgzDvl9dPARccy3asl1jJfEGXjreEFoBY4qlwmVNge4sr2J76xx9Bgcnrbqzb7IdlyyprFREUoBTm/rVyeCyv1t3wblxHt56LV6uNW9g5/9TsMeoUK6xZt0pFKzFnQZtV4UTaXOFs1nytiLBApoU6IEwQwoitPNLp4pzkL9tpyGCpRohzf0gLn01HCCIwQ+sXecAxCCEPFm9/DPHOLZRdA9jep40kf/55zXfWS6QzqAE4B9Zfa2xpurkG0sr2UNCbmNdrpYNaf5CWZqAytvOqgO1s7yo1DtiGUCX+ufkpvZfOSkqeusaZ+zAPbyVyhbjG4fGWbkQF96lD7xENzBDe0iAw7dnQ5yUPfy/ySIeyPw1XrpX0kl9s4752a36Gz0NW3Pyeuc/kfcW+wZl4jvgNkn7fyPGh/AaJg9+jhzC202Alj9OkU8HviPhp/M5ibe+nM3zy1ieVZtbYhlWeMoH7dWzqiCvTVGzxoSSeLcLSx9JIpBxAGHN/ENjeQg7h3uGxfqk017Cjk8/ZOuWo7arJpXwhr6z81GUv2HjDiRhEiPpnPoSRSBCw/uNCWef2+DDmNNbIJ66F3w0dRlnGvYT5rDYCEOmle6bH+IZR+Fybj74d48oErNmMBQ+Uuc5K736H5FlotfeEaU4TPkshlN3kFWURQpl88A0JBPyi1ivcV+qXRX2WeE6c5bv+MiHr3KSVNwmUCWnXHCzi3prPsdRR5BV1jHWK1XsY1ld5ENdg/6CWt8ty4fwL5corr9Rygc600cIeiUTqgMIC6wavIhklwFuHwBeeWB2cBahsgfFQoHtrRAjbGdGhnoKUfazjF2K9D//UYt9T9jerj6aPyhaLFRZg/FoBH3wqLg9xUQFhscJ9husoij+PBT2e4zg/o1Twqh1RToXrrM9UIviEDtt2Z3WfEbO0a3iWWLe0qSj0rhP1sqTnsVfUehmIKwRuf++w5nuvVXaAFRTRzjlcHszauXgTQGUObHeC0gkzdy9GbPL55O8hyxtS6CmIl3yh8ltQsawnSM4hrsLWPEFo0aDo7XEjfXCtfp9mMaGsQtaLdSAPwqFL/TkQrd76jeBBwNeCNHNtiCDyEIHKsWmwGDphn33veX78fWoEzk1jgevhWrk24PlA9PjnOA9+W9x/3Ln4ffE785Am4iQO/1tKwzbuVRq2c4x/nopgH96m0cCmbOC3XZRm9uf3YGWWCnc6c7LOSDGcDRFLmj3ERXmAhRsLPfenmeeK4zmO848Nb7b+QZQHNOTtq6pLzmWHMgqxTvqwZtOQo2EQNog8xBe6EtYLbiWcg6tARDvXoFErn/3zR4dZLOKcgwnBOaN5PK15RiMC2G4jmiT3lmsbHRqTsaFN+nvotWvw99Bfe6vgPlHX0MAgn3w6gWvA/Qa3Q+4d+YelvxVjsyPIMfp4sQ7kQei37s/BffEGIfK2Hl967jcDOnB99sY6RRTskUikLihwEcpYiBnzmMKLAh/hTIGElaeVhXIWxG+iXStALChYO/IKYSzYVHSIcipGc79RYcPxHEOB7l6nYoFZ1QJ1yhomhPvrQMRkiY00WCr962QqDAQEIMY4J6IAKyNiGLwFmHMjEBBjWPmy8o+0In4QrY3mL37fJgw0TViDOU86DtZ92rAaIzxJnzUu9JrIAwQo27POj+XNW5rBfM8T8dpKOju00ZdYXReXZk3EMs3pM4Bl3W2ngdJpAjp8A5AGMYGlfHZ+0tKfBXnCPpyDe0hczH1Dh4YVbh4ewslD3C5Qf14AZ+H2db7+tSCtWfcN3LPh0he6eTUC14FABq6VZxKLNaKO3wQNzDxIE88JwoQG3owKX44hTVxb6Bd+vCB+J9opE7Qhr+fPu++uTHCfvOd37fPOf2zJNaZ53hfM+m9js+tvN+zDQ3hWwyoNYtF3tETAInYBMUbZQ7zkG40d8OcgbV6IE56Vf1zflKYNYdpo/vIxKddY6jVrsOswWhkH6whThPrEzLi9GbUvnGqjhWtiIo0I16zzk4/E7XEuI9WNs43CffBWe+oCxLsbhWVC75PmvaaNtweUgdQX+JnnPRvUARyP3z3PRBaWJxo/56DhQlxY8f3zwLNFQ9xDOJ2EuddkE+I+D9tX85tnOI8o2CORSBVzWsBSgFGIMFGZ0fo3a9P8rFnYEcGIdApybxX2RXdjVUiZ8Pj0BMyxtFJRUPhR6VBRp0EMIZyoOLAgUqhiyXfCdM4KZApfClpGwrHKXivtUJxzjWFhXATizAs0xDlvDrwYd5Y0xMG0CWfELHmKOMJ6WkuIIwJJNxV9o9RbmTuRq5Wv5i3X4e79mt1X0oll3XceBNLPfliyQzHJdtwHst4StApnVVcxo/nGuRGFrNNooH+CvUlYXVKxM2gNEIRXiN0XvSZcjzg+T1hbJd83YvmCqDfrfgD5QYPGQx74vODc5CH3nGeNfPGwTLrqaYC5Bojr6JtFvfe3Hrge8pJz8czRUZP7yNug6dlx2xaWCTwf5AtpRAj758VGPtF7gUg5UfgyAZGGMJxL3Sug7KIBXS4TFlXw8hVKGmauMU/a+b1P6vUiSL1V3cP1c1zWR23SsB/iHsgLjkGMU9Z0atlpZY+KbsQ8Bg/ylDcElAmId37veXcXcYrrjr09yyHv2HqfGcQnbhycg+ug/KcewK9+StPJb838thNIP2UyHWCH9Dny5RXPBXlerw93SL1PN3lLnrlJ6yRtLPAWY1TnpBHrOgJ7WMNogHAtITwbNE4Qyxw/v5gtrCnXeYuAxZ6BFMgHvUIXqHAvw2PJa4xczEkbrqUM6Ui9Qn55WKYxwZCZRfcn+rBHIpEq/vPe/0eGx5wbAsUmRQgFN4Uuvo0Iu7BYCQsZv1Sap8P0T3lLZTi4szmK4qVCpAKhYqBS4PU+u+PWwk4IbjrDMpoADQuzfCocz/4U0ghpKmtGmGBfD5U3QgThgesM+PNCOs2+8PXbmZM+zoPgW9MKgm2ugnUWc8RdlqgJrx/olItowuppHVMLSKcrJAxx1z9bOhfr3gedUUCwkpIHWEnNx5h4dR/qCjr8Ao0PrN4cw/Ujks06q/FUNS7yk9U0YYWXxt2/OXNpQZD7BolryLVZJ0PAFajNnuvKtygqR5OlMog1E3uaH1wrAhcLPS4kYb5zJGkjT71ANKsb2/in8SDos8RWeFbykuOIy/tzZ6WLcNJWJN4gP7dcHCF+jWsgL7EIe7HuygTgeW7XZ7jTJp8H6TRWr1cSnrsoDIqPdR0QaaBxj1f19+9dErjv67rN5xP7+aEIgWMpSxDpCFHm5kKX5Cnh5AH9E2w0lhRhunyaSmkLng0ELWkgXYhGQtr1N82+WMwH7DdebuzmXa/5ti/gbpTavyI/KgnDIB3O10yx8Pr7SPmJ9Zp1BCZC143MMmDpZzv7LOt18IwAghXxTBjnI58ZEpJ4ys9NJel0haSfnTRFoel4uQYaSxhqaDi5xiVvaWesvKJxArgCmS9/hkuKx0dtDVa9RvKDOY2DielxGc74winPF2niXLyhIN/4fREV+ehG0ak0dJw9eUmFD3sU7JFIpIqPpjqdhlgxpIVRWByFhZNfKs3TYfqnvCUjXP/6LelCr3LNiXagkqawowD0O7HMdqwm9koyCeAvBSevw2mAUDlT4LZ3MPIJxzgLMQKZ8/tzhucO00VcnAchS0FuIkYLVxoOuNeA35t95xdxIfKNoWoqc9bh0otbDB2X8q3X6fwKCUOcb7vzqydufxyVCtZnRI1/E+Be8WpFwz/dzuT3p8KiIywVDgIW63dmGvKT1TSkrQjCvS85eba4zNsO5/PucZbuapeALKFAfAh0RB7PhhN+zpoWugDR6RV3HOf2lHGPC9LtQ+hD4PfD0j08sMmWiwRMzfxI5lmkj03vWxR39bG11isJjy8Kg+Jj3bJzDXJDsvJ8I5D1Rlioa4DwYRv9/QX3hmO5bzYKigp2+7Koijn24Tfh4iqXCUXpIoyJ3w3nYld+6zwvZhzoK7uPAfGbe0vQgPBUnsXF7WGZNwGUMV7oVYQnc08YBulwGiOUe/iks2+pTND8w0Ltrr/ffuu8RSO/aBixPSwTyCtcYNgPP+zuzmxXOk86XSHpZydNUWhWvGzDnZOgzk5cvmjU04/KldOA4DZ3noIyy0fNvZuYdh9zwoJOuc+1k+6wzxbn9UNj5pX7WaQFe/1HRiKRyAah4PKWulbgOzdRaWDJpF5AnCMkqTBsxBVdT4O/LRUz1uux4S0WD3Ewx6ruK+YiiB8RjcsIVmkqLSwzlOa82g4/4uLB0keaahXaLo/KnfhICwJwkbcHLcD7toO/Tu4J7iTe1cSuhwpcxSj7Y1FnGw0T3EMQu1iaGVHEuaNkDzd5siAtXAeNCIbPxBIOPC+AoAqFRhGWN3rN3BPuA8eBucWooE4/z87q3nj1SjzkK2+DSDdTUQPtTIBrbm2Z0JeUCV1midYbYWUA4hmre16ZYH73+gxTjmweOcs6XtKgx2UG1xhEfq1nhetA9ONH7/3UzYKu/6ZmJyT9PQdAQOJf7Z+pPKxMS5UJvAXIcglsBsR42IEUuCe4ffBWgTcSXI/PE3zhmfN8krdct/mOLy2akQTRS3g9v68TBWnhOmhI4LoyOsSILu6+AddBmVdPmrkXjJdOPYBFHUENWNntTUpwrwD3nEbEehbRwh6JRKq483/8toyMVVqCKtACLSzSfAHnt6XDnLh1FUtHhxO1rkBDiDJkmRMllbG4Y0Mq18rhCwtzZjGh0DQfUa1EWLaOnLYHx7ol3CCAChCfXYTb8hIV+7q5+uACYta35MDy8WW4HvxlqeSgNCqIpscLECfsKl2HCGMUgEK0BqHzHg0KhHKYB1iJ/RB8WeRthxpntde0loeJQCSt/i0FeaVXZXF0tLmx7DWzbL+6qHVy0PO5mZ6nhngxkv1rwXPG/eF6rCGSpNveWPRki7DQskejDlHOR6HYk0YXrkK+8iV+/Lt9XDVTlZFu0obAW151HyQibuplc+vRNFtDkP0KYq+VHUXBnD8kvW86PKQ6LB1XdtzkG41dDud67VnTFX6nPT3aoNTnsGa6KrZUrs3N4/LG89xhori9vcvKnpJPerDzfFIm8DYDC7i5oekyiSNtNFr9/YasdNFoJ55+fQ5IifnME8YzoeUFYhArbJUVnefdP4MaUXgVfonz4ZKC7z1lTrC7XRvimXjDdJWXHI3lpYNroBwqNSY0Du7b8opzg8GNhvtFmdHT44aKTZM6bRXpdIUQxj/OmdXIKozajs2G8pvOqDTgcEXx93ZqZrLkR55/NHXIkt7rBX1W3G8e/3eWfTyUmWzDou7vVaOQLZd3vjjfJeb3516a7BqJRJ7P/NmrOuWcc85J1iKRSCQSiZxI/uqv/iq6xEQikUgkEolEIqcLUbBHIpFIJBKJRCKnMFGwRyKRSCQSiUQipzDtOMyXOjxEIpFIJBKJRCKRk47X6EzRwh6JRCKRSCQSiZzCRMEeiUQikUgkEomcwkTBHolEIpFIJBKJnMK0Pf744zYO+4EDB+I47JFIxGjlOOyr6yIPH1mU/f+0II8eW5Ln5lflqE7zK4WfvTgu9HW2yea+Dtmq0+WbumXneb1y1ZYe6YjdeCKRSCRyCsE47Dt27Ch/OCkK9kgkkqYVgn1RlfonHpmRvY9My9Ri5WeaTyWGe9pl9xVD8vYrBqUnKvdIJBKJnAKkBXt0iYlEIi3nvqfn5ec+84z8t29PntJiHUgf6SS9pDsSiUQikVONKNgjkUjLWF8X+fA/Tsr/df9ROTK/mmw9PSC9pBvxznVEIpFIJHKqEF1iIpFIFc24xKypyP3N/UfPCCv1qy7ok1/fuVniJyoikUjk+DE7OytPPvmkHDt2zJZhYGBANm3aJBdffLEtn2o888wz8q1vfUuOHDli61u2bJGXvOQlLev35Um7xHTceuutv7G+vi7PPfecfGX53GS3SCTyfObtF7fL4OBgslYfWKb/+jFX4J7uPDm1IitaLr707N5ky/FhZWVFnnrqKXnsscfke9/7nlVa7e3tp2QlFYlEIq1ifHxcvvjFL8rf//3fy9NPPy1zc3O2fXl52YTw448/Lg8++KAtb968Wfr6+iz8ZPPNb35TvvCFL8ja2ppceOGFMjo6KocPH7a0Unafe27rdPQjjzwiW7dutXiZooU9EolU0aiFHas67iRnGv/xhs1mbT8efPvb35YHHnhAlpaWbJ0CmUoAqKBuuOGGlltsIpFI5GRD2fcP//AP0t/fLy960YvMkj40NJSEOqanp83yzr6I+R/90R+1fU8mWNaxel9++eXyYz/2Y2b1BjQ0DY9HH31U3vzmN7es3I4W9kgkUpNGLOyMBvPevzsicydhmMbjzcNHluQt2wels711vjEU7p/73Ofk4YcfNmH+4z/+47Jz5055+ctfLtu2bbNXwU888YR85zvfsXvA69ZIJBI5E/jSl75kVuoXv/jF8rrXvc7EbU9PTxJahm1nn322XHXVVVZmfuMb35D5+Xmzap8sSDtGlV27dpXEOmBsueCCC+TQoUMyOTlp5XgrSFvYY6fTU5ht15wtX/iZ8+UDJ+/5jERqwtCNp1sH03rhuj756EyytnGoeD772c+a+wsWo7e85S1W0Pf2OtebkZERufLKK2X37t32apVXxlh1jivjD8gn9nxCHhhP1iORSOQ4gLUcbw6MFJR/oejNg33Yl2M4ljhOFrjnnH/++ZnpZhth3q/9eNCOdT1yanLowWflXfu1RbnzbHnXSLIxEjmF4KNIjLN+JrP3u9PWoXajeLH+/e9/X37iJ37CLExtbW1msaGQZ/IuMfhrvuY1r5Hu7m65//77bdvx4Qn5/Mcfl0vf8XZ56ViyKRKJRFoMPuu4wVDuvfCFL0y21g/HcCxxENfJANcc3HjyIMz74rcatHq0sJ/iHHrqqPzLjz0rH55MNkQipxB8wfRUH2d9o0zq9XGdGyEt1q+44grb/oMf/EA+9rGPyV/8xV/YtHfvXuvABIh23GSOHj1a2tZ6LpHX3BLFeiQSOb589atfNUF73XXXJVsa59prr7U4iOv5SNtjjz22jlXn9O902iXv2nW2/PNhkacfflb+5YPLyXYH7iUfvqpLZGpK3nXPlBwK9g+5f/+z8r2rq7cbUzNyjwzKrsww4p2Xn0zHOTUvH7z/qNxrgjvvnN+X259KVlL4dGddU5kk3smj8pP3l4fU23bhZvn1q/vkAn++qWW5/6Fjei4fT/Zx8Lobzpf3jhTkVcV1ebKvz8jLH8Vdf3Ks+HOGZMdbkW8jffKBG4blhmG9x8ayPP30lLxfr6v+9BfldzmO+p6v05t6O53+0bcm5c+/24iF/fTMx59+4ZD80kuae82VJ9bpUPU3f/M35gbzspe9zCwoVESMkoBLDNZ1/CH//M//3F4JY11qHePywCc+Ll8/lqwmXPbaW+Q1lyQrdfGEfH7PN2QsWugjkUgODNf4J3/yJ3L99dfLNddck2xtDlxivvKVr8jP/dzPFVq7jwd79uyxRgNTFvjZM91yyy3Jlo0Rdjo9Y33YL7igTypd/vvknYiALJ4+Ku/a92xpQsx++P5kff+UPK27IOJt/f4J+Z3csEBc+DjZZ7hP3nvjZnldEmRUnTPZXoVL99MqtC+4argyjhqY8NnZJzI5JR/cf9SmP1VxesPOs+W/X5OTF7WodV0qkvPzLiN/kin/+lPkHacNky9oWm6QFfnT5Fo/+PCKPDUllYKvZvrry++Gnq8znEePuRFOmuF0ysdHx5u7TkR4llhnGEc6ntKhFD92Rkm45JJL5FWvepW9Uv3hD39o+yHmKaiP12tWBDqVi58aE+sQLfSRSKQYjBNAORfyta99TT7ykY/YPE1eGOUk+DifT5xxgv3pp+dVjA3LO8OOmhf2q5ibl/tRkBkcmlwuTUZp3a0iREvrRWEBtk0V4/sfJs5OuShlnHPHuCkXS/ey/L2K3ftVzPx43Z1PE+EzhYV5Su59at4mxPQHNQ8aFf8hta6rofxJpkaoPq5L3nW1NkzMIntUPpxc670PHpXbH6z+gI8dm5f+OvK7mefrTOa5JjubNpSPI8PygV3nWwfsL/zM2UEn7D75AJ2yr9F5QXjYQKUh+4WfSTfUanNkrrnrXFhYMJeWUKwfPHhQ/vZv/9ZGQLjpppvMku7xnZm8LzvHsxzuc2LAcr7HLEpMn7AeqWz7vDxhnVR1+ycekHG/zSz2e+TzT7ijPeMPfCLZD8I4P1Hu5PrE50vn8VM6HndscAyQjlLcnF/TURFXav8SWftyDZXXXJmGnLQrT3y+fEwYlrfd8qS0vfI86TCbSjvkpyESOZXh+xJYw9NDNzJ2Od+iYJ4mL4w4iIty9fnGGSfYL5A5+Z9a4d8QjJ38OpafnpMvJusnji75yQsQCyvyvZRgrQeX7in58OS8fJFruno4ZZHMYaRL0CyIorRLwb26LVNoN8TGrquljPTJj+FekXGt+WSnv578PrWer5PP0SYFe/35qKL7xmG5YVIbZLwdeViPSXXCvkEboPIQb12Oyp9OddX/O2mAZkfBwQ/953/+50tinaEa+ejGC17wAhsarKur3JjAFYYOpohz//ENhtsFhn88cSBoPyfj172jZHl/e8mE/ph87vMir2H7218qZcP6mLz02svksW94AQ0q5x8/Jpddy34uTvEW/XdcKo9/HJGsXPKa0nluecd1smnTdfLShi39oGl7/NJSXBqVfP3zYXpCKvd97WW6bq49STpeG15LQdpV9H9OXluK5xb/tiFvuzL20reXt3MezVCLSxsgn//6mJ6mHCaaF++w1x4FaYhETnFwiclyX8E9prOzM9NNpiiMuPxXUY8nGEyYmmWjx6c5I11iTJRe0J9Y0frkxy9Ylj99qNraalywObHMMTVuecukFCc+2fPyQRUS9yZBRj3nHBmWn7tA5H4T2Mk1DffJTzYgtJ/KtV53NSfYa11XvTSb51nHaeNEs6l8rZpv/z0v7qL0N5DfDT1fkVzqysfkrcefPjTl3o48yNuP1POrjSxc2Q5pQ+sLT+tzMNwllyZBpxIPPfSQfVyDcYTf8IY3WGXkWVxclP9/e2f720R2RvGHQAgJrIkdlkVLCYqzpKh0CyQRUmNV7RJYRAtohZYF0XyoaJf/Aanatnzp/1DUqlJpVCmoKiLSIqJIICAfgERC3W1RRRyBaVkkiBMvIiwvm865nmvPjO3x2B4be3J+0mjG83J953o0c+bxuc8dHR1VAh22GKR5hJ0GfkgIeKQLqwbTYzpii0kLxxmJz3ZLX16fS0T6B61C3UJXVLpn4zKjFbJZTlTpTWNZLEI83CXRyLTEbYrTEKXjcYkWKt8D3erL0oSN+kRmkzJnfnZi3bc9HDFW9GWtPepczGPd6t4elsj0ZG60u9B6J/gec9EVT+1HSGOBvjsnTpxQcydu22oF0uoiwKLBi4KbPdGZRQbHogy/CGaWmPvPspYGPPBTxoO8UCTY5osuU4A6McscTuHDS4k7v9vDd77X2aqEaGzAFJ/woxtC5TjsHx7pNMRsfl6WFxkvdl5eKbfN8x1niLiE2mgyn5LTxvbfK8uLA5f6l9TepVxfAaejtXge3YJ4bkfjd9hv/i7GS1jMWGO9thOpV+ZS9VhXyXka3L59WyYmJpSHE4OFWPP44iZ/4cIF9bcxtmmfJzpXITtMb2+vTdz7id3DPihKD84lZTYSlna1RykYIrJ71hCRZlx6Ji7S35stc/aWjGReDnI7vCanxiUeHazADx+RsOdKl7CvW93DvfLxyT5JjqS3pa1DLusN7LaXMZk21+OYwf6kjOltY8nsy5GH9iOkXlm9erWv/XBQFsqsNrhPo+O/Bn2O0B8JiQScYB22WQe6w7HWe32lBFOwi2lp2BRS/uZidomsL9pc4QMo78x1dG50+HRN3L/T7PyYyHYYVZ1GET3MRCRdMMpFf8zcTn2m7cBpZTHEj32/whH4YuflFffzL0zOccYyztVqg8B2QyrkBdty619qe5d2fQWZtysSsl7b8aUMf/5APvhbdiqcMcmdaCaLUGmsayv/PDFcNXIHd3d3y549e1QnUs3Tp09VJoBUKiX79+/PjOKHEe5wzObNm2s/HDeiw+ZiqXT1wocyJfCDT90y2rvLVN8oE/aOzMtBesp0coUdJB6VwVLUOkSsuVhVitVddbzFuiMSjY9YPOl51s+My4jV9nJyry3CPpectbxEWTrzFq0DIfULRm+GyP76a3tGMVgEMeppIbAN+1hBGSirFjZB1Bv3ZoywCnbs2KG+H/+UWkU7lrEO27APwDE4FmX4RUAFu/67PSTHQy/laiaNYX7eg2A1J1+ZT6V9ugO5tg/X7zRtAFe/yHYYVZ1Gv1iQhCEuh4pmeVmQPyPCbIjSz2Ih+bCzVU2fxt6RU5tEEl8a5ar9DPEKC0JmP6M+ar+ISrt3HTYEtZ8Dl/Pyitv5Ry3bnC8cucc5zxXbWuUDo/4Fcda/jPYu5foKMj2RyjpDFm1HFYVvluP4bc3f/cP3sWxud8V4MU2lX1zVsZ1p21M59ITLO088WBBZ37hxo+zevdsm1hF9gViHx/HAgQPK1w4g1q9cuaJsMBD4NQd2C7kl4+X0atRWjfG4TEeiovW6LnMqr4VjJj14k6sVpl3CkWz03lD4MjWZiU1XF9e6WwlLOO8JONZb/r1ITk1mI+zGOSWTBSL/bnUwOwGrF4JCy4S8QfS/hs7MLhC1yAJz8eJFmycd981Lly6pbVosa2Zm0he0M+NMNegyM9Lo0VWR6hgWHQRhMGYGRDomLGMdtul0yPoYXYYfBFawpx/0BsXsCps65Mz+dzJTNsOEP1wyRCBE36mYxVrh+p0660mees8vyFVTgBTrVKdHSYU3+5QhTDEdN0QO0izaopP3n1j2QypI7If0iO7pFvOel1fczt8Q3qcs2854aDf7uWKbcQ54MUkVjrRn67+mvPb2en0FnIGN6SH1y6ZoOy7Irz9/YuyTvS5OqQ7DXki/kOLfFHXs95vlLK6TMoiVeZ53796VFy9eqCwxGNVUg5H6INaRBeHgwYOyfv16td4q1vft2+fr36n5sHvYtbgLS+/HeyV8aySz3mrpcMfsfDo9bXY21aTLlDye+bRonZVbpn0k//cZxw8ieq/rNCLJPnt0unoUrjsi5tl1f1AdTVXUu9D6rl7pN4S3traMS5/0ZwJwYVjabe2Q+R63OhBS58C+gn8LIWKtkWnY/TAlEgmVp314eFgNJHf27Fm5d++eilZju0ZnjUFZ+Tqx+k17e7sS3NqeCHbu3CmHDh0yXsLDqo6YsIx12AawL47BsSjDLwI0cNJSBFHDFRJd2yZD2wzR6Tq4EiHe8Tpw0utFkcP/+F+gRztd29Ikf//oXWnK6m3PIH0jbt7Hjh0z16SZmJhQkSKkddQ39FqLdVJfwNs+LoOWjDzpdSPJPjlJ7wtpcBCkOHfunLL4YSA4K/i3EelukaoRne1hI9myZYsSwlZgE4QQPnLkiK9C2A1E/jEKNe7H+MdTB1cKgfs9BsTDi8nhw4cr8tojqBP4gZOWDivkF4ieQ6wnUnKaYp3UmOWGiP3ku/bcukHjk61vlSXWAW6yOqe6FYz4BxFPsU408K/bBUo6LWbEe09aQuoWXNsQ6uiAf+fOHXNtGgwQ19/fr+59yKC1a9euHLEOLzuORRm1EusAght1ggA/f/68emlw2nQA1mEb9sG+OMbvjrEqwo7C0RiMsBNCgNcIO/jm9aIMjX5Vdq7yeubttuXyl59tkBa8mZQBUjkimn706FH1UMoHxTpJg4GRLFljDCL9R2wRd0IanWvXrilHx/bt29UQ/8UyYMEGg/S2EOvbtm2TWAx5wmoPIu36n1EQCoUyA9rB9ogOpgA2mIGBAV/Euo6wI/CD5wIFOyEkh1IEO7icWJDfXQ/eyHO/jXXIj1VmpfJAh1J0SIJYh/3F+XDCfRedlijWCSFLBdhaEI2GDx0DI0HkOkdBRcYViGN41tEJFZH1mmfMysPc3JyqF9Lwwr8O4KmHjcdvzzoFOyGkKKUKdnDm9rwM/9uetquR+fn33pJf/cBTOhpXkBlhbGxM1qxZozpRIR0ZojXIKoAbPlI57t27l2KdELJkgKf9xo0bGdEL8a47kkKgYwIQw7W2wXgFnWPB0NCQmvsNBTshpCjlCPbFRZHTE09UtL3R+cmmVvlsoEMsiV0q4vHjx3L58mUVldE0Nzcrryb+5iWEkKUIghcQ7ehwqlM7wk6CwAZSN9YiG0y5ULATQt445Qh2ANH+x3/Oy1//1biRdkTWf/n+Wt/EuhU8kBBZwkMInaqsqR4JIYQ0DqOjo2qOcTSqgVOwM0sMIcQ3oD9hI/lNrKPi4fxrDeoLzzrqXy0djcgR/OrwO1KsE0JI44J+SZhqRRMeGnoihBA/gKXk7IEN8un2tRJqqe+4APKso56obyUdTAkhhCwdqq2dddmZeTweV5YYDpxECNGUa4nJx7eLIl8+/kau//e5/Cf5Qh4/e61SQC68MjbUmNYVy1QkfV3bcukJr1QjmG5b11J2nnVCCCGkGmhLDOwwysMOwY6BPZAL+E9Pe+TJtxUONU4IaXj8FOyEEEII8Q7SWiJnfU9PT9bDrkPtq1atko5ljZ/dgRBCCCGEkEYFgh26HGidrsyl+NDa2irrmyjYCSGEEEIIeVPMz88rXQ59niPYMRLfluaUfKcpOAOfEEIIIYQQ0iggJ/2jR48kFAopfb64uKjmNkvM1g0h+WHzV+ozIYQQQgghpDZAnKNPKaLrOZYYvYA5cgNvXbsoP10Zl01NKbWeEEIIIYQQUj0wIvbk5KQ8e/YsM1aHdbLlYceEQT1+9O5K+WjVjMRWPJDupqSsWfbCLI4QQgghhBBSKQsLC/Lw4UOVWv3mzZvy6tUr6ezsVJlhnPp82f3791VaR4A5crJj/vz5c2V6R2GYUAhAuL7a+PEdtainF+qlHpXC9iRBh9dW/YGHFCFOgnRdBOVc6uU8/KhHLc4F34GpublZWV/a2tqUZ72lpSWbxtEi2lUe9kQioQQ7HlZWwY4J6GXrZzf8eOgFSRxWWkaQ2sIP6qUe9QDbIgvbghSiFg/fpUQ9tGeQftOgtCfEZVDwoz2KlaHbC3M94RhMWqxb16v5gwcPlGDHhIeeXtafreuAnhfCjwdnkMqolHqoA2A9/CUo5+EHbAtSTfx4+JIs9dCeQfpN2Z5Z/KhHo5QBAa7nNlFuzq0T1qkJgh0PTExamGPSn/UcWJcLgX0qpV7K8INi7VWMejmPeqmHHwTpXIh/8LqoP4o99MjSpF6ui6Bcn36cB4RlPeDHudSiDC3ErcvWuXVK79Mk/wf33O819btvbwAAAABJRU5ErkJggg==;" parent="1" vertex="1">
          <mxGeometry x="43" y="195" width="523" height="397.14" as="geometry" />
        </mxCell>
        <mxCell id="GA5pXLN3wLrpzNH8_w3A-13" value="" style="shape=image;verticalLabelPosition=bottom;labelBackgroundColor=default;verticalAlign=top;aspect=fixed;imageAspect=0;image=https://res.infoq.com/articles/getting-started-with-quarkus/en/headerimage/quarkus_h-1586170340042.jpg;clipPath=inset(15.67% 15.55% 15% 15.55%);" parent="1" vertex="1">
          <mxGeometry x="951" y="313.004" width="27.288" height="27.552" as="geometry" />
        </mxCell>
        <mxCell id="WFIqWobNTyAaokwU2WwU-1" value="&lt;b&gt;&lt;font style=&quot;&quot;&gt;&lt;span style=&quot;font-size: 18px;&quot;&gt;Chat Bot telegram @mkutanoTalks&lt;br&gt;&lt;/span&gt;&lt;br&gt;&lt;font style=&quot;font-size: 14px;&quot;&gt;laissez nous vos impréssions pour cette premiere édition. Nous comptons sur vous pour améliorer la prochaine&lt;/font&gt;&lt;br&gt;&lt;/font&gt;&lt;/b&gt;" style="text;html=1;strokeColor=none;fillColor=none;align=center;verticalAlign=middle;whiteSpace=wrap;rounded=0;" parent="1" vertex="1">
          <mxGeometry x="106" y="640" width="382" height="30" as="geometry" />
        </mxCell>
        <mxCell id="WFIqWobNTyAaokwU2WwU-2" value="&lt;b&gt;&lt;font style=&quot;&quot;&gt;&lt;span style=&quot;font-size: 18px;&quot;&gt;application web mkutanoTalks&lt;br&gt;&lt;/span&gt;&lt;br&gt;&lt;font style=&quot;font-size: 14px;&quot;&gt;Bientôt disponnible en ligne&lt;/font&gt;&lt;br&gt;&lt;/font&gt;&lt;/b&gt;" style="text;html=1;strokeColor=none;fillColor=none;align=center;verticalAlign=middle;whiteSpace=wrap;rounded=0;" parent="1" vertex="1">
          <mxGeometry x="1304" y="587" width="382" height="30" as="geometry" />
        </mxCell>
      </root>
    </mxGraphModel>
  </diagram>
</mxfile>
